<svg id="Layer_1" data-name="Layer 1" xmlns="http://www.w3.org/2000/svg" viewBox="0 0 1554.58 860.88"><defs><style>.cls-1{fill:#eafcfc;}.cls-2{fill:#5284c0;}.cls-3{fill:#a5c9f8;}.cls-4{fill:#3e917e;}.cls-5{fill:#14333a;}.cls-6{fill:#c3dafb;}.cls-7{fill:#eab054;}.cls-8{fill:#e6a13c;}.cls-9{fill:#eab055;}.cls-10{fill:#e9fbfc;}.cls-11{fill:#bcd9fa;}.cls-12{fill:#f7cc7f;}.cls-13{fill:#0f2f36;}.cls-14{fill:#f47458;}.cls-15{fill:#fbfefe;}.cls-16{fill:#113037;}.cls-17{fill:#f7a491;}.cls-18{fill:#96d9c9;}.cls-19{fill:#53c0a6;}.cls-20{fill:#50bfa5;}.cls-21{fill:#3c8f7c;}.cls-22{fill:#95d8c8;}.cls-23{fill:#e8af54;}.cls-24{fill:#a6c9f7;}.cls-25{fill:#f7cb7d;}.cls-26{fill:#194656;}</style></defs><path class="cls-1" d="M84.49,546.64c-.29-.56-.88-1.15-.85-1.69.26-3.7-1-7.15-1.93-10.58a66.45,66.45,0,0,0-4.37-11.61,185.16,185.16,0,0,0-11.56-20.15c-2.49-3.79-4.91-7.64-7.12-11.6a53.28,53.28,0,0,1-5-11.34c-.8-2.82-2-5.51-3-8.28a192.48,192.48,0,0,1-7-25.84,39.56,39.56,0,0,1-1.1-10.31,69.9,69.9,0,0,0,0-8.44,48.86,48.86,0,0,1,1.73-14.24,67.57,67.57,0,0,1,9.3-21.16c1.09-1.67,2.27-3.29,3.29-5,1.4-2.33,3.41-4.1,5.25-6,.82-.87,1.48-1.88,2.29-2.77s1.83-1.93,2.81-2.82c.78-.72,1.77-1.23,2.47-2,3.35-3.69,7.47-6.45,11.44-9.37a181.05,181.05,0,0,1,22.47-13.79c4.49-2.38,9.08-4.54,13.67-6.66,5.45-2.51,11.06-4.66,16.62-6.93,4.57-1.87,9.23-3.52,13.72-5.55,6.58-3,13.14-6,19.52-9.37a157.1,157.1,0,0,0,20.16-13c2.66-2,5-4.38,7.52-6.58,1.91-1.67,4-3.18,5.73-5a134.39,134.39,0,0,0,10.63-12.46c1-1.27,1.84-2.61,2.78-3.9,4.45-6.08,7.62-12.82,10.72-19.66,3.68-8.11,5.53-16.69,7.39-25.28.67-3.1.39-6.39,1-9.51,1.27-6.38.51-12.8.72-19.2.07-2.12.26-4.29-.64-6.34a1.51,1.51,0,0,1-.1-.79c.45-3.64-.7-7.15-.94-10.74a104.23,104.23,0,0,0-1.79-10.6c-.72-4.06-1.42-8.12-2.16-12.17-.58-3.14-1.14-6.28-1.83-9.4-1.07-4.81-1.56-9.7-2.29-14.55a95.69,95.69,0,0,1-.71-11.57c0-.92-.36-1.82-.45-2.74a7.82,7.82,0,0,1-.07-3.15,13.71,13.71,0,0,0,.53-5.15c-.31-5.79.75-11.43,1.79-17.06.68-3.65,1.82-7.22,2.77-10.82,1.91-7.33,5.6-13.89,9.15-20.46a72.83,72.83,0,0,1,7-10.19c4.41-5.62,9.74-10.3,14.75-15.3,2.33-2.33,5.29-4,7.93-6,8.23-6.29,17.44-10.87,26.73-15.3,3.48-1.66,7.17-2.89,10.79-4.26,3-1.14,6-2.34,9-3.28C319.2,14.79,325.06,13,331,11.49s12.17-3,18.33-3.91c4.07-.63,8-1.8,12.2-2,2.76-.13,5.49-1,8.24-1.38,2.23-.35,4.48-.33,6.74-.75a104.86,104.86,0,0,1,11.52-1,8.22,8.22,0,0,0,2-.09c2.73-1,5.55-.65,8.34-.71,2.27,0,4.53.16,6.75-.65a8.6,8.6,0,0,1,2.79-.15c2.81,0,5.63,0,8.44,0a8,8,0,0,0,2.4-.07c3.53-1.15,7.16-.71,10.75-.71Q460,0,490.56.07c2,0,4-.15,5.95.6a8,8,0,0,0,2.79.18c3.08,0,6.16,0,9.24,0a18,18,0,0,1,5.55.55,14.62,14.62,0,0,0,4,.24c3.19.12,6.4-.3,9.55.7a13,13,0,0,0,3.6.11c2.13,0,4.28-.2,6.34.64a5.7,5.7,0,0,0,2,.16c2.4,0,4.81-.17,7.15.69a6.22,6.22,0,0,0,2,.11c2.26,0,4.56-.21,6.73.7a2.34,2.34,0,0,0,.8.09,39.48,39.48,0,0,1,6.74.67c3.24.67,6.62.6,9.92,1s6.3.92,9.45,1.39a14.3,14.3,0,0,0,1.59.17c5.06.21,10,1.31,15,2.13,2.36.39,4.73.69,7.09,1.09,6.81,1.15,13.63,2.27,20.42,3.53q9.41,1.74,18.76,3.76,9.17,2,18.26,4.3c9,2.3,18,4.72,27,7.12,1.29.35,2.52.9,3.79,1.3,5.22,1.65,10.48,3.16,15.64,5,5.93,2.06,11.78,4.31,17.63,6.58,5.34,2.07,10.64,4.27,16,6.43.87.35,1.7.8,2.54,1.22,4,2,7.87,4,11.86,5.89a190.41,190.41,0,0,1,25.78,15.37,122.45,122.45,0,0,1,22.47,19.86c6.14,6.92,11.21,14.64,14.13,23.53,1.53,4.68,2.74,9.48,2.52,14.5-.08,2-.07,4,0,6a31.57,31.57,0,0,1-1.62,10.21c-1.12,3.84-2.32,7.66-3.52,11.48a35.81,35.81,0,0,0-1.18,14.68,13.71,13.71,0,0,0,6,10c4.33,3.07,9.18,4.2,14.29,4.47,3.47.18,7,.07,10.44,0a38.12,38.12,0,0,0,4-.46,13.41,13.41,0,0,1,2-.3c4.58.12,9-1.08,13.41-1.9,12.17-2.26,24.17-5.34,36.13-8.52,8.49-2.25,17-4.6,25.45-6.9,6.94-1.88,13.88-3.78,20.84-5.6,9.27-2.42,18.54-4.87,27.87-7.11,7.11-1.7,14.28-3.12,21.45-4.59,5.33-1.09,10.65-2.4,16-3s10.47-2,15.84-1.8c10.11-1.63,20.28-.63,30.43-.72,5.58-.06,11.06,1.32,16.51,2.57,1.16.26,2.35.36,3.53.54,0,.27.07.55.1.83q0,17.82,0,35.64l0,69.66c0,.94,0,1.87,0,2.81v146c-.91-1.12-1.93-2.18-2.73-3.39q-17.73-26.51-35.38-53.05c-.81-1.22-1.46-2.53-2.18-3.8.05-3.35.12-6.69.15-10s.09-7,0-10.44c-.11-3.28.52-6.62-.52-10.13-1.7,0-3.28-.09-4.86-.09H945.59c-.94,0-1.88,0-2.81,0-.77.05-1.53.22-2.53.36-.06,1.5-.17,2.8-.17,4.11q0,12,0,24.1l0,96.79q0,39.87,0,79.73c0,.8.13,1.59.19,2.39-.35,1.14-.63,2.32-1.09,3.42-2.23,5.3-4.52,10.58-6.78,15.87Q920.93,566.29,909.47,593c-2.9,6.76-5.87,13.49-8.81,20.24a7.14,7.14,0,0,1-.68-1.79c-.11-1.2,0-2.41,0-3.61q0-117.86,0-235.69c0-1.87,0-3.75,0-5.62q0-71.08,0-142.17a10.8,10.8,0,0,0,0-1.61c-.11-.75-.32-1.49-.53-2.43-1.61,0-3.07-.08-4.53-.08H804.51c-.8,0-1.61-.05-2.4,0s-1.52.24-2.53.42c0,1.75-.11,3.33-.11,4.92v137c0,1.33,0,2.67,0,4,0,1.74,0,3.48,0,5.22q0,95.49,0,191c-.84-1-1.76-2-2.52-3-5.32-7.5-10.6-15-15.91-22.55-.51-.72-.82-1.75-2.27-1.63-2.45,3.44-5,7-7.54,10.6L760,561.79c-1.17-1.25-.64-2.79-.65-4.2q-.07-23.18-.06-46.35,0-49.19,0-98.38a14.81,14.81,0,0,0,0-2c-.09-.76-.32-1.49-.53-2.42-1.62,0-3.08-.08-4.54-.08H663.91c-.8,0-1.61-.05-2.41,0s-1.51.24-2.52.42c0,1.75-.11,3.33-.11,4.91v93.56c0,1.34,0,2.68.07,4,0,1.73-.06,3.47-.06,5.21q0,64.15,0,128.32c0,1.6.06,3.21,0,4.81a12.56,12.56,0,0,1-.59,2.26c-.35-1.15-.7-2.3-1-3.45-4.26-14.59-8.46-29.19-12.81-43.75a181.5,181.5,0,0,0-7.17-19.94,15.55,15.55,0,0,0-9.38-8.71,41.34,41.34,0,0,0-9.72-2.17c-5.47-.61-10.93-.27-16.39-.06.28-1,.48-2.08.85-3.08q13.08-35.18,26.2-70.34a22.15,22.15,0,0,0,1-3,7,7,0,0,0-6.83-8.77c-.67,0-1.34,0-2,0-6.81.38-13.63.71-20.44,1.16-9.61.64-19.21,1.4-28.82,2-6.4.43-12.82.73-19.23,1.11-1.07.06-2.12.3-3.19.32-3.33.08-6.67.1-10,.14A21,21,0,0,0,539,491c-4.53-16.64-9.17-33.25-15-49.5a105.42,105.42,0,0,0-6.8-15.83A41.67,41.67,0,0,0,509.38,415c-1.37-1.28-2.75-2.58-4.79-2.64a10.54,10.54,0,0,0-1.48-.62,184.81,184.81,0,0,0-25.1-4.88c-6.34-.81-12.73-1.28-19.1-1.91a1.36,1.36,0,0,0-.24-.68l-.86-8a23.42,23.42,0,0,0,10.34-7.89,62.07,62.07,0,0,0,9.46-17.07,8.07,8.07,0,0,0,2.74-3.95,121.08,121.08,0,0,0,11-20.89,60.12,60.12,0,0,0,4.81-19.37c.67-12-4.39-20.3-14.44-24.95a21.49,21.49,0,0,0-2.21-.93,151.1,151.1,0,0,1-16.65-6.89A30,30,0,0,0,446,291.89c-5,.59-9.75,2-13.44,5.64a28.63,28.63,0,0,1-7.86,5.45,18.06,18.06,0,0,0-10.21,13.11,51.87,51.87,0,0,0-1.36,7.89c-.71,11.92-.39,23.8,2.24,35.51,2,9.07,5.76,17.21,12.91,23.46.33.29.93.29,1.41.42a22.14,22.14,0,0,1,0,4c-.8,4.36-.47,8.77-.74,13.14-.11,1.85-.44,3.69-.67,5.53-2,.23-3.93.44-5.9.69-3.15.4-6.3.77-9.43,1.27-5.48.89-11,1.76-16.42,2.85-2.29.45-4.74.3-6.86,1.53-3.36-.38-6.22.84-8.9,2.71a23.19,23.19,0,0,0-5.64,5.54c-.92,1.29-1.86,2.57-2.79,3.86l-3.76-5.22a1133.71,1133.71,0,0,1-65.3-101.59c-6.43-11.27-12.53-22.73-18.8-34.09-.63-1.13-1-2.48-2.32-3.17a4.5,4.5,0,0,0-1.09.48Q203.17,343.5,125.27,406.13a6.33,6.33,0,0,0-.84,1.07,26.68,26.68,0,0,0,1,2.48q11.31,20.58,22.66,41.13c2.65,4.8,5.36,9.56,8.05,14.33l-.66.69c-1-.44-2-.83-2.9-1.34q-11.41-6.33-22.79-12.7c-1.13-.62-2.31-1.17-3.62-1.82-.43.83-.76,1.38-1,2q-2.38,5.54-4.75,11.07Q103.21,503.42,86,543.83C85.53,544.79,85,545.7,84.49,546.64ZM632.38,338.48a6,6,0,0,1,4.23.85q5.35,2.73,10.76,5.39c.69.34,1.45.53,2.44.89l.68-1.09c3-4.75,6-9.52,9-14.25,5.48-8.55,11-17.06,16.5-25.61a10.69,10.69,0,0,0,2-4.34c-.5-.13-.91-.38-1.24-.3q-15,3.35-30,6.77c-4.94,1.12-9.86,2.34-14.81,3.44-10,2.24-20,4.43-30.07,6.65a9.09,9.09,0,0,0-1.52.52c-.4.19-1.17,0-1,1.13,1.26.66,2.65,1.43,4.07,2.13L618.52,328c.3,3.84.64,7.68.89,11.53s.21,7.61,1.34,11.72C625.09,347.14,628.63,342.71,632.38,338.48ZM642.51,76c-.44-.78-.89-1.58-1.33-2.38-2.2-4.07-5.54-7.16-8.73-10.39A25.43,25.43,0,0,0,625,57.89a49,49,0,0,0-6.26-2.67,44.25,44.25,0,0,0-11.33-2.14A35.93,35.93,0,0,0,596,54.44a2.52,2.52,0,0,1-2.86-.86c-.43-.5-.74-1.1-1.13-1.64a49.73,49.73,0,0,0-31.88-20.36,75.57,75.57,0,0,0-9.52-.92c-1.69-.06-3.4.59-5.11.69a41.45,41.45,0,0,0-12.35,3A48.55,48.55,0,0,0,511.2,51.13a39.35,39.35,0,0,0-4.55,7.51c-.59,1.32-1.24,2.62-1.9,4-2,.19-3.69-.73-5.43-1.33-1.12-.39-2.3-.63-3.42-1-3-1-6.07-.68-9.13-.78-7.76-.27-14.44,2.76-20.29,7.35A32.53,32.53,0,0,0,454.08,89a19.09,19.09,0,0,0,.22,7.1,13.65,13.65,0,0,0,5,.4H670.46c1.07,0,2.15,0,3.21,0a10.18,10.18,0,0,0,1.77-.44C674.32,85.37,661.3,72.64,642.51,76Zm3.6,130.73c-.9-.29-1.42-.4-1.89-.61-5.33-2.37-10.84-2.42-16.44-1.28-5.76,1.17-10.3,4.41-14,8.8a23.4,23.4,0,0,0-5.38,11.47c-.35,2.3-.67,4.73.54,7.25H770.74c1.07,0,2.15,0,3.21,0a14.37,14.37,0,0,0,2-.38,16.84,16.84,0,0,0-4.3-8.64,20.64,20.64,0,0,0-12-6.73,33.19,33.19,0,0,0-6.39-.27,3.81,3.81,0,0,1-3.92-2.11,26.88,26.88,0,0,0-5.37-6.43,28.27,28.27,0,0,0-20.16-8.36,23.44,23.44,0,0,0-7.54.68,2.92,2.92,0,0,1-3.48-1.28,40.86,40.86,0,0,0-7.83-8.42,35.65,35.65,0,0,0-19.78-7.79,34.62,34.62,0,0,0-13.45,1.31c-5.85,1.8-11.18,4.25-15.41,8.78-1.1,1.17-2.33,2.22-3.38,3.43a26.4,26.4,0,0,0-2.61,3.51C648.92,201.86,647.61,204.18,646.11,206.72ZM421.52,191.17c-.62-1.11-1.24-2.13-1.77-3.19a31.62,31.62,0,0,0-15.46-15.06,42.88,42.88,0,0,0-11.51-3.21c-3.61-.57-7.26.18-10.67,1.11a29.9,29.9,0,0,0-13.8,7.78c-2.22,2.28-4.39,4.61-6.58,6.92-2.25-.43-4.46-.87-6.68-1.26a5,5,0,0,0-1.59,0c-1.31.19-2.63.36-3.91.67-3.39.8-6.77,1.72-9.66,3.72-3.2,2.19-6.18,4.67-8,8.23a7,7,0,0,1-.41.69,3.66,3.66,0,0,1-3.36,1.79c-.94,0-1.88.06-2.81,0a13,13,0,0,0-6.95,1.56c-1.9,1-4,1.6-5.42,3.34a24.17,24.17,0,0,0-4.1,6.84,4,4,0,0,0,0,1.43c1.61.81,3.11.49,4.55.49q68.25,0,136.49,0c.81,0,1.62.06,2.41,0a23.73,23.73,0,0,0,2.38-.5c.87-8.31-2.81-14.43-8.84-19.22C438.34,187.38,430.07,187.74,421.52,191.17ZM588.81,384.28l-.47-10.36c0-.67-.05-1.33-.08-2,0-.13,0-.31-.13-.37-.31-.19-.7-.54-1-.46a1.15,1.15,0,0,0-.67.86c0,3.2.16,6.4.3,9.6a4.68,4.68,0,0,0,.47,1.92C587.43,383.79,588,383.89,588.81,384.28Zm4.9,45.05h-.12c0-1.74,0-3.47,0-5.2a.88.88,0,0,0-1.15-.79c-.33.09-.59.46-.85.73-.08.08-.07.25-.07.39-.12,3.73-.25,7.47-.29,11.21a1.35,1.35,0,0,0,.95.94c.38,0,.83-.51,1.08-.9a2.51,2.51,0,0,0,.2-1.18C593.54,432.8,593.62,431.07,593.71,429.33Zm-1-20.58c-.46-3.46-.87-6.62-1.32-9.78a4.85,4.85,0,0,0-.51-1.47.76.76,0,0,0-.67-.31,1.63,1.63,0,0,0-.89.63,2,2,0,0,0-.11,1.16c.43,3.29.87,6.58,1.34,9.87a2.78,2.78,0,0,0,.38,1.09.85.85,0,0,0,.67.3.88.88,0,0,0,.67-.32A7,7,0,0,0,592.69,408.75Zm-1.83-50.35c.48-.78.87-1.45,1.31-2.1q2.1-3.17,4.24-6.3c.37-.55.91-1,1.22-1.57a1.13,1.13,0,0,0-.16-1.05,1.05,1.05,0,0,0-1-.08,26.69,26.69,0,0,0-6.55,9.46.94.94,0,0,0,0,.77A6.12,6.12,0,0,0,590.86,358.4Zm-4.71,103.66a41.64,41.64,0,0,0,4.31-11.2,1.21,1.21,0,0,0-.1-.77,1,1,0,0,0-.55-.47.82.82,0,0,0-.71.15,3.33,3.33,0,0,0-.56,1c-1.08,3-2.16,6-3.21,9a3.32,3.32,0,0,0-.2,1.52C585.17,461.59,585.69,461.75,586.15,462.06Zm-7,11.78c-.78-1.09-1.36-1-1.9-.47q-3.78,4.11-7.52,8.26c-.14.16-.11.48-.17.74.37.8,1,.91,1.56.36A54.06,54.06,0,0,0,579.13,473.84ZM609.26,341.3c1.75-.47,3.65-.92,5.5-1.52.3-.1.53-.81.56-1.25,0-.21-.58-.69-.8-.64a43.61,43.61,0,0,0-5.63,1.61C608.21,339.76,608.49,340.61,609.26,341.3Z"/><path class="cls-2" d="M900.66,613.28c2.94-6.75,5.91-13.48,8.81-20.24Q921,566.3,932.39,539.53c2.26-5.29,4.55-10.57,6.78-15.87.46-1.1.74-2.28,1.09-3.42,1-1.9,2-3.76,2.88-5.71,3.65-8.47,7.22-17,10.85-25.46,2.79-6.51,5.64-13,8.43-19.51q5.63-13.08,11.17-26.19c.72-1.71,1.22-3.51,1.82-5.27.58-1,1.24-2.05,1.73-3.13,1.21-2.67,2.35-5.38,3.51-8.08q5.39-12.51,10.75-25,6.71-15.63,13.39-31.29,5.43-12.7,10.86-25.4,4.43-10.31,8.89-20.59c.28-.64.33-1.61,1.56-1.73.5.66,1.09,1.36,1.6,2.12q5.58,8.31,11.14,16.64a22.13,22.13,0,0,0,1.53,1.83c.72,1.27,1.37,2.58,2.18,3.8q17.65,26.53,35.38,53.05c.8,1.21,1.82,2.27,2.73,3.39a22.48,22.48,0,0,0,1.24,2.45q23.85,35.85,47.73,71.69c.58.86,1.23,1.67,1.87,2.52a4.9,4.9,0,0,0,.72-.69l12.92-22.6q4.47-7.83,8.92-15.66,5.84-10.27,11.64-20.57c2.77-4.88,5.56-9.74,8.33-14.62q3.95-7,7.85-13.94c2.6-4.51,5.21-9,7.78-13.55q16.33-28.74,32.65-57.5a29,29,0,0,0,1.29-2.9,26.93,26.93,0,0,0,1.62-2.23c1.47-2.54,2.88-5.13,4.33-7.69l18.69-32.76c4.3-7.55,8.62-15.1,12.88-22.67,1.56-2.79,3-5.66,4.47-8.49,2.33-3.9,4.72-7.76,7-11.7q22.85-40.14,45.63-80.29c1.12-2,2.27-4,3.36-5.94a24.3,24.3,0,0,0,1-2.39c-9.87-1-19.43-1.25-29.15-2.09.22-1.36,1.28-1.8,2.07-2.4q12.32-9.33,24.66-18.63,24.51-18.54,49-37.07c.83-.63,1.71-1.19,2.47-1.73,1.08.39.85,1.16.81,1.75-.33,5.07-.67,10.15-1.08,15.22-.36,4.4-.87,8.78-1.22,13.18-.66,8.14-1.22,16.28-1.89,24.42-1,12.53-2.08,25.05-3.12,37.51-1.19.53-1.56-.4-2-.92-4.75-5.08-9.47-10.2-14.21-15.3-1-1.07-2-2.09-3.11-3.22-1.58.86-2,2.32-2.73,3.54-4.46,7.78-8.87,15.59-13.3,23.38q-16.76,29.5-33.51,59c-.65,1.15-1.14,2.4-1.7,3.6a8.15,8.15,0,0,0-1,1.18q-7.39,13-14.77,26.07c-4,7.06-8.07,14.1-12.06,21.18-1.88,3.35-3.65,6.78-5.46,10.18-1.11,1.8-2.27,3.58-3.33,5.42q-7.93,13.9-15.83,27.83-6.13,10.78-12.29,21.55c-2.56,4.52-5.08,9.07-7.62,13.6-1,1.72-2.06,3.44-3,5.18q-16.46,28.94-32.88,57.89c-1.83,3.25-3.5,6.6-5.25,9.9-2.26,2.51-3.49,5.66-5.16,8.52-4,6.92-7.87,14-11.83,20.94-5.07,8.94-10.21,17.85-15.3,26.78-4.69,8.24-9.35,16.5-14.05,24.74a8.27,8.27,0,0,1-1.49,1.43c-.95-1.3-1.78-2.32-2.5-3.41q-23.44-35.17-46.89-70.37c-.88-1.32-1.91-2.54-2.88-3.8-.64-1.17-1.2-2.38-1.94-3.48Q1066.46,427,1054,408.37c-4.16-6.22-8.37-12.4-12.56-18.6a2.59,2.59,0,0,0-.23-.76q-4.47-6.66-9-13.29a18.49,18.49,0,0,0-1.72-1.82c-.5,1-.91,1.64-1.22,2.37q-2.73,6.24-5.4,12.52-8.05,18.79-16.08,37.61c-1.51,3.57-2.91,7.18-4.36,10.77-1.28,2.78-2.62,5.53-3.83,8.34-3.64,8.46-7.23,16.94-10.86,25.4-2.78,6.51-5.61,13-8.39,19.5q-5.52,12.87-11,25.77c-2.73,6.38-5.5,12.74-8.23,19.13q-5.43,12.69-10.83,25.41T939.4,586.11q-6,14-12.08,28-12.74,29.68-25.43,59.4c-.78,1.84-1.38,3.75-2.07,5.63-1.26,2.64-2.6,5.24-3.76,7.92-4.37,10.18-8.67,20.39-13,30.58-.46,1.08-1.09,2.08-1.67,3.17-1.58-.55-2.22-1.76-3-2.82q-14.16-20.16-28.28-40.34c-4-5.68-8-11.38-11.94-17.06q-11.31-16-22.65-32.06-6.81-9.64-13.62-19.3c-.55-.78-1-1.58-2.07-1.75a20.61,20.61,0,0,0-1.63-3.6c-5.73-8.23-11.53-16.42-17.33-24.6a14.17,14.17,0,0,0-1.74-1.71c-.76.87-1.44,1.51-2,2.26q-8.49,11.92-16.92,23.9a23.75,23.75,0,0,0-1.62,3.18,10.21,10.21,0,0,0-1.72,1.54q-10.26,14.32-20.44,28.71c-5.17,7.3-10.3,14.63-15.49,21.91-7.29,10.22-14.64,20.39-21.91,30.61-6.58,9.25-13.08,18.55-19.67,27.79a24.41,24.41,0,0,1-2.78,2.79c-.25-.3-.64-.55-.73-.89q-3.69-14.45-7.33-28.91a18.7,18.7,0,0,0,2.22-2.23c1.35-1.83,2.53-3.78,3.85-5.63q11.24-15.87,22.5-31.73c3.55-5,7-10.08,10.6-15.1q12.74-18,25.51-36c4.18-5.88,8.4-11.74,12.56-17.64,4.76-6.77,9.48-13.57,14.22-20.35l11.19-15.6c2.55-3.57,5.09-7.16,7.54-10.6,1.45-.12,1.76.91,2.27,1.63,5.31,7.51,10.59,15,15.91,22.55.76,1.08,1.68,2,2.52,3a3.93,3.93,0,0,0,.34,1.13q4.94,7.06,9.92,14.1,11.55,16.4,23.11,32.76,11.22,15.88,22.47,31.74c6.24,8.85,12.42,17.74,18.63,26.6.44.62,1,1.19,1.42,1.78.39-.27.72-.37.81-.57Q888.42,641.82,900.66,613.28Z"/><path class="cls-1" d="M43.4,851.9a4.8,4.8,0,0,0-1-2.95,336.52,336.52,0,0,1-18.94-35.26c-2.7-5.65-5.1-11.46-7.29-17.32-2.67-7.11-5.24-14.28-7.38-21.57a159.08,159.08,0,0,1-5.63-24c-.32-2.36-1-4.67-1.34-7-.45-3.42-.74-6.87-1-10.31-.15-2,.1-4-.63-5.94A8,8,0,0,1,0,724.68c0-2.94-.06-5.88,0-8.82,0-1.32.34-2.63.47-4a22.23,22.23,0,0,0,.28-4c-.3-3.52.69-6.89,1.09-10.31a76.33,76.33,0,0,1,2.47-10.88,120.26,120.26,0,0,1,6.24-17.69A100.42,100.42,0,0,1,20.13,652c2.51-3.58,5.29-7,8.06-10.4a82.33,82.33,0,0,1,10-10.36c2.83-2.45,5.54-5,8.18-7.63,1.41-1.4,2.52-3.11,3.92-4.52s2.24-3.49,4.73-3.2c-.73,3.37-3,6.2-3.55,9.94,7.63,4.29,15.17,8.6,22.78,12.79s15,8.2,22.61,12.19,15.42,8.05,23.19,12,15.35,7.6,23.06,11.31,15.62,7.4,23.43,11.09a4.41,4.41,0,0,1-2.64.73c-8-.11-16.06-.25-24.09-.35-1,0-2.15-.39-3,.78.31,2.2.62,4.45,1,6.69q2.58,16.44,5.17,32.9c1.51,9.65,3,19.3,4.47,29,1.72,11.1,3.49,22.2,5.22,33.3q2.27,14.46,4.51,28.94c1.67,10.7,3.37,21.41,5,32.11a21.78,21.78,0,0,1,.08,2.8c-.8,0-1.6.07-2.41.07H46.2C45.27,852.05,44.34,852,43.4,851.9Z"/><path class="cls-3" d="M1181.88,392.27q-3.92,7-7.85,13.94c-2.77,4.88-5.56,9.74-8.33,14.62q-5.82,10.28-11.64,20.57-4.44,7.83-8.92,15.66l-12.92,22.6a4.9,4.9,0,0,1-.72.69c-.64-.85-1.29-1.66-1.87-2.52q-23.88-35.83-47.73-71.69a22.48,22.48,0,0,1-1.24-2.45v-146c0-.94,0-1.87,0-2.81l57.84,0,42.53,0q0,21.08.07,42.14c0,1.74.09,3.48.13,5.21,0,1.21-.13,2.41-.13,3.61v82.25a21.93,21.93,0,0,0,.07,2.81A4.7,4.7,0,0,0,1181.88,392.27Z"/><path class="cls-4" d="M162.29,852a21.78,21.78,0,0,0-.08-2.8c-1.66-10.7-3.36-21.41-5-32.11q-2.27-14.48-4.51-28.94c-1.73-11.1-3.5-22.2-5.22-33.3-1.51-9.65-3-19.3-4.47-29q-2.56-16.46-5.17-32.9c-.35-2.24-.66-4.49-1-6.69.81-1.17,2-.79,3-.78,8,.1,16.06.24,24.09.35a4.41,4.41,0,0,0,2.64-.73c-7.81-3.69-15.64-7.34-23.43-11.09s-15.41-7.46-23.06-11.31-15.5-7.89-23.19-12-15.11-8.06-22.61-12.19-15.15-8.5-22.78-12.79c.51-3.74,2.82-6.57,3.55-9.94,2.79-6.35,5.62-12.68,8.36-19.06q10-23.37,19.95-46.79c.46-1.09.78-2.25,1.17-3.38.49-.94,1-1.85,1.46-2.81q17.26-40.41,34.51-80.82,2.37-5.53,4.75-11.07c.25-.59.58-1.14,1-2,1.31.65,2.49,1.2,3.62,1.82q11.4,6.34,22.79,12.7c.93.51,1.93.9,2.9,1.34l.92.21-.26-.9c-2.69-4.77-5.4-9.53-8.05-14.33q-11.35-20.55-22.66-41.13a26.68,26.68,0,0,1-1-2.48,6.33,6.33,0,0,1,.84-1.07q77.89-62.62,155.82-125.24a4.5,4.5,0,0,1,1.09-.48c1.32.69,1.69,2,2.32,3.17,6.27,11.36,12.37,22.82,18.8,34.09a1133.71,1133.71,0,0,0,65.3,101.59q1.89,2.61,3.75,5.21-2.07,5.36-4.16,10.69a6,6,0,0,1-.67,1l-15.18-21.21c-11.62-16.21-22.54-32.9-33.07-49.82-8.9-14.31-17.28-29-25.92-43.43a18.49,18.49,0,0,0-1.55-2c-1.28.79-2.4,1.49-3.53,2.15-6.26,3.67-12.76,4.48-19.59,1.74-4.14-1.66-7-4.82-9.71-8.18-.47-.59-1-1.16-1.39-1.68a4.16,4.16,0,0,0-1,.39q-46.2,37.61-92.37,75.23c-1.35,1.1-2.65,2.25-4,3.38a1.09,1.09,0,0,0-.23.33c0,.12-.06.26-.16.67l1.42,3.88a36.24,36.24,0,0,1,2.48,10.91c.36,10.25-1.93,19.65-9.27,27.32-1.46,1.52-1.5,2.15-.51,3.91,1.65,2.92,3.31,5.82,5,8.7,4.89,8.3,9.85,16.56,14.67,24.89a13.23,13.23,0,0,0,5.83,5.25c22.21,11.25,44.61,22.08,67.56,31.74,12.57,5.3,25.21,10.43,37.83,15.6a13.25,13.25,0,0,0,2.71.5,23.74,23.74,0,0,0,2.67,1.62c1.22.54,2.53.85,3.78,1.32,8.76,3.26,17.46,6.69,26.28,9.77,11.22,3.92,22.53,7.6,33.82,11.31,3.65,1.2,7.38,2.17,10.88,3.19a3.64,3.64,0,0,0,2.17-3c.08-1.31.91-2.44.48-3.9a24.63,24.63,0,0,0-6.15-11.08,57.66,57.66,0,0,0-8.29-6.91,7.55,7.55,0,0,1-3-3.63,9.34,9.34,0,0,1,1-8.77c2.41-3.88,6.41-4.7,10.34-2.42,1.62.93,2.67,2.7,4.65,3q.83,9.54,1.65,19.07A178.13,178.13,0,0,0,372.47,564a25.24,25.24,0,0,1,.37,2.75,9.11,9.11,0,0,1-1.58-.21c-7.16-2.19-14.33-4.32-21.45-6.62-16-5.18-32-10.53-47.76-16.45-8.64-3.24-17.28-6.45-25.85-9.86-14.28-5.69-28.51-11.51-42.48-17.92-12.27-5.64-24.63-11.09-36.77-17-13.34-6.5-26.48-13.44-39.71-20.16a9.93,9.93,0,0,0-3.7-1.53l-1.81,3.25c-4.26,7.71-14.2,12.8-23.62,10.36-2.31-.6-4.6-1.29-6.9-1.94a15,15,0,0,0-2.51,4.67c-1.5,3.43-2.92,6.89-4.37,10.35q-9.1,21.84-18.22,43.67-10,24.06-20,48.14a14.2,14.2,0,0,0-.57,2.31c2.95,2.64,5.93,4.78,8.26,7.48,7.42,8.6,10.71,18.38,7.49,29.72a9.91,9.91,0,0,0-.14,1.32c3.39,1.86,6.71,3.84,10.17,5.56,17.6,8.78,35.16,17.62,52.87,26.16,11.68,5.63,23.61,10.73,35.38,16.18a15.43,15.43,0,0,0,7.33,1.56c8-.34,16-.54,24-.86,6.14-.24,12.28-.59,18.42-.9.26,0,.53,0,.8-.07,6-.48,12-.95,17.95-1.47,2.12-.18,4.24-.49,6.35-.74s4.27.11,6.35-.64a11.13,11.13,0,0,1,2.79-.2c3.58-.3,7.2-.38,10.72-1a44,44,0,0,1,6.35-.61c0,2.95,0,5.91,0,8.86-1.72.25-3.43.55-5.15.72-3.72.38-7.44.67-11.17,1l-15.93,1.5c-.66.07-1.33.08-2,.14-4.78.44-9.55,1-14.34,1.31-4,.27-8,.38-12,.71-7,.58-14.14.8-21.21.91-11.64.19-23.28.15-34.92.25-1.42,0-2.95-.43-4.49.81a21.44,21.44,0,0,1,0,3.39,34.22,34.22,0,0,1-1.51,7.4c-2.63,6.58-7.87,9.86-14.76,10.74-.86.11-1.7.32-2.67.5,5.66,34.5,11.27,68.7,16.91,103a12.44,12.44,0,0,0,2.68.87A27.75,27.75,0,0,1,181.43,825a30.21,30.21,0,0,1,14.29,16.17c.33.84.55,1.73.88,2.78,1.59,0,3,.11,4.49.11,16.58,0,33.16.09,49.73-.82,7.33-.4,14.68-.64,22-1l.8,0c5.45-.46,10.9-1,16.35-1.37,4.79-.37,9.59-.65,14.39-1,.53,0,1.05-.16,1.58-.22l12.74-1.25v9c-4.92.48-9.84,1-14.77,1.42-8.94.69-17.88,1.28-26.82,1.92l-15.61,1.11a30.47,30.47,0,0,1-3.16.32q-22.2,0-44.42-.12Q188.11,852,162.29,852Z"/><path class="cls-5" d="M162.29,852q25.82,0,51.63,0,22.22,0,44.42.12a30.47,30.47,0,0,0,3.16-.32c3.48.07,7,.2,10.44.2q23.9,0,47.8,0c1.07,0,2.14-.1,3.2-.16s2.13.16,3.19.16H433.89c1.33,0,2.66-.11,4-.17h4.88c1.33.06,2.67.17,4,.17h90c1.33,0,2.67-.1,4-.16h6.47c1.32.06,2.64.17,4,.17q14.93,0,29.84,0c1.32,0,2.64-.09,4-.14h.78c.94.05,1.87.14,2.8.15h69c1.07,0,2.13-.11,3.2-.17h9.84c1.2.06,2.4.17,3.6.17H742c1.33,0,2.67-.1,4-.15l13.39,0a9.71,9.71,0,0,0,1.19.16h38.09a4.26,4.26,0,0,0,.78-.14c1.07.05,2.13.16,3.2.16h94.15c1.06,0,2.13-.12,3.19-.18.8.06,1.59.18,2.39.18h35.28c.79,0,1.59-.11,2.39-.17,4.5.06,9,.17,13.51.16,5.69,0,11.39-.09,17.09-.14,1.06.05,2.13.15,3.19.15h97.08c1.07,0,2.13-.1,3.2-.16s2.13.16,3.19.16h50.89c1.06,0,2.13-.11,3.19-.16,1.33.05,2.66.16,4,.16h104.35c1.33,0,2.67-.06,4-.09l40.79,0a9.4,9.4,0,0,0,1.19-.12c1.47.06,2.93.17,4.4.17h24.41c1.6,0,3.19-.1,4.79-.16H1325c1.19.06,2.39.16,3.59.16q34.85.06,69.69.08c.66,0,1.33-.12,2-.18,3.07,0,6.15.11,9.23.11h144.69c.71,2.86.32,5.5.32,8.35a17.62,17.62,0,0,1-2.26.44c-1.2.07-2.41,0-3.61,0H28.08c-1-2.86-.39-5.6-.44-8.57,5.41-.61,10.61.08,15.76-.4.94.05,1.87.15,2.8.15H159.88C160.69,852.06,161.49,852,162.29,852Z"/><path class="cls-6" d="M1181.07,254.88l-42.53,0a20.67,20.67,0,0,0-.69-5.94c-.78-2.81-1.21-5.71-1.75-8.59-.59-3.13-1.12-6.27-1.68-9.41-.24-1.3-.5-2.61-.72-3.91-.61-3.67-1.07-7.37-1.84-11-1-4.81-2.28-9.57-3.44-14.35a91.92,91.92,0,0,0-7.43-19.39,59.07,59.07,0,0,0-15.15-19.35c-4.67-3.87-9.44-7.43-15-9.83-3.28-1.41-6.46-3.23-10.15-3.51,0-.28-.06-.56-.1-.83q0-13.46.06-26.91,0-20.68,0-41.37a10.82,10.82,0,0,1,.43-4.55c.75-.11,1.51-.26,2.28-.3.93-.06,1.87,0,2.81,0h89.53c1.58,0,3.16.06,4.91.09.19,1,.4,1.74.47,2.5s0,1.6,0,2.41V251.26C1181.13,252.47,1181.09,253.67,1181.07,254.88Z"/><path class="cls-1" d="M1423.74,456.51c.09,2.26-.16,4.53.69,6.74a7.48,7.48,0,0,1,.14,2.38c0,2.13-.11,4.25.63,6.35a10.77,10.77,0,0,1,.17,3.18c.08,2.79-.25,5.6.68,8.35a9.88,9.88,0,0,1,.13,2.79,42.84,42.84,0,0,0,.59,7.55c.52,2.57.16,5.32.21,8,0,2.39-.22,4.79.64,7.14a8.58,8.58,0,0,1,.16,2.79c0,3.34,0,6.69,0,10a20.39,20.39,0,0,0,.59,6.35,13.14,13.14,0,0,1,.2,4q0,28.1,0,56.19c-2.57-.7-5.16-1.34-7.72-2.09-25-7.31-50.18-14.22-75.53-20.38l-21.42-5.23c0-.93.15-1.86.15-2.8q0-34,0-68c.62-.24,1.23-.52,1.87-.72,10.71-3.34,21.42-6.65,32.12-10,2.41-.76,4.75-1.73,7.12-2.6l4.76-1.46a6.59,6.59,0,0,0,1.18-.18q18.59-6.4,37.15-12.84C1413.43,460.18,1418.58,458.33,1423.74,456.51Z"/><path class="cls-7" d="M1466,680c.09,1.19.27,2.38.27,3.57q0,15.61,0,31.22c0,.8,0,1.6,0,2.4a2.39,2.39,0,0,1-1.45,2.21,13.31,13.31,0,0,1-2.59,1c-3.23.78-6.48,1.49-9.72,2.21-1.29.28-2.59.52-3.65.74-1.06,1.29-.72,2.54-.73,3.7,0,8.8,0,17.61,0,26.41,0,1.34,0,2.67-.08,4,.16,2.72-1.15,4.28-3.78,4.8-.79.16-1.55.4-2.33.58a34.65,34.65,0,0,0-5.4,1.34c-2.5,1.06-5.14,1.3-7.74,1.82s-5.58.55-8.3,1a60.33,60.33,0,0,1-8.36.64,5.62,5.62,0,0,0-2,.18c-2.07.85-4.22.55-6.35.61s-4.36-.24-6.4.23a28.43,28.43,0,0,1-6.35.57c-3.88,0-7.76,0-11.65,0a8.6,8.6,0,0,0-2.79.15c-2.22.8-4.48.62-6.75.63-6.29,0-12.58,0-18.87,0a10,10,0,0,0-2.8.07c-3.81,1.17-7.7.57-11.56.7a13.84,13.84,0,0,1-2.25-.28,5.33,5.33,0,0,1-.44-1.33q0-18.08,0-36.15a4.86,4.86,0,0,1,.45-1.29c1.77-.53,3.64-.26,5.48-.31,2.54-.07,5.15.24,7.6-.24a33.4,33.4,0,0,1,6.36-.55c4.41,0,8.83,0,13.25,0a10.18,10.18,0,0,0,3.18-.25,15.51,15.51,0,0,1,5.15-.53c3,0,5.89,0,8.84,0a8.52,8.52,0,0,0,2.78-.21,15.86,15.86,0,0,1,5.55-.58c2,0,4.1.29,6-.18a36.2,36.2,0,0,1,8-.63,9.1,9.1,0,0,0,2.78-.17c2.09-.78,4.22-.57,6.35-.64a9.1,9.1,0,0,0,2.78-.24,13.73,13.73,0,0,1,4.75-.56c.8,0,1.6,0,2.4-.06.57,0,1.22-.72,1-.94s-.77-.51-1-.41c-2.07.83-4.22.57-6.35.62a10.86,10.86,0,0,0-3.19.16c-2.35.82-4.75.57-7.15.64-2.92.08-5.87-.3-8.75.69a7.58,7.58,0,0,1-2.39.1c-2.68,0-5.36,0-8,0a18.24,18.24,0,0,0-4.8.15c-2.78.79-5.56.61-8.36.63-4.55,0-9.1,0-13.65,0a18,18,0,0,0-5.55.55,5.9,5.9,0,0,1-4.69-.32,11,11,0,0,1-.26-1.64q0-17.48,0-35a10.8,10.8,0,0,1,.42-2c1.21-.08,2.26-.18,3.3-.23a12.08,12.08,0,0,0,3.2-.15c2.49-.84,5-.62,7.55-.64,4.82,0,9.64,0,14.46,0,1.19,0,2.39-.13,3.58-.25,1.45-.15,2.9-.47,4.35-.51,3.08-.08,6.16,0,9.23,0a8.3,8.3,0,0,0,2.79-.16c2.22-.81,4.49-.58,6.75-.62s4.63.27,6.8-.22a36.83,36.83,0,0,1,7.16-.6,12.46,12.46,0,0,0,3.58-.21,17.78,17.78,0,0,1,5.55-.59,10,10,0,0,0,2.8-.11c3.74-1.22,7.67-.59,11.48-1.39,4.53-.95,9.21-1.15,13.72-2.36C1461.31,681.18,1463.63,680.6,1466,680Zm-35.56,45.48c-.19-.12-.38-.33-.57-.34s-.41.18-.62.28c.19.12.38.33.57.34S1430.18,725.58,1430.39,725.48Z"/><path class="cls-7" d="M1400.23,851.94c-.66.06-1.33.18-2,.18q-34.85,0-69.69-.08c-1.2,0-2.4-.1-3.59-.16,0-10.84,0-21.68,0-32.52,0-1.29-.37-2.68.74-4.12,1.14,0,2.45-.15,3.76-.16,5.88,0,11.77,0,17.66,0a10,10,0,0,0,2.79-.07c3.81-1.16,7.7-.61,11.56-.71,2.8-.08,5.7.39,8.4-.16,3.47-.69,6.9-.56,10.36-.69a8.64,8.64,0,0,0,1.65-.65c-1.47-.06-2.11-.11-2.76-.11h-12.84a7.65,7.65,0,0,0-2.4.11c-3,1-6.09.61-9.14.64a9.23,9.23,0,0,1-2.17-.48,8.6,8.6,0,0,1-.28-1.38q0-17.67,0-35.33a8.1,8.1,0,0,1,.45-1.84c2.3-.54,4.44-.23,6.56-.32a15.52,15.52,0,0,0,4-.17,24,24,0,0,1,7.15-.62c4.41,0,8.83,0,13.24,0a9.84,9.84,0,0,0,3.18-.19,17.43,17.43,0,0,1,6-.59c2.68,0,5.35,0,8,0,1.06,0,2.12-.12,3.18-.23,1.59-.17,3.16-.45,4.75-.53,2.13-.1,4.37.32,6.39-.17,3.06-.75,6.1-.56,9.16-.66a9.11,9.11,0,0,0,2.78-.21,16,16,0,0,1,5.54-.59,26.2,26.2,0,0,0,2.81-.1c3.41-.46,6.81-1.12,10.24-1.45a93.78,93.78,0,0,0,13.72-2.4c2.19-.55,4.37-1.14,6.55-1.72.09,1.2.26,2.39.26,3.59q0,15.64,0,31.3c0,.67,0,1.34,0,2a2.76,2.76,0,0,1-1.86,2.8,18.24,18.24,0,0,1-3.36,1.27q-6.68,1.33-13.38,2.48c-2.62.44-5.28.71-7.82,1-1,1.11-.7,2.37-.7,3.53,0,9.23,0,18.46,0,27.69,0,1.46-.06,2.92-.1,4.6a27.27,27.27,0,0,1-4,1.79,93.45,93.45,0,0,1-9.76,2.17c-5.15.77-10.37,1.07-15.5,1.92C1406.53,851.11,1403.27,850.78,1400.23,851.94Z"/><path class="cls-1" d="M1324.12,298.25c2.78.28,5.57.44,8.32.89,3.14.51,6.28,1.14,9.35,1.95a138.22,138.22,0,0,1,18.17,6.15,108,108,0,0,1,18.22,10,45.2,45.2,0,0,1,9.2,8.86c3.63,4.29,6.32,9.23,9.06,14.11a61.21,61.21,0,0,1,3.28,7.29c2.11,5.19,4.32,10.35,6.13,15.64,1.67,4.91,2.76,10,4.32,15,1.44,4.59,2.42,9.27,3.42,14,1.06,4.93,2,9.89,3,14.84-2.58.67-5.15,1.38-7.74,2-26.8,6.36-53.32,13.77-79.71,21.68-1.65.49-3.35.85-5,1.28q0-18.76,0-37.52c0-3.06-.07-6.11-.11-9.17,0-1.47.14-2.93.14-4.4q0-39.24,0-78.49c0-1.33-.08-2.66-.13-4Z"/><path class="cls-8" d="M1466,764.39c-2.18.58-4.36,1.17-6.55,1.72a93.78,93.78,0,0,1-13.72,2.4c-3.43.33-6.83,1-10.24,1.45a26.2,26.2,0,0,1-2.81.1,16,16,0,0,0-5.54.59,9.11,9.11,0,0,1-2.78.21c-3.06.1-6.1-.09-9.16.66-2,.49-4.26.07-6.39.17-1.59.08-3.16.36-4.75.53-1.06.11-2.12.22-3.18.23-2.68,0-5.35,0-8,0a17.43,17.43,0,0,0-6,.59,9.84,9.84,0,0,1-3.18.19c-4.41,0-8.83,0-13.24,0a24,24,0,0,0-7.15.62,15.52,15.52,0,0,1-4,.17c-2.12.09-4.26-.22-6.56.32a8.1,8.1,0,0,0-.45,1.84q0,17.67,0,35.33a8.6,8.6,0,0,0,.28,1.38,9.23,9.23,0,0,0,2.17.48c3,0,6.14.4,9.14-.64a7.65,7.65,0,0,1,2.4-.11h12.84c.65,0,1.29.05,2.76.11a8.64,8.64,0,0,1-1.65.65c-3.46.13-6.89,0-10.36.69-2.7.55-5.6.08-8.4.16-3.86.1-7.75-.45-11.56.71a10,10,0,0,1-2.79.07c-5.89,0-11.78,0-17.66,0-1.31,0-2.62.11-3.76.16-1.11,1.44-.74,2.83-.74,4.12,0,10.84,0,21.68,0,32.52h-5.65q0-15.87,0-31.73c0-1.3.36-2.68-.86-4.27-10.67,0-21.61,0-32.55,0v-2.39h45.8c4,0,8,0,12,0a15,15,0,0,0,2.56-.46,8.94,8.94,0,0,0,.28-1.43q0-17.67,0-35.36a8.71,8.71,0,0,0-.55-2c-1.45,0-2.77-.06-4.1-.07H1315a14.37,14.37,0,0,0-5.16.55,4.31,4.31,0,0,1-2.75,0,15.85,15.85,0,0,0-5.55-.56c-5.22,0-10.45,0-15.67,0v-3.2H1300c8.44,0,16.87,0,25.31,0,1.16,0,2.44.33,3.42-.77a5.8,5.8,0,0,0,.22-1.13q0-17.69,0-35.36a7.46,7.46,0,0,0-.51-1.87,21.14,21.14,0,0,0-2.13-.22q-14.46,0-28.93,0a13.53,13.53,0,0,0-2.76.34,21.3,21.3,0,0,1-9.13,0,14.48,14.48,0,0,0-2.77-.35q-22.5,0-45,0a15,15,0,0,0-2.12.28c-.26.49-.48.72-.48,1q-.09,10-.15,20.08h-6.41c0-5.48,0-11,0-16.45a8,8,0,0,0-1.74-5.69c-.92,0-1.85,0-2.78,0-5.58-.22-11.21.6-16.76-.75a10.63,10.63,0,0,0-2.4,0h-8a7.58,7.58,0,0,1-2.39-.1c-3.14-1.06-6.36-.57-9.55-.7a15.77,15.77,0,0,1-4-.26,21.49,21.49,0,0,0-5.15-.55c-4.25-.25-8.52-.4-12.73-1-2-.26-3.93-.56-5.93-.69a59.13,59.13,0,0,1-8.3-1c-5.33-1.1-10.71-2-15.88-3.79a2.65,2.65,0,0,1,1.8-3.45,23.75,23.75,0,0,1,4.11-1.33c3.85-.76,7.74-1.39,11.61-2.07a6.16,6.16,0,0,1,.11,1.2c-.22,2.16,1.08,3.18,2.86,3.8a29.66,29.66,0,0,0,3.45,1,94,94,0,0,0,10.19,1.79c4.22.43,8.38,1.37,12.65,1.47a3.6,3.6,0,0,1,1.19.11c2.31.93,4.74.63,7.13.68a7.87,7.87,0,0,1,2.39.13c2.61.91,5.28.61,7.94.67a12,12,0,0,1,3.19.12c3.15,1,6.36.56,9.55.69a16.36,16.36,0,0,1,4,.26,17.33,17.33,0,0,0,5.15.53c3.07,0,6.15,0,9.23,0a9.58,9.58,0,0,1,2.79.13c3.81,1.17,7.7.49,11.55.62a7.37,7.37,0,0,0,2.09-.52,5.26,5.26,0,0,0,.25-1q0-17.87,0-35.72a8.46,8.46,0,0,0-.57-2.05c-2.51,0-4.91,0-7.3,0-1.87,0-3.82.26-5.59-.2a27.54,27.54,0,0,0-6.75-.59c-2.81,0-5.61,0-8.42,0a8.22,8.22,0,0,1-2.78-.21c-2-.74-4-.52-6-.57-2.27-.06-4.61.21-6.79-.25a30,30,0,0,0-6-.56c-1.47,0-3.06.33-4.39-.1-4-1.31-8.2-.57-12.29-1.32-4.4-.8-8.94-1.07-13.41-1.7a70.93,70.93,0,0,1-13.2-3,12.54,12.54,0,0,0-2-.34,2.52,2.52,0,0,1,1.41-3.33,17.66,17.66,0,0,1,3.74-1.36c4.57-.91,9.16-1.75,13.75-2.49,3.81-.62,7.64-1.08,11.47-1.61,2.12-.08,4.25-.09,6.37-.26,4.63-.36,9.26-.89,13.9-1.19,6.63-.42,13.28-.69,19.92-1,.52,0,1.05-.14,1.57-.22,2.39-.1,4.78-.23,7.17-.31,9.06-.3,18.12-.74,27.19-.84,21.21-.22,42.42-.26,63.63-.39,1,0,2.11-.17,3.17-.25.92.09,1.85.26,2.77.26,16.57.15,33.14.2,49.7,1,8.54.39,17.09.68,25.63,1l1.2.08q10.2.69,20.39,1.38c.79.06,1.6,0,2.4,0,2.23.27,4.47.58,6.71.81,9.11.93,18.24,1.75,27.17,3.94a31.49,31.49,0,0,1,4.49,1.58A2.39,2.39,0,0,1,1466,680c-2.32.6-4.64,1.18-7,1.8-4.51,1.21-9.19,1.41-13.72,2.36-3.81.8-7.74.17-11.48,1.39a10,10,0,0,1-2.8.11,17.78,17.78,0,0,0-5.55.59,12.46,12.46,0,0,1-3.58.21,36.83,36.83,0,0,0-7.16.6c-2.17.49-4.52.17-6.8.22s-4.53-.19-6.75.62a8.3,8.3,0,0,1-2.79.16c-3.07,0-6.15,0-9.23,0-1.45,0-2.9.36-4.35.51-1.19.12-2.39.24-3.58.25-4.82,0-9.64,0-14.46,0-2.53,0-5.06-.2-7.55.64a12.08,12.08,0,0,1-3.2.15c-1,.05-2.09.15-3.3.23a10.8,10.8,0,0,0-.42,2q0,17.48,0,35a11,11,0,0,0,.26,1.64,5.9,5.9,0,0,0,4.69.32,18,18,0,0,1,5.55-.55c4.55,0,9.1,0,13.65,0,2.8,0,5.58.16,8.36-.63a18.24,18.24,0,0,1,4.8-.15c2.67,0,5.35,0,8,0a7.58,7.58,0,0,0,2.39-.1c2.88-1,5.83-.61,8.75-.69,2.4-.07,4.8.18,7.15-.64a10.86,10.86,0,0,1,3.19-.16c2.13-.05,4.28.21,6.35-.62.25-.1.74.19,1,.41s-.38.91-1,.94c-.8,0-1.6,0-2.4.06a13.73,13.73,0,0,0-4.75.56,9.1,9.1,0,0,1-2.78.24c-2.13.07-4.26-.14-6.35.64a9.1,9.1,0,0,1-2.78.17,36.2,36.2,0,0,0-8,.63c-1.9.47-4,.14-6,.18a15.86,15.86,0,0,0-5.55.58,8.52,8.52,0,0,1-2.78.21c-3,0-5.89,0-8.84,0a15.51,15.51,0,0,0-5.15.53,10.18,10.18,0,0,1-3.18.25c-4.42,0-8.84,0-13.25,0a33.4,33.4,0,0,0-6.36.55c-2.45.48-5.06.17-7.6.24-1.84,0-3.71-.22-5.48.31a4.86,4.86,0,0,0-.45,1.29q0,18.07,0,36.15a5.33,5.33,0,0,0,.44,1.33,13.84,13.84,0,0,0,2.25.28c3.86-.13,7.75.47,11.56-.7a10,10,0,0,1,2.8-.07c6.29,0,12.58,0,18.87,0,2.27,0,4.53.17,6.75-.63a8.6,8.6,0,0,1,2.79-.15c3.89,0,7.77,0,11.65,0a28.43,28.43,0,0,0,6.35-.57c2-.47,4.26-.17,6.4-.23s4.28.24,6.35-.61a5.62,5.62,0,0,1,2-.18,60.33,60.33,0,0,0,8.36-.64c2.72-.44,5.56-.43,8.3-1s5.24-.76,7.74-1.82a34.65,34.65,0,0,1,5.4-1.34c.78-.18,1.54-.42,2.33-.58,2.63-.52,3.94-2.08,3.78-4.8,4.15.73,8.32,1.39,12.45,2.24a19.89,19.89,0,0,1,4.43,1.65A2.22,2.22,0,0,1,1466,764.39Zm-119.35-74.17a13,13,0,0,0-5.22-.53l-80.73,0a15.62,15.62,0,0,1-5.55-.57,5.16,5.16,0,0,0-2.14.22,8.78,8.78,0,0,0-.31,1.43q0,17.67,0,35.35a9.14,9.14,0,0,0,.48,2,22.46,22.46,0,0,1,4.89.36,24.76,24.76,0,0,0,7.16.62h59c6.29,0,12.58,0,18.87,0,1,0,2.06-.2,3.15-.31a9.89,9.89,0,0,0,.34-1.74C1346.61,714.82,1346.61,702.64,1346.61,690.22Zm91.69-11.9a17.93,17.93,0,0,0-2.7-1.46,69.4,69.4,0,0,0-12.94-2.39c-4.37-.47-8.77-.63-13.16-.93-.4,0-.79-.11-1.19-.15-1.85-.2-3.7-.46-5.55-.56-2.27-.12-4.61.2-6.81-.25a42,42,0,0,0-7.57-.57c-3.08-.06-6.21.24-9.21-.23a56.26,56.26,0,0,0-8.38-.55c-5.62-.05-11.24-.05-16.86-.1-1.2,0-2.4-.1-3.6-.21-1.59-.13-3.17-.46-4.76-.46q-37.54,0-75.08,0a10.85,10.85,0,0,0-2.8.08c-3.3.9-6.65.59-10,.63-4.68.07-9.36,0-14,.09-1.2,0-2.39.15-3.59.26-1.45.14-2.9.4-4.36.44-3.35.08-6.69.06-10,.1a9.21,9.21,0,0,0-2.79.17c-2.1.69-4.24.51-6.37.57a34.19,34.19,0,0,0-6,.18c-5,1-10.12.39-15.12,1.4-3.12.63-6.33.79-9.48,1.3a55.37,55.37,0,0,0-5.82,1.4,1.41,1.41,0,0,0-1,1.76,12,12,0,0,0,2.27,1.12,83.5,83.5,0,0,0,15.37,2.42c4.64.39,9.26,1.29,14,1a7,7,0,0,1,1.19.15c1.72.19,3.43.46,5.15.54,2.94.12,5.94-.18,8.82.28a49.44,49.44,0,0,0,7.17.54c3.07,0,6.15,0,9.23.07a11.24,11.24,0,0,1,3.19.19,20.08,20.08,0,0,0,6,.52c8.56,0,17.13.06,25.7.11,1.33,0,2.66.11,4,.22s2.91.44,4.36.44q22.69.06,45.38,0c1.06,0,2.13-.09,3.19-.18,1.73-.15,3.44-.47,5.16-.49,9.1-.08,18.21-.08,27.31-.12,1.2,0,2.4-.07,3.6-.17,1.85-.15,3.7-.47,5.56-.53,3.47-.1,6.95-.07,10.43-.09a10.16,10.16,0,0,0,2.41-.07c3.81-1,7.71-.54,11.57-.73,1.33-.07,2.66-.13,4-.25s2.9-.39,4.36-.5c4.39-.32,8.78-.61,13.16-.91l.4,0c3.29-.51,6.61-.85,9.85-1.57C1433.85,680.3,1436.12,680.36,1438.3,678.32Z"/><path class="cls-1" d="M1426.18,670.39c-.8,0-1.61.08-2.4,0q-10.2-.67-20.39-1.38l-1.2-.08c-8.54-.33-17.09-.62-25.63-1-16.56-.77-33.13-.82-49.7-1-.92,0-1.85-.17-2.77-.26q0-26.15,0-52.28l5.66,1.68,12,3.64,5.61,1.72a18.68,18.68,0,0,0,2.15,1q8.81,2.74,17.62,5.43c19,5.84,38.21,11.23,57.43,16.43a23,23,0,0,0,2.35.38,1,1,0,0,1,.15.47q-.06,5.34-.14,10.69a38.3,38.3,0,0,1-.58,6.65C1425.91,665,1426.22,667.75,1426.18,670.39Z"/><path class="cls-9" d="M1423.74,456.51c-5.16,1.82-10.31,3.67-15.49,5.47q-18.55,6.45-37.15,12.84a6.59,6.59,0,0,1-1.18.18,21.9,21.9,0,0,0-.43-3.15c-1.16-4-2.39-7.9-3.63-11.84-1.72-5.46-3.47-10.92-5.18-16.39a6.72,6.72,0,0,1-.13-1.68c4.52-1.61,8.77-3.16,13-4.64,7.94-2.74,15.93-5.32,23.81-8.21,8.75-3.22,17.39-6.74,26.09-10.07a173.84,173.84,0,0,0,27.46-13,14.15,14.15,0,0,1,2.61-.92,7,7,0,0,1,.76,1.36q4.26,13.8,8.46,27.61c.89,3,.63,3.72-1.91,5.39a88,88,0,0,1-14.23,7.38c-7.15,3-14.35,5.91-21.52,8.86A13.27,13.27,0,0,0,1423.74,456.51Z"/><path class="cls-9" d="M1539,632c-.74,3-1.4,6-2.23,8.94-2,7-4.14,13.85-6,20.84-.78,3-1.78,4-5.09,3.76-4-.25-8-.4-12-1-18.39-2.8-36.51-6.9-54.56-11.35-8.69-2.14-17.36-4.39-26-6.62a22.89,22.89,0,0,1-2.23-.81c.55-1.78,1.14-3.55,1.65-5.34,1.39-4.86,2.72-9.75,4.12-14.61,1.18-4.08,2.42-8.13,3.59-12.09a6,6,0,0,1,4.16,0,57.74,57.74,0,0,0,6.19,1.55c13.67,3.44,27.33,7,41.11,9.95,4.29.92,8.59,1.82,12.9,2.63,5,.92,10,1.64,14.91,2.61a61.51,61.51,0,0,0,13.46,1.44C1535,631.78,1537,631.91,1539,632Z"/><path class="cls-6" d="M1261.19,303c1.81-3.4,3.58-6.83,5.46-10.18,4-7.08,8-14.12,12.06-21.18q7.39-13,14.77-26.07a8.15,8.15,0,0,1,1-1.18c9.44-.05,18.88,0,28.49,0,.17,1.2.35,1.95.38,2.71.14,4-.31,8,.66,11.94a13.64,13.64,0,0,1,.06,3.2l0,36H1324a16.18,16.18,0,0,0-3.09-.64c-6.14-.06-12.27,0-18.4,0-1.9.88-3.92.64-5.91.68a19.91,19.91,0,0,0-2.79.12c-3,.45-6,1.14-9,1.41-5.69.5-11.27,1.68-16.86,2.71A33.2,33.2,0,0,1,1261.19,303Z"/><path class="cls-8" d="M1539,632c-2-.05-4-.18-6-.12a61.51,61.51,0,0,1-13.46-1.44c-5-1-10-1.69-14.91-2.61-4.31-.81-8.61-1.71-12.9-2.63-13.78-3-27.44-6.51-41.11-9.95a57.74,57.74,0,0,1-6.19-1.55,6,6,0,0,0-4.16,0c-1.17,4-2.41,8-3.59,12.09-1.4,4.86-2.73,9.75-4.12,14.61-.51,1.79-1.1,3.56-1.65,5.34l-3.79-.57a1,1,0,0,0-.15-.47,22.24,22.24,0,0,1,.28-3.57c.58-2.32,1.36-4.59,2-6.89,1.86-6.38,3.77-12.75,5.52-19.17.32-1.17,1-2.46.56-3.77-2.36-.65-4.53-1.24-6.7-1.85l-17.27-4.88c-8.44-2.39-16.9-4.71-25.31-7.2s-16.53-5.11-24.8-7.63c-1.48-.46-3-.72-4.61-1.09-.66,1.89-1.32,3.49-1.8,5.14q-3.14,10.92-6.18,21.88c-.53,1.91-.86,3.88-1.28,5.82l-5.61-1.72a9.22,9.22,0,0,1,.14-1.59c2.48-8.57,5-17.13,7.45-25.72.52-1.87,1.45-3.73,1-6-1.22-.45-2.44-.94-3.7-1.34-5.31-1.71-10.67-3.27-15.93-5.12-8.56-3-17-6.18-25.57-9.28a202.2,202.2,0,0,1-28.55-12.49c-1.27-.7-2.58-1.33-3.87-2-.07-2,1.19-2.93,3-3a42.86,42.86,0,0,1,6.8.1c8.62,1,17.16,2.44,25.66,4.19,5.23,1.08,10.47,2.08,15.7,3.11l21.42,5.23c25.35,6.16,50.49,13.07,75.53,20.38,2.56.75,5.15,1.39,7.72,2.09,6.11,1.92,12.21,3.86,18.33,5.76,23.7,7.39,47.33,15,70.4,24.26,5.82,2.33,11.45,5.13,17.11,7.83a24.07,24.07,0,0,1,4.26,2.93A1.92,1.92,0,0,1,1539,632Zm-241.88-70.63a8,8,0,0,0,3.79,3c9.69,4.88,19.92,8.42,30.13,12,9.71,3.37,19.53,6.44,29.31,9.6,6.1,2,12.22,3.86,18.33,5.78,3.18,1,6.36,2,9.56,2.94q12.51,3.57,25,7c10,2.79,20,5.71,30.07,8.3,12.26,3.15,24.59,6,36.9,9q14,3.33,28.21,5.46a35.25,35.25,0,0,0,6,0c.19,0,.37-.32.76-.68a5.76,5.76,0,0,0-1-1.48,16.8,16.8,0,0,0-2.73-1.65,232.48,232.48,0,0,0-26-10.41q-30.46-10.55-61.39-19.67c-3.2-.94-6.38-2-9.59-2.87q-11.16-3.15-22.34-6.23c-8.23-2.26-16.44-4.6-24.71-6.67q-19.77-5-39.63-9.57c-5.83-1.35-11.75-2.3-17.64-3.38-3-.54-6-1-9.06-1.42C1299.83,560.23,1298.41,559.94,1297.13,561.33Z"/><path class="cls-8" d="M1453.55,405.14a14.15,14.15,0,0,0-2.61.92,173.84,173.84,0,0,1-27.46,13c-8.7,3.33-17.34,6.85-26.09,10.07-7.88,2.89-15.87,5.47-23.81,8.21-4.26,1.48-8.51,3-13,4.64a6.72,6.72,0,0,0,.13,1.68c1.71,5.47,3.46,10.93,5.18,16.39,1.24,3.94,2.47,7.88,3.63,11.84a21.9,21.9,0,0,1,.43,3.15l-4.76,1.46c.22-2.06-.51-3.95-1.11-5.86-1.51-4.82-3-9.65-4.52-14.49-1.26-4.05-2.48-8.1-3.78-12.36a22,22,0,0,0-2.85.47c-5.6,1.73-11.18,3.51-16.78,5.26-7.11,2.21-14.22,4.47-21.36,6.6-11,3.26-22,6.42-32.93,9.66-1.63.49-3.22,1.15-5.07,1.81,2.3,7.44,4.56,14.67,6.75,21.92,1.07,3.57,2,7.18,3,10.76a14.1,14.1,0,0,1-5.72,1.51,33.46,33.46,0,0,0-.69-3.9c-.74-2.57-1.66-5.08-2.44-7.63-2-6.36-3.86-12.75-5.84-19.11a11.07,11.07,0,0,0-1.27-2.16c-9.81,2.56-19.31,5.14-28.86,7.51-6.45,1.6-13,2.93-19.45,4.36-4.54,1-9.06,2.12-13.63,2.91-5.49.94-11,2.14-16.62,1.83a28.57,28.57,0,0,0-3.2.16,2.35,2.35,0,0,1,.67-3.49,54.31,54.31,0,0,1,5-3.27,220.28,220.28,0,0,1,22.5-10.26c2.08-.86,4.13-1.8,6.2-2.71,1.65-.53,3.32-1,4.94-1.62,28-10.68,56.37-20.07,85-28.87,3.69-1.14,7.33-2.45,11-3.67,1.68-.43,3.38-.79,5-1.28,26.39-7.91,52.91-15.32,79.71-21.68,2.59-.62,5.16-1.33,7.74-2,1.18-.18,2.36-.31,3.54-.53,7.59-1.36,15.16-2.83,22.77-4.07a42.45,42.45,0,0,1,7.57-.3C1452.73,402,1453,402.37,1453.55,405.14Zm-24.49,5.05a23.47,23.47,0,0,0-8.1-.06c-5.77,1-11.54,2.09-17.23,3.48q-16.12,3.94-32.15,8.28-19.69,5.33-39.31,11-16.33,4.77-32.52,10c-23.87,7.8-47.78,15.5-71,25-4.45,1.82-8.77,4-13.13,6a6.1,6.1,0,0,0-3.54,3.34,12,12,0,0,0,1.67.27,40.35,40.35,0,0,0,6.42-.19c5.76-1,11.53-2.11,17.22-3.5q16.13-3.93,32.15-8.27,19.71-5.32,39.31-11c10.89-3.18,21.74-6.5,32.52-10,23.86-7.83,47.8-15.44,71.06-25,4.93-2,9.72-4.44,14.55-6.73C1427.84,412.38,1429,412.07,1429.06,410.19Z"/><path class="cls-10" d="M1181.88,392.27a4.7,4.7,0,0,1-.67-1.37,21.93,21.93,0,0,1-.07-2.81V305.84c0-1.2.09-2.4.13-3.61a30.09,30.09,0,0,1,3,.85,92.68,92.68,0,0,0,18.34,4.93c6.76,1.15,13.51.39,20.25.69,0,2.49,0,5,0,7.47a8.72,8.72,0,0,0,.66,2.15,29,29,0,0,1-1.29,2.9q-16.3,28.77-32.65,57.5C1187.09,383.25,1184.48,387.76,1181.88,392.27Z"/><path class="cls-6" d="M1223.6,318.32a8.72,8.72,0,0,1-.66-2.15c-.09-2.49,0-5,0-7.47.09-21.22,0-42.45.06-63.81a10.33,10.33,0,0,1,2.17-.48q20.24,0,40.47.07c-1.49,2.83-2.91,5.7-4.47,8.49-4.26,7.57-8.58,15.12-12.88,22.67l-18.69,32.76c-1.45,2.56-2.86,5.15-4.33,7.69A26.93,26.93,0,0,1,1223.6,318.32Z"/><path class="cls-3" d="M900.66,613.28q-12.24,28.53-24.51,57.07c-.09.2-.42.3-.81.57-.47-.59-1-1.16-1.42-1.78-6.21-8.86-12.39-17.75-18.63-26.6q-11.2-15.9-22.47-31.74Q821.24,594.43,809.71,578q-5-7-9.92-14.1a3.93,3.93,0,0,1-.34-1.13q0-95.49,0-191c0-1.74,0-3.48,0-5.22l100.39,0c0,1.87,0,3.75,0,5.62q0,117.84,0,235.69c0,1.2-.08,2.41,0,3.61A7.14,7.14,0,0,0,900.66,613.28Z"/><path class="cls-11" d="M899.91,366.57l-100.39,0c0-1.34,0-2.68,0-4V225.64c0-1.59.07-3.17.11-4.92,1-.18,1.76-.36,2.53-.42s1.6,0,2.4,0h90.33c1.46,0,2.92.05,4.53.08.21.94.42,1.68.53,2.43a10.8,10.8,0,0,1,0,1.61Q899.92,295.49,899.91,366.57Z"/><path class="cls-12" d="M458.91,405c6.37.63,12.76,1.1,19.1,1.91a184.81,184.81,0,0,1,25.1,4.88,10.54,10.54,0,0,1,1.48.62q.42,9.17.86,18.32c0,.4.11.79.16,1.19.2,1.71.48,3.41.57,5.13.36,6.64-.65,13.33.78,19.93a6,6,0,0,1,0,1.2c0,2.94,0,5.87,0,8.81,0,.93-.12,1.86-.21,2.78-.17,1.72-.48,3.42-.52,5.14-.08,4.27,0,8.54-.06,12.81a10,10,0,0,1-.08,2.79c-1.09,3.67-.59,7.42-.7,11.13-.58,3.45-2.06,6.6-3.15,9.88q-5.94,17.84-11.94,35.66a36,36,0,0,1-1.65,3.58c-5.42-.47-10.58.81-15.71,2.3-4.87,1.41-9.72,2.85-14.89,2.45a5.79,5.79,0,0,0-2.39.15c-2.21.82-4.48.6-6.74.62-4.28,0-8.56,0-12.84,0a8.91,8.91,0,0,0-2.79.14c-2.48.85-5,.6-7.54.62-2.81,0-5.69.32-8.41-.18a48.36,48.36,0,0,0-7.95-.59c-1.2,0-2.41,0-3.61,0-3.59-.06-4-.41-4-3.83,0-1.21,0-2.41,0-3.62,0-2.8.38-5.69-.13-8.4a65.4,65.4,0,0,1-.67-11.16c0-1.88.28-3.84-.18-5.6-.75-2.79-.53-5.56-.63-8.35a16.1,16.1,0,0,0,7.08-1.41c0-4.16,1.13-8.16,1-12.32-.17-4.67,0-9.35,0-14a10.89,10.89,0,0,0-.07-2.8c-1.18-4.34-.52-8.76-.72-13.14a15.79,15.79,0,0,0-.17-3.59c-1.15-4-.33-8.22-1.34-12.28-.7-2.8-.53-5.82-1.07-8.68-.91-4.83-2-9.64-3.18-14.39a51.87,51.87,0,0,0-6.28-14.23,12.09,12.09,0,0,0-4.65-4.84c-.43-.21-.67-.79-1-1.21,2.12-1.23,4.57-1.08,6.86-1.53,5.45-1.09,10.94-2,16.42-2.85,3.13-.5,6.28-.87,9.43-1.27,2-.25,3.94-.46,5.9-.69a13.77,13.77,0,0,0,.74,1.43c3.74,5.5,7.46,11,11.26,16.49,3.14,4.53,7.31,8.12,11.14,12a7.06,7.06,0,0,0,3.8,2.08,3,3,0,0,0,3.64-1.75,17.9,17.9,0,0,0,2.31-8.38c.27-6.69-.73-13.26-1.8-19.83C459.22,407.05,459.07,406,458.91,405Z"/><path class="cls-13" d="M668.56,690.46q3.66,14.46,7.33,28.91c.09.34.48.59.73.89a36.36,36.36,0,0,0,.52,3.91q10.32,42,20.69,83.9c.21.88.29,1.79.43,2.68l-2,.87-22.07,1.22-3.91-.52c-2.28-4-4.47-8-6.71-11.87-1.45-2.52-3-5-4.47-7.49-.38-.84-.72-1.72-1.17-2.53q-9.3-16.56-18.64-33.11c-.46-.81-1-1.55-1.54-2.33a15.36,15.36,0,0,0-.59-1.46q-7.35-13.1-14.73-26.17a13.81,13.81,0,0,0-1.18-1.58l-4.12-7.32c-.9-1.77-1.74-3.57-2.72-5.29-5.59-9.81-11.29-19.57-14.53-30.5a1.22,1.22,0,0,0-.24-.32q-1.35-5.9-2.69-11.79c-.06-1.06,0-2.13-.19-3.17q-1.57-11.46-3.19-22.9c-.33-2.33-.74-4.65-1.14-7.11-3.2.07-5.81,1.68-8.69,2a2.51,2.51,0,0,1-2.1-2.06c-.67-3.25-1.59-6.44-2.37-9.66-2.27-9.3-4.82-18.5-8-27.53a15.6,15.6,0,0,0-8.14-9.36,44.21,44.21,0,0,0-9-3.19,6,6,0,0,1-1.36-.72c2.12-.24,4.23-.57,6.35-.7,6.24-.41,12.5-.73,18.75-1.11,3.72-.23,7.44-.46,11.16-.75,5.36-.42,9.33-2.84,11.38-8a24,24,0,0,1,1.29-2.46c5.46-.21,10.92-.55,16.39.06a41.34,41.34,0,0,1,9.72,2.17,15.55,15.55,0,0,1,9.38,8.71,181.5,181.5,0,0,1,7.17,19.94c4.35,14.56,8.55,29.16,12.81,43.75.34,1.15.69,2.3,1,3.45,1.59,6,3.15,12.09,4.77,18.13C664.84,676.84,666.71,683.65,668.56,690.46Z"/><path class="cls-3" d="M668.56,690.46c-1.85-6.81-3.72-13.62-5.54-20.44-1.62-6-3.18-12.09-4.77-18.13a12.56,12.56,0,0,0,.59-2.26c.09-1.6,0-3.21,0-4.81q0-64.17,0-128.32c0-1.74,0-3.48.06-5.21,1.74,0,3.48,0,5.22,0h95.15q0,23.18.06,46.35c0,1.41-.52,2.95.65,4.2-4.74,6.78-9.46,13.58-14.22,20.35-4.16,5.9-8.38,11.76-12.56,17.64q-12.76,18-25.51,36c-3.55,5-7.05,10.08-10.6,15.1q-11.24,15.87-22.5,31.73c-1.32,1.85-2.5,3.8-3.85,5.63A18.7,18.7,0,0,1,668.56,690.46Z"/><path class="cls-14" d="M601.74,573.81a24,24,0,0,0-1.29,2.46c-2.05,5.17-6,7.59-11.38,8-3.72.29-7.44.52-11.16.75-6.25.38-12.51.7-18.75,1.11-2.12.13-4.23.46-6.35.7l-3.58-.27c-5-.4-10.08-1.09-15.12-1.13-6.25,0-12.52.37-18.76.76-3.32.21-6.63.68-9.91,1.2-6.44,1-12.86,2.2-19.3,3.24-2.62.43-5.26.7-7.89,1-2.54,0-5.14-.32-7.59.14-3.2.6-6.38.41-9.56.67a134.9,134.9,0,0,1-14.35.83,1.26,1.26,0,0,0-.39,0c-2.86.91-5.82.58-8.74.7a18.94,18.94,0,0,0-4,.15c-3,.78-6.1.5-9.15.68-1.58.09-3.16.38-4.74.51a10.36,10.36,0,0,1-2.78,0,3.19,3.19,0,0,1-2.39-3.27,2.65,2.65,0,0,1,2.35-2.77,7.1,7.1,0,0,1,1.59-.17c5.2,0,10.33-1.21,15.55-.87a9.58,9.58,0,0,0,1.59-.14c1.85-.19,3.69-.45,5.54-.56,2.4-.14,4.81-.1,7.21-.25,2-.12,3.95-.45,5.94-.57,5.71-.33,11.44-.54,17.14-.93,2.1-.15,4.16-.68,6.32-1,1-3.43,2.62-6.53,2.91-10.05a17.22,17.22,0,0,0,1.28-2.44q3-9,6-18.13a31.73,31.73,0,0,0,.71-3.49,36,36,0,0,0,1.65-3.58q6-17.82,11.94-35.66c1.09-3.28,2.57-6.43,3.15-9.88.18-.19.45-.35.53-.57a7.49,7.49,0,0,1,6.66-5.43c1.44-.18,2.89-.35,4.34-.41,2.52-.1,5.11.22,7.56-.25a39.65,39.65,0,0,1,7.11-.57c1.87,0,3.73,0,5.59-.1a7.11,7.11,0,0,0,2.09-.89c3.33,0,6.67-.06,10-.14,1.07,0,2.12-.26,3.19-.32,6.41-.38,12.83-.68,19.23-1.11,9.61-.64,19.21-1.4,28.82-2,6.81-.45,13.63-.78,20.44-1.16.67,0,1.34-.06,2,0a7,7,0,0,1,6.83,8.77,22.15,22.15,0,0,1-1,3q-13.1,35.18-26.2,70.34C602.22,571.73,602,572.78,601.74,573.81Zm-39.63-26.39a12.48,12.48,0,0,0,2.7-1.21,7.31,7.31,0,0,0,2.13-8.94,5.66,5.66,0,0,0-8.63-2.46,7.51,7.51,0,0,0-2.06,9C557.3,546,559,547.3,562.11,547.42Z"/><path class="cls-11" d="M759.31,511.24H664.16c-1.74,0-3.48,0-5.22,0,0-1.34-.07-2.68-.07-4V413.71c0-1.58.07-3.16.11-4.91,1-.18,1.76-.36,2.52-.42s1.61,0,2.41,0h90.31c1.46,0,2.92.05,4.54.08.21.93.44,1.66.53,2.42a14.81,14.81,0,0,1,0,2Q759.32,462.06,759.31,511.24Z"/><path class="cls-15" d="M642.51,76c18.79-3.35,31.81,9.38,32.93,20.05a10.18,10.18,0,0,1-1.77.44c-1.06.07-2.14,0-3.21,0H459.27a13.65,13.65,0,0,1-5-.4,19.09,19.09,0,0,1-.22-7.1,32.53,32.53,0,0,1,12.4-22.12c5.85-4.59,12.53-7.62,20.29-7.35,3.06.1,6.14-.22,9.13.78,1.12.38,2.3.62,3.42,1,1.74.6,3.4,1.52,5.43,1.33.66-1.39,1.31-2.69,1.9-4a39.35,39.35,0,0,1,4.55-7.51,48.55,48.55,0,0,1,21.91-16.77,41.45,41.45,0,0,1,12.35-3c1.71-.1,3.42-.75,5.11-.69a75.57,75.57,0,0,1,9.52.92A49.73,49.73,0,0,1,592,51.94c.39.54.7,1.14,1.13,1.64a2.52,2.52,0,0,0,2.86.86,35.93,35.93,0,0,1,11.45-1.36,44.25,44.25,0,0,1,11.33,2.14A49,49,0,0,1,625,57.89a25.43,25.43,0,0,1,7.45,5.33c3.19,3.23,6.53,6.32,8.73,10.39C641.62,74.41,642.07,75.21,642.51,76Z"/><path class="cls-11" d="M1040.37,343.45a22.13,22.13,0,0,1-1.53-1.83q-5.58-8.31-11.14-16.64c-.51-.76-1.1-1.46-1.6-2.12-1.23.12-1.28,1.09-1.56,1.73q-4.49,10.28-8.89,20.59-5.45,12.69-10.86,25.4-6.7,15.65-13.39,31.29-5.35,12.53-10.75,25c-1.16,2.7-2.3,5.41-3.51,8.08-.49,1.08-1.15,2.09-1.73,3.13l-35.31,0,0-96.79q0-12,0-24.1c0-1.31.11-2.61.17-4.11,1-.14,1.76-.31,2.53-.36.93-.05,1.87,0,2.81,0h89.53c1.58,0,3.16.06,4.86.09,1,3.51.41,6.85.52,10.13.11,3.48,0,7,0,10.44S1040.42,340.1,1040.37,343.45Z"/><path class="cls-15" d="M646.11,206.72c1.5-2.54,2.81-4.86,4.22-7.1a26.4,26.4,0,0,1,2.61-3.51c1-1.21,2.28-2.26,3.38-3.43,4.23-4.53,9.56-7,15.41-8.78a34.62,34.62,0,0,1,13.45-1.31A35.65,35.65,0,0,1,705,190.38a40.86,40.86,0,0,1,7.83,8.42,2.92,2.92,0,0,0,3.48,1.28,23.44,23.44,0,0,1,7.54-.68A28.27,28.27,0,0,1,744,207.76a26.88,26.88,0,0,1,5.37,6.43,3.81,3.81,0,0,0,3.92,2.11,33.19,33.19,0,0,1,6.39.27,20.64,20.64,0,0,1,12,6.73,16.84,16.84,0,0,1,4.3,8.64,14.37,14.37,0,0,1-2,.38c-1.06.06-2.14,0-3.21,0H609c-1.21-2.52-.89-4.95-.54-7.25a23.4,23.4,0,0,1,5.38-11.47c3.66-4.39,8.2-7.63,14-8.8,5.6-1.14,11.11-1.09,16.44,1.28C644.69,206.32,645.21,206.43,646.11,206.72Z"/><path class="cls-11" d="M1080.7,149.56c3.69.28,6.87,2.1,10.15,3.51,5.55,2.4,10.32,6,15,9.83A59.07,59.07,0,0,1,1121,182.25a91.92,91.92,0,0,1,7.43,19.39c1.16,4.78,2.42,9.54,3.44,14.35.77,3.63,1.23,7.33,1.84,11,.22,1.3.48,2.61.72,3.91.56,3.14,1.09,6.28,1.68,9.41.54,2.88,1,5.78,1.75,8.59a20.67,20.67,0,0,1,.69,5.94l-57.84,0,0-69.66Q1080.67,167.38,1080.7,149.56Z"/><path class="cls-15" d="M421.52,191.17c8.55-3.43,16.82-3.79,24.27,2.14,6,4.79,9.71,10.91,8.84,19.22a23.73,23.73,0,0,1-2.38.5c-.79.08-1.6,0-2.41,0q-68.23,0-136.49,0c-1.44,0-2.94.32-4.55-.49a4,4,0,0,1,0-1.43,24.17,24.17,0,0,1,4.1-6.84c1.4-1.74,3.52-2.38,5.42-3.34a13,13,0,0,1,6.95-1.56c.93.07,1.87,0,2.81,0a3.66,3.66,0,0,0,3.36-1.79,7,7,0,0,0,.41-.69c1.83-3.56,4.81-6,8-8.23,2.89-2,6.27-2.92,9.66-3.72,1.28-.31,2.6-.48,3.91-.67a5,5,0,0,1,1.59,0c2.22.39,4.43.83,6.68,1.26,2.19-2.31,4.36-4.64,6.58-6.92a29.9,29.9,0,0,1,13.8-7.78c3.41-.93,7.06-1.68,10.67-1.11a42.88,42.88,0,0,1,11.51,3.21A31.62,31.62,0,0,1,419.75,188C420.28,189,420.9,190.06,421.52,191.17Z"/><path class="cls-9" d="M389.69,412.37c.32.42.56,1,1,1.21a12.09,12.09,0,0,1,4.65,4.84,51.87,51.87,0,0,1,6.28,14.23c1.23,4.75,2.27,9.56,3.18,14.39.54,2.86.37,5.88,1.07,8.68,1,4.06.19,8.26,1.34,12.28a15.79,15.79,0,0,1,.17,3.59c.2,4.38-.46,8.8.72,13.14a10.89,10.89,0,0,1,.07,2.8c0,4.68-.13,9.36,0,14,.15,4.16-.93,8.16-1,12.32a16.1,16.1,0,0,1-7.08,1.41l-24.68,0a12.29,12.29,0,0,1-3.55-.23,17.76,17.76,0,0,0-5.51-.55,3.55,3.55,0,0,1-3.09-4.28,12.05,12.05,0,0,0,0-1.59c-.08-5.55-.15-11.11-.26-16.67,0-1.31-.23-2.61-.35-3.92.12-1.19.31-2.37.34-3.56.07-2.52.08-5.06.06-7.59a171.85,171.85,0,0,1,1-19.91c.33-3,.84-6,1.34-9.06.65-3.93,1.39-7.85,2.09-11.77a6,6,0,0,0,.67-1q2.1-5.34,4.16-10.69c.94-1.28,1.88-2.56,2.8-3.85a23.19,23.19,0,0,1,5.64-5.54C383.47,413.21,386.33,412,389.69,412.37Z"/><path class="cls-16" d="M429.73,383.37c-.48-.13-1.08-.13-1.41-.42-7.15-6.25-10.88-14.39-12.91-23.46-2.63-11.71-3-23.59-2.24-35.51a51.87,51.87,0,0,1,1.36-7.89A18.06,18.06,0,0,1,424.74,303a28.63,28.63,0,0,0,7.86-5.45c3.69-3.62,8.44-5,13.44-5.64a30,30,0,0,1,16.83,2.47,151.1,151.1,0,0,0,16.65,6.89,21.49,21.49,0,0,1,2.21.93c10,4.65,15.11,12.95,14.44,24.95a60.12,60.12,0,0,1-4.81,19.37,121.08,121.08,0,0,1-11,20.89l-1.48.18a119,119,0,0,0,3-19.77c.33-3.72.38-7.47.43-11.21a22.43,22.43,0,0,0-4.16-13.16,5.08,5.08,0,0,0-3.92-2.4c-.8-.09-1.6-.16-2.4-.18a28.15,28.15,0,0,0-12.79,2.79A37.46,37.46,0,0,0,443,337.7a11.38,11.38,0,0,1-10.37,5.6c-1.73,0-3.45-.29-5.18-.38a8.65,8.65,0,0,0-2.74.1,7.4,7.4,0,0,0-5.3,6c-.7,3.14-.39,6.15,2.13,8.52a6.64,6.64,0,0,0,1.68,1.06c.82.38,1.67.68,2.48,1a50.42,50.42,0,0,0,4.6,15.9c-.07,1.28-.13,2.56-.2,3.84S429.85,382,429.73,383.37Z"/><path class="cls-17" d="M430.3,375.48a50.42,50.42,0,0,1-4.6-15.9c-.81-.33-1.66-.63-2.48-1a6.64,6.64,0,0,1-1.68-1.06c-2.52-2.37-2.83-5.38-2.13-8.52a7.4,7.4,0,0,1,5.3-6,8.65,8.65,0,0,1,2.74-.1c1.73.09,3.45.38,5.18.38A11.38,11.38,0,0,0,443,337.7a37.46,37.46,0,0,1,16.07-14.06,28.15,28.15,0,0,1,12.79-2.79c.8,0,1.6.09,2.4.18a5.08,5.08,0,0,1,3.92,2.4,22.43,22.43,0,0,1,4.16,13.16c0,3.74-.1,7.49-.43,11.21a119,119,0,0,1-3,19.77l-1.26,3.77a62.07,62.07,0,0,1-9.46,17.07,23.42,23.42,0,0,1-10.34,7.89,14.65,14.65,0,0,1-7.43-1,40.06,40.06,0,0,1-8-5.17,42.6,42.6,0,0,1-11.09-13.39A10.55,10.55,0,0,0,430.3,375.48Z"/><path class="cls-9" d="M539.29,493.39a7.11,7.11,0,0,1-2.09.89c-1.86.14-3.72.06-5.59.1a39.65,39.65,0,0,0-7.11.57c-2.45.47-5,.15-7.56.25-1.45.06-2.9.23-4.34.41a7.49,7.49,0,0,0-6.66,5.43c-.08.22-.35.38-.53.57.11-3.71-.39-7.46.7-11.13a10,10,0,0,0,.08-2.79c0-4.27,0-8.54.06-12.81,0-1.72.35-3.42.52-5.14.09-.92.2-1.85.21-2.78,0-2.94,0-5.87,0-8.81a6,6,0,0,0,0-1.2c-1.43-6.6-.42-13.29-.78-19.93-.09-1.72-.37-3.42-.57-5.13-.05-.4-.14-.79-.16-1.19q-.43-9.15-.86-18.32c2,.06,3.42,1.36,4.79,2.64a41.67,41.67,0,0,1,7.78,10.66,105.42,105.42,0,0,1,6.8,15.83c5.83,16.25,10.47,32.86,15,49.5A21,21,0,0,1,539.29,493.39Z"/><path class="cls-3" d="M940.1,438.12l35.31,0c-.6,1.76-1.1,3.56-1.82,5.27q-5.54,13.11-11.17,26.19c-2.79,6.51-5.64,13-8.43,19.51-3.63,8.48-7.2,17-10.85,25.46-.84,2-1.91,3.81-2.88,5.71-.06-.8-.19-1.59-.19-2.39Q940.07,478,940.1,438.12Z"/><path class="cls-18" d="M618.52,328l-15.14-7.36c-1.42-.7-2.81-1.47-4.07-2.13-.17-1.13.6-.94,1-1.13a9.09,9.09,0,0,1,1.52-.52c10-2.22,20-4.41,30.07-6.65,5-1.1,9.87-2.32,14.81-3.44q15-3.42,30-6.77c.33-.08.74.17,1.24.3a10.69,10.69,0,0,1-2,4.34c-5.48,8.55-11,17.06-16.5,25.61-3,4.73-6,9.5-9,14.25l-.68,1.09c-1-.36-1.75-.55-2.44-.89q-5.4-2.66-10.76-5.39a6,6,0,0,0-4.23-.85,2,2,0,0,0-1.27-1.87c-1.44-.69-2.88-1.41-4.28-2.18a13.66,13.66,0,0,1-1.65-1.37c14.75-9.2,29.2-18.2,43.63-27.24.12-.07,0-.46.06-.71-.24-.1-.55-.34-.71-.27Q643.34,316.41,618.52,328Zm54-25a6.43,6.43,0,0,0,.74-.08.93.93,0,0,0,.31-.19c-.18-.09-.42-.29-.54-.24s-.33.35-.48.54a1.25,1.25,0,0,0-.29.11s0,.14-.07.21Z"/><path class="cls-17" d="M429.73,383.37c.12-1.35.25-2.7.37-4a2.4,2.4,0,0,1,1.71,1.52A48.21,48.21,0,0,0,442.69,395a49.52,49.52,0,0,0,14,9,7.18,7.18,0,0,0,1.95.25,1.36,1.36,0,0,1,.24.68c.16,1,.31,2.08.48,3.12,1.07,6.57,2.07,13.14,1.8,19.83a17.9,17.9,0,0,1-2.31,8.38,3,3,0,0,1-3.64,1.75,7.06,7.06,0,0,1-3.8-2.08c-3.83-3.9-8-7.49-11.14-12-3.8-5.46-7.52-11-11.26-16.49a13.77,13.77,0,0,1-.74-1.43c.23-1.84.56-3.68.67-5.53.27-4.37-.06-8.78.74-13.14A22.14,22.14,0,0,0,429.73,383.37Z"/><path class="cls-19" d="M618.52,328q24.81-11.59,49.64-23.18c.16-.07.47.17.71.27,0,.25.06.64-.06.71-14.43,9-28.88,18-43.63,27.24a13.66,13.66,0,0,0,1.65,1.37c1.4.77,2.84,1.49,4.28,2.18a2,2,0,0,1,1.27,1.87c-3.75,4.23-7.29,8.66-11.63,12.79-1.13-4.11-1.09-7.93-1.34-11.72S618.82,331.86,618.52,328Z"/><path class="cls-14" d="M458.67,404.29a7.18,7.18,0,0,1-1.95-.25,49.52,49.52,0,0,1-14-9,48.21,48.21,0,0,1-10.88-14.17,2.4,2.4,0,0,0-1.71-1.52c.07-1.29.13-2.57.2-3.85a10.55,10.55,0,0,1,1,1.24,42.6,42.6,0,0,0,11.09,13.39,40.06,40.06,0,0,0,8,5.17,14.65,14.65,0,0,0,7.43,1Q458.23,400.29,458.67,404.29Z"/><path class="cls-4" d="M588.81,384.28c-.79-.39-1.38-.49-1.54-.81a4.68,4.68,0,0,1-.47-1.92c-.14-3.2-.25-6.4-.3-9.6a1.15,1.15,0,0,1,.67-.86c.26-.08.65.27,1,.46.09.06.12.24.13.37,0,.67,0,1.33.08,2Z"/><path class="cls-20" d="M593.71,429.33c-.09,1.74-.17,3.47-.27,5.2a2.51,2.51,0,0,1-.2,1.18c-.25.39-.7.89-1.08.9a1.35,1.35,0,0,1-.95-.94c0-3.74.17-7.48.29-11.21,0-.14,0-.31.07-.39.26-.27.52-.64.85-.73a.88.88,0,0,1,1.15.79c.07,1.73,0,3.46,0,5.2Z"/><path class="cls-20" d="M592.69,408.75a7,7,0,0,1-.44,1.17.88.88,0,0,1-.67.32.85.85,0,0,1-.67-.3,2.78,2.78,0,0,1-.38-1.09c-.47-3.29-.91-6.58-1.34-9.87a2,2,0,0,1,.11-1.16,1.63,1.63,0,0,1,.89-.63.76.76,0,0,1,.67.31,4.85,4.85,0,0,1,.51,1.47C591.82,402.13,592.23,405.29,592.69,408.75Z"/><path class="cls-4" d="M590.86,358.4a6.12,6.12,0,0,1-1-.87.94.94,0,0,1,0-.77,26.69,26.69,0,0,1,6.55-9.46,1.05,1.05,0,0,1,1,.08,1.13,1.13,0,0,1,.16,1.05c-.31.57-.85,1-1.22,1.57q-2.14,3.13-4.24,6.3C591.73,357,591.34,357.62,590.86,358.4Z"/><path class="cls-4" d="M586.15,462.06c-.46-.31-1-.47-1-.71a3.32,3.32,0,0,1,.2-1.52c1-3,2.13-6,3.21-9a3.33,3.33,0,0,1,.56-1,.82.82,0,0,1,.71-.15,1,1,0,0,1,.55.47,1.21,1.21,0,0,1,.1.77A41.64,41.64,0,0,1,586.15,462.06Z"/><path class="cls-4" d="M579.13,473.84a54.06,54.06,0,0,1-8,8.89c-.58.55-1.19.44-1.56-.36.06-.26,0-.58.17-.74q3.74-4.15,7.52-8.26C577.77,472.79,578.35,472.75,579.13,473.84Z"/><path class="cls-20" d="M609.26,341.3c-.77-.69-1-1.54-.37-1.8a43.61,43.61,0,0,1,5.63-1.61c.22-.05.81.43.8.64,0,.44-.26,1.15-.56,1.25C612.91,340.38,611,340.83,609.26,341.3Z"/><path class="cls-21" d="M477.61,371.34l1.26-3.77,1.48-.18A8.07,8.07,0,0,1,477.61,371.34Z"/><path class="cls-3" d="M970.63,851.9c-5.7.05-11.4.14-17.09.14-4.51,0-9-.1-13.51-.16,0-1.47,0-3,0-4.42V590.74c0-1.07,0-2.15,0-3.21a5.17,5.17,0,0,0-.61-1.42q5.43-12.69,10.86-25.39t10.83-25.41c2.73-6.39,5.5-12.75,8.23-19.13q5.52-12.88,11-25.77c2.78-6.51,5.61-13,8.39-19.5,3.63-8.46,7.22-16.94,10.86-25.4,1.21-2.81,2.55-5.56,3.83-8.34,1.11,1.39,2.68.91,4.07.91,11,0,22,0,33,0,0,1.74,0,3.48,0,5.22v303.9c0,1.87,0,3.74.06,5.62-1.46.08-2.93.24-4.39.24q-17.46,0-34.93,0c-8.56,0-17.13,0-25.69,0-1.3,0-2.68-.35-3.9.56a4.29,4.29,0,0,0-.32,1.12c0,4.28,0,8.57,0,12.85-.23.44-.67.89-.68,1.34q-.09,5.09,0,10.17c0,.45.43.9.67,1.35q-.06,6-.11,12.07c-.18.33-.52.67-.53,1,0,3.52-.06,7,0,10.57,0,.43.49.86.75,1.29l-.09,12.83c-.24.45-.67.89-.68,1.34-.06,3.38-.06,6.77,0,10.15,0,.46.41.91.63,1.37l.09,9.64c-.84.65-.78,1.58-.78,2.5Q970.63,847.59,970.63,851.9Z"/><path class="cls-3" d="M1181.17,671.21c-3.83.53-7.66,1-11.47,1.61-4.59.74-9.18,1.58-13.75,2.49a17.66,17.66,0,0,0-3.74,1.36,2.52,2.52,0,0,0-1.41,3.33c-.07,1.32-.2,2.64-.2,4,0,7.29,0,14.59,0,21.88,0,3-.1,6.1-.15,9.14-3.87.68-7.76,1.31-11.61,2.07a23.75,23.75,0,0,0-4.11,1.33,2.65,2.65,0,0,0-1.8,3.45l-.09,31.11-1.44.23c-1.6,0-3.2-.09-4.79-.09q-20.79,0-41.57,0c-1.46,0-2.92-.13-4.38-.2q0-149,0-298c0-1.87.12-3.74.18-5.61,1,1.26,2,2.48,2.88,3.8q23.46,35.17,46.89,70.37c.72,1.09,1.55,2.11,2.5,3.41a8.27,8.27,0,0,0,1.49-1.43c4.7-8.24,9.36-16.5,14.05-24.74,5.09-8.93,10.23-17.84,15.3-26.78,4-7,7.78-14,11.83-20.94,1.67-2.86,2.9-6,5.17-8.52.06,1.87.18,3.74.18,5.61q0,107.81,0,215.6C1181.14,667.47,1181.16,669.34,1181.17,671.21Z"/><path class="cls-3" d="M900,851.87c-1.06.06-2.13.18-3.19.18H802.63c-1.07,0-2.13-.11-3.2-.16q0-18.87,0-37.73,0-100.56,0-201.11c0-1.86.23-3.72.35-5.57,1,.17,1.52,1,2.07,1.75q6.8,9.66,13.62,19.3,11.33,16,22.65,32.06c4,5.68,8,11.38,11.94,17.06Q864.25,697.83,878.4,718c.74,1.06,1.38,2.27,3,2.82.58-1.09,1.21-2.09,1.67-3.17,4.36-10.19,8.66-20.4,13-30.58,1.16-2.68,2.5-5.28,3.76-7.92,0,1.47.12,2.94.12,4.41q0,44.79,0,89.58Z"/><path class="cls-10" d="M1080.84,449.21c-.06,1.87-.18,3.74-.18,5.61q0,149,0,298l-6.64.34c-1.45-.06-2.91-.15-4.37-.15-8.22,0-16.45,0-24.68,0-1.45,0-2.91-.12-4.36-.18,0-1.88-.06-3.75-.06-5.62V443.33c0-1.74,0-3.48,0-5.22q0-21.72,0-43.45a22.45,22.45,0,0,1,.07-3.18,6,6,0,0,1,.83-1.71c4.19,6.2,8.4,12.38,12.56,18.6q12.49,18.66,24.92,37.36C1079.64,446.83,1080.2,448,1080.84,449.21Z"/><path class="cls-3" d="M696.3,811.62l2-.87c-.14-.89-.22-1.8-.43-2.68q-10.35-42-20.69-83.9a36.36,36.36,0,0,1-.52-3.91,24.41,24.41,0,0,0,2.78-2.79c6.59-9.24,13.09-18.54,19.67-27.79,7.27-10.22,14.62-20.39,21.91-30.61,5.19-7.28,10.32-14.61,15.49-21.91q10.2-14.37,20.44-28.71a10.21,10.21,0,0,1,1.72-1.54c1.27,1.37.69,3.06.69,4.59q0,117.18,0,234.35,0,3,0,6l-13.39,0c.39-.49.76-1,1.15-1.48-1.58-2.26-3.76-3.3-5.8-4.51a171.71,171.71,0,0,0-19.7-9.64c-5.24-2.27-10.38-4.8-15.93-6.29-.33-.09-.57-.54-.85-.82,0-1.3-.92-2.13-1.62-3.07A38.26,38.26,0,0,1,696.3,811.62Z"/><path class="cls-10" d="M759.37,851.87q0-3,0-6,0-117.18,0-234.35c0-1.53.58-3.22-.69-4.59a23.75,23.75,0,0,1,1.62-3.18q8.4-12,16.92-23.9c.53-.75,1.21-1.39,2-2.26a14.17,14.17,0,0,1,1.74,1.71c5.8,8.18,11.6,16.37,17.33,24.6a20.61,20.61,0,0,1,1.63,3.6c-.12,1.85-.35,3.71-.35,5.57q0,100.56,0,201.11,0,18.86,0,37.73a4.26,4.26,0,0,1-.78.14H760.56A9.71,9.71,0,0,1,759.37,851.87Z"/><path class="cls-1" d="M1181.17,671.21c0-1.87,0-3.74,0-5.62q0-107.8,0-215.6c0-1.87-.12-3.74-.18-5.61,1.74-3.3,3.41-6.65,5.24-9.9q16.41-29,32.88-57.89c1-1.74,2-3.46,3-5.18.89.65.78,1.61.79,2.53q.06,5.6.1,11.17c0,.67-.07,1.33-.07,2q0,37.63,0,75.28c0,1.2.13,2.4.2,3.6-2.07.9-4.12,1.84-6.2,2.7a220.28,220.28,0,0,0-22.5,10.26,54.31,54.31,0,0,0-5,3.27,2.35,2.35,0,0,0-.67,3.49c.41,1.68.77,3.37,1.25,5,.77,2.69,1.62,5.36,2.45,8,1.81,5.85,3.67,11.69,5.43,17.55a2.7,2.7,0,0,0,2.85,2.26c3.32-.11,6.66-.12,10-.49,4.09-.45,8.14-1.22,12.21-1.85q0,76.13,0,152.26c-.52.08-1,.19-1.57.22-6.64.35-13.29.62-19.92,1-4.64.3-9.27.83-13.9,1.19C1185.42,671.12,1183.29,671.13,1181.17,671.21Z"/><path class="cls-10" d="M900,851.87l0-78.74q0-44.79,0-89.58c0-1.47-.08-2.94-.12-4.41.69-1.88,1.29-3.79,2.07-5.63q12.69-29.71,25.43-59.4,6-14,12.08-28a5.17,5.17,0,0,1,.61,1.42c.09,1.06,0,2.14,0,3.21V847.46c0,1.47,0,2.95,0,4.42-.8.06-1.6.17-2.39.17H902.36C901.56,852.05,900.77,851.93,900,851.87Z"/><path class="cls-11" d="M1223,385.11q0-5.58-.1-11.17c0-.92.1-1.88-.79-2.53,2.54-4.53,5.06-9.08,7.62-13.6q6.13-10.79,12.29-21.55,7.92-13.92,15.83-27.83c1.06-1.84,2.22-3.62,3.33-5.42a33.2,33.2,0,0,0,6.72-.51c5.59-1,11.17-2.21,16.86-2.71,3-.27,6-1,9-1.41a19.91,19.91,0,0,1,2.79-.12c2,0,4,.2,5.91-.68,6.13,0,12.26,0,18.4,0a16.18,16.18,0,0,1,3.09.64c0,1.34.13,2.67.13,4q0,39.24,0,78.49c0,1.47-.09,2.93-.14,4.4-1.6,0-3.2-.07-4.8-.07h-88.54C1228.09,385.06,1225.55,385.09,1223,385.11Z"/><path class="cls-11" d="M1041.42,389.77a6,6,0,0,0-.83,1.71,22.45,22.45,0,0,0-.07,3.18q0,21.72,0,43.45c-11,0-22,0-33,0-1.39,0-3,.48-4.07-.91,1.45-3.59,2.85-7.2,4.36-10.77q8-18.81,16.08-37.61,2.67-6.27,5.4-12.52c.31-.73.72-1.41,1.22-2.37a18.49,18.49,0,0,1,1.72,1.82q4.53,6.63,9,13.29A2.59,2.59,0,0,1,1041.42,389.77Z"/><path class="cls-18" d="M264.43,681.69c-2.11.25-4.23.56-6.35.74-6,.52-12,1-17.95,1.47-.27,0-.54.06-.8.07-6.14.31-12.28.66-18.42.9-8,.32-16,.52-24,.86a15.43,15.43,0,0,1-7.33-1.56c-11.77-5.45-23.7-10.55-35.38-16.18-17.71-8.54-35.27-17.38-52.87-26.16-3.46-1.72-6.78-3.7-10.17-5.56a9.91,9.91,0,0,1,.14-1.32c3.22-11.34-.07-21.12-7.49-29.72-2.33-2.7-5.31-4.84-8.26-7.48a14.2,14.2,0,0,1,.57-2.31q10-24.08,20-48.14,9.11-21.84,18.22-43.67c1.45-3.46,2.87-6.92,4.37-10.35a15,15,0,0,1,2.51-4.67c2.3.65,4.59,1.34,6.9,1.94,9.42,2.44,19.36-2.65,23.62-10.36l1.81-3.25a9.93,9.93,0,0,1,3.7,1.53c13.23,6.72,26.37,13.66,39.71,20.16,12.14,5.92,24.5,11.37,36.77,17,14,6.41,28.2,12.23,42.48,17.92,8.57,3.41,17.21,6.62,25.85,9.86,15.77,5.92,31.74,11.27,47.76,16.45,7.12,2.3,14.29,4.43,21.45,6.62a10.19,10.19,0,0,0,1.58.22c.8,2.23,1.52,4.5,2.4,6.7,2.27,5.65,4.64,11.25,9.82,15-.32,2.62-.63,5.23-.95,7.84q-.74,6.07-1.49,12.14a63.89,63.89,0,0,0-.93,7.1c-.12,6,0,12,0,18a6.22,6.22,0,0,1-.75-1.35,83.53,83.53,0,0,0-6.37-16,81.71,81.71,0,0,0-23.06-26.87A68.81,68.81,0,0,0,332.08,579a71.35,71.35,0,0,0-12.84-2.91,54,54,0,0,0-13.18-.37,58.93,58.93,0,0,0-16.69,3.93,61.62,61.62,0,0,0-18,11.07,60.26,60.26,0,0,0-15.79,22.41,59.09,59.09,0,0,0-4.73,18.13c-.43,6.37-.7,12.83.69,19.18a80.88,80.88,0,0,0,3.37,12.33,86.44,86.44,0,0,0,8.78,17.08A9.25,9.25,0,0,1,264.43,681.69Z"/><path class="cls-18" d="M367.52,436.13c-.7,3.92-1.44,7.84-2.09,11.77-.5,3-1,6-1.34,9.06a171.85,171.85,0,0,0-1,19.91c0,2.53,0,5.07-.06,7.59,0,1.19-.22,2.37-.34,3.56a19.07,19.07,0,0,1-2.73-.52c-3.82-1.33-7.86-1.47-11.79-1.77a47.73,47.73,0,0,0-11.08.92,57.25,57.25,0,0,0-13,3.73,69,69,0,0,0-19.47,12.35A79.55,79.55,0,0,0,289.79,521c-1,1.68-2.24,3.35-2.18,5.49a13.25,13.25,0,0,1-2.71-.5c-12.62-5.17-25.26-10.3-37.83-15.6-22.95-9.66-45.35-20.49-67.56-31.74a13.23,13.23,0,0,1-5.83-5.25c-4.82-8.33-9.78-16.59-14.67-24.89-1.7-2.88-3.36-5.78-5-8.7-1-1.76-.95-2.39.51-3.91,7.34-7.67,9.63-17.07,9.27-27.32a36.24,36.24,0,0,0-2.48-10.91l-1.42-3.88c.1-.41.11-.55.16-.67a1.09,1.09,0,0,1,.23-.33c1.32-1.13,2.62-2.28,4-3.38q46.17-37.62,92.37-75.23a4.16,4.16,0,0,1,1-.39c.43.52.92,1.09,1.39,1.68,2.7,3.36,5.57,6.52,9.71,8.18,6.83,2.74,13.33,1.93,19.59-1.74,1.13-.66,2.25-1.36,3.53-2.15a18.49,18.49,0,0,1,1.55,2c8.64,14.48,17,29.12,25.92,43.43,10.53,16.92,21.45,33.61,33.07,49.82Z"/><path class="cls-18" d="M318.7,838.43,306,839.68c-.53.06-1,.19-1.58.22-4.8.34-9.6.62-14.39,1-5.45.42-10.9.91-16.35,1.37l-.8,0c-7.34.31-14.69.55-22,1-16.57.91-33.15.82-49.73.82-1.45,0-2.9-.07-4.49-.11-.33-1.05-.55-1.94-.88-2.78A30.21,30.21,0,0,0,181.43,825a27.75,27.75,0,0,0-11.36-3.64,12.44,12.44,0,0,1-2.68-.87c-5.64-34.34-11.25-68.54-16.91-103,1-.18,1.81-.39,2.67-.5,6.89-.88,12.13-4.16,14.76-10.74a34.22,34.22,0,0,0,1.51-7.4,21.44,21.44,0,0,0,0-3.39c1.54-1.24,3.07-.8,4.49-.81,11.64-.1,23.28-.06,34.92-.25,7.07-.11,14.16-.33,21.21-.91,4-.33,8-.44,12-.71,4.79-.33,9.56-.87,14.34-1.31.67-.06,1.34-.07,2-.14l15.93-1.5c3.73-.35,7.45-.64,11.17-1,1.72-.17,3.43-.47,5.15-.72.06,1.06.16,2.12.16,3.19,0,8,0,16,0,24,0,3.73.34,4.29,4,5.34,2.93.84,5.92,1.48,8.92,2a53.17,53.17,0,0,1,5.4,1.2,22.22,22.22,0,0,1,.12,6.13,15.63,15.63,0,0,0-1.46,2.77c-1.42,4.7-2.67,9.44-2.5,14.44.07,2.12.05,4.26,0,6.39a17.32,17.32,0,0,0,.78,5.89c-1.95.37-3.93.64-5.85,1.14-2.57.66-5.1,1.44-7.61,2.29A2.41,2.41,0,0,0,291,766c-.05.66-.15,1.32-.15,2q0,18.22,0,36.44c0,.65.11,1.3.17,2,2.21,1.84,4.79,2.46,7.39,3A130.66,130.66,0,0,0,315,812a6.81,6.81,0,0,1,4,1.33v3.9c0,5.07,0,10.15,0,15.22C318.89,834.44,318.77,836.43,318.7,838.43Z"/><path class="cls-7" d="M309.26,729.92a22.22,22.22,0,0,0-.12-6.13,53.17,53.17,0,0,0-5.4-1.2c-3-.55-6-1.19-8.92-2-3.64-1-4-1.61-4-5.34,0-8,0-16,0-24,0-1.07-.1-2.13-.16-3.19,0-3,0-5.91,0-8.86.11-.52.23-1,.34-1.56,4,2.33,8.53,3,12.94,3.93,2.72.57,5.56.53,8.31,1a79.54,79.54,0,0,0,13.85,1.51,3.42,3.42,0,0,1,1.2.06c2.85,1,5.81.66,8.74.74a7.18,7.18,0,0,1,2.38.2,14.91,14.91,0,0,0,5.54.59c1.88,0,3.84-.33,5.61.12,4.1,1,8.24.53,12.36.69a13.32,13.32,0,0,1,3.59.19c2.23.75,4.49.58,6.75.6,3.47,0,6.95,0,10.43,0a8.87,8.87,0,0,1,2.79.15c2.35.83,4.75.62,7.15.64,4.68,0,9.37,0,14.05,0a21,21,0,0,1,2.6.31c.7,3.52.91,20.57.49,37.89a22.75,22.75,0,0,1-.3,2.46,21.64,21.64,0,0,1-2.5.29q-9.24,0-18.47,0a5.62,5.62,0,0,1-2-.15c-2.07-.84-4.22-.61-6.35-.63-3.61,0-7.22,0-10.84,0a10.39,10.39,0,0,1-3.17-.25,15.88,15.88,0,0,0-5.16-.54c-3.07,0-6.23.38-9.21-.16a65.61,65.61,0,0,0-9.15-.67,26.26,26.26,0,0,1-3.94-.53,14.78,14.78,0,0,0-6.52.25c4.61,1.61,9.62.83,14.46,1.79,3.09.62,6.34.38,9.53.76,4.07.49,8.22.35,12.33.9a69.13,69.13,0,0,0,8,.09c1.07,0,2.13.15,3.19.26,1.45.16,2.89.46,4.34.5,3.34.08,6.69,0,10,0,1.06,0,2.12.12,3.18.23,1.59.16,3.16.51,4.75.53,6.55.06,13.11,0,19.66,0a13.84,13.84,0,0,1,6.59,1.59V746.4c0,4.42.05,8.83,0,13.25s.27,8.77-.24,13.34a9.19,9.19,0,0,1-2.92.09,17.39,17.39,0,0,0-5.95-.6l-19.67,0a10.22,10.22,0,0,1-3.19-.16,20.22,20.22,0,0,0-6.74-.62c-5.36,0-10.71,0-16.06,0a9.83,9.83,0,0,1-3.18-.21,17.74,17.74,0,0,0-5.55-.58c-3.72-.12-7.44.24-11.16-.67-2-.5-4.27,0-6.4-.16s-4.22-.55-6.33-.76c-3.44-.34-6.89-.6-10.33-.92a8.28,8.28,0,0,1-1.15-.33c-3.22-.81-6.44-1.65-9.68-2.4-2.33-.54-4.65-1.07-6.95-1.77a4.47,4.47,0,0,1-3.56-4.65c.08-1.73.21-3.47.21-5.2Q309.36,742,309.26,729.92Z"/><path class="cls-7" d="M318.7,838.43c.07-2,.19-4,.2-6,0-5.07,0-10.15,0-15.22v-3.9a6.81,6.81,0,0,0-4-1.33,130.66,130.66,0,0,1-16.56-2.55c-2.6-.55-5.18-1.17-7.39-3-.06-.68-.17-1.33-.17-2q0-18.23,0-36.44c0-.67.1-1.33.15-2,6.89,2.62,14.16,3.61,21.37,4.75,3.54.56,7.15.62,10.73.91a4.72,4.72,0,0,1,1.2.09c2.45.93,5,.65,7.53.71a7.53,7.53,0,0,1,2.39.16c2.08.81,4.22.59,6.35.63a17.75,17.75,0,0,1,4,.09c4.22,1.1,8.5.56,12.76.73,1.06,0,2.12.19,3.18.3,1.45.15,2.9.43,4.35.47,3.21.07,6.42,0,9.63,0a9.62,9.62,0,0,1,2.8.12c2.74.93,5.55.64,8.35.66,5.35,0,10.71.08,16.06,0a35.17,35.17,0,0,1,7.88,1.26c.08,1.12.2,2,.2,3q0,16.68,0,33.34a16.87,16.87,0,0,1-.06,2,2.15,2.15,0,0,1-2.36,2.19,17.46,17.46,0,0,1-2.79-.2,37.57,37.57,0,0,0-3.94-.51c-5.21-.07-10.43,0-15.65,0a9.67,9.67,0,0,0-1.58.27,24,24,0,0,0,6,.52,10.87,10.87,0,0,1,3.19.14c2.62.88,5.29.63,8,.65,3.75,0,7.49,0,11.24,0,1.06,0,2.13.13,3.19.24,1.58.16,3.16.5,4.74.52,5.09.07,10.17,0,15.26.05a15.14,15.14,0,0,1,2.5.42,4.49,4.49,0,0,1,.35,1q0,15.66.06,31.33c-1.33,0-2.66.16-4,.16H326.13c-1.06,0-2.12-.11-3.19-.16a12.77,12.77,0,0,0-1.7-.93,3.65,3.65,0,0,1-2.54-3.58Z"/><path class="cls-20" d="M291,677.65c-.11.52-.23,1-.34,1.56a44,44,0,0,0-6.35.61c-3.52.65-7.14.73-10.72,1a11.13,11.13,0,0,0-2.79.2c-2.08.75-4.22.52-6.35.64a9.25,9.25,0,0,0-.75-1.83,86.44,86.44,0,0,1-8.78-17.08,80.88,80.88,0,0,1-3.37-12.33c-1.39-6.35-1.12-12.81-.69-19.18a59.09,59.09,0,0,1,4.73-18.13,60.26,60.26,0,0,1,15.79-22.41,61.62,61.62,0,0,1,18-11.07,58.93,58.93,0,0,1,16.69-3.93,54,54,0,0,1,13.18.37A71.35,71.35,0,0,1,332.08,579a68.81,68.81,0,0,1,19.43,10.25,81.71,81.71,0,0,1,23.06,26.87,83.53,83.53,0,0,1,6.37,16,6.22,6.22,0,0,0,.75,1.35,38.55,38.55,0,0,1,1.6,9.41q0,9.87,0,19.72c-4.22,1-8.45,2-12.68,3a13.41,13.41,0,0,0-1.77.72q-12,.81-23.9,1.6L329,669c-.53,0-1.05.17-1.58.2-2.25.16-4.51.3-6.76.44a21.81,21.81,0,0,0-2.15-.85c-3.66-1-7.12-2.46-9.52-5.57-2.86-3.71-2.23-6.19.69-8.68a4.94,4.94,0,0,1,2.13-1A62.29,62.29,0,0,1,327.23,652a31.2,31.2,0,0,0,12.13-2.15,16,16,0,0,0,9.81-9.38c2-5.07,2.74-10.3,1.08-15.65-1.86-6-4.83-11.25-10.08-15-1.94-1.38-3.8-2.88-5.68-4.3.95-4,1.86-7.87,2.83-12-3.88-1.46-7.4-3.29-11.53-4A41,41,0,0,1,324.4,595c-.71,1.78-.2,4.13-2.32,5.33-3.65-.7-7.29-1.44-10.95-2.08a13.09,13.09,0,0,0-3.59-.13c-4,.47-7.16,5-6,8.85.89,3,2.48,5.67,6,6.4a16.8,16.8,0,0,0,3.91.68c4.54-.2,8.72,1.22,12.8,2.83a17.7,17.7,0,0,1,5.61,3.75c3.18,3.05,3.44,6.29,1.17,9.69a7.48,7.48,0,0,1-5.06,3,32.2,32.2,0,0,1-8.32.94c-2.53-.16-5.09,0-7.62,0a25.57,25.57,0,0,0-10.13,2c-2.87,1.12-5.71,2.47-7.53,5.13a21.07,21.07,0,0,0-2.72,19.82c1.3,3.63,3.07,7.13,6.15,9.74a13.85,13.85,0,0,1,1.72,2.19c-1.59.59-3.21,1.12-4.76,1.81C291.58,675.4,290.67,676.18,291,677.65Z"/><path class="cls-17" d="M385.06,588.42c-5.18-3.76-7.55-9.36-9.82-15-.88-2.2-1.6-4.47-2.4-6.7a25.09,25.09,0,0,0-.37-2.76A178.13,178.13,0,0,1,367.89,536q-.81-9.54-1.65-19.07c.05-.83.11-1.66.16-2.49a17.76,17.76,0,0,1,5.51.55,12.29,12.29,0,0,0,3.55.23l24.68,0c.1,2.79-.12,5.56.63,8.35.46,1.76.14,3.72.18,5.6a65.4,65.4,0,0,0,.67,11.16c.51,2.71.12,5.6.13,8.4,0,1.21,0,2.41,0,3.62.07,3.42.44,3.77,4,3.83,1.2,0,2.41,0,3.61,0a48.36,48.36,0,0,1,7.95.59c2.72.5,5.6.2,8.41.18,2.52,0,5.06.23,7.54-.62a8.91,8.91,0,0,1,2.79-.14c4.28,0,8.56,0,12.84,0,2.26,0,4.53.2,6.74-.62a5.79,5.79,0,0,1,2.39-.15c5.17.4,10-1,14.89-2.45,5.13-1.49,10.29-2.77,15.71-2.3a31.73,31.73,0,0,1-.71,3.49q-2.93,9.07-6,18.13a16.31,16.31,0,0,1-1.29,2.44c-2.14,0-4.28,0-6.42,0a15.33,15.33,0,0,1-2.8-.2,29.16,29.16,0,0,0-12.68,0c-2.07.47-4.21.62-6.3,1-3.65.67-7.32,1.34-10.95,2.14-15.72,3.46-31.11,8.37-47,11.11A19.82,19.82,0,0,1,385.06,588.42Z"/><path class="cls-20" d="M366.4,514.48c0,.83-.11,1.66-.16,2.49-2-.34-3-2.11-4.65-3-3.93-2.28-7.93-1.46-10.34,2.42a9.34,9.34,0,0,0-1,8.77,7.55,7.55,0,0,0,3,3.63,57.66,57.66,0,0,1,8.29,6.91,24.63,24.63,0,0,1,6.15,11.08c.43,1.46-.4,2.59-.48,3.9a3.64,3.64,0,0,1-2.17,3c-3.5-1-7.23-2-10.88-3.19-11.29-3.71-22.6-7.39-33.82-11.31-8.82-3.08-17.52-6.51-26.28-9.77-1.25-.47-2.56-.78-3.78-1.32a23.74,23.74,0,0,1-2.67-1.62c-.06-2.14,1.15-3.81,2.18-5.49a79.55,79.55,0,0,1,14.83-18.22,69,69,0,0,1,19.47-12.35,57.25,57.25,0,0,1,13-3.73,47.73,47.73,0,0,1,11.08-.92c3.93.3,8,.44,11.79,1.77a19.07,19.07,0,0,0,2.73.52c.12,1.31.32,2.61.35,3.92.11,5.56.18,11.12.26,16.67a12.05,12.05,0,0,1,0,1.59A3.55,3.55,0,0,0,366.4,514.48Z"/><path class="cls-10" d="M318.7,847.38a3.65,3.65,0,0,0,2.54,3.58,12.77,12.77,0,0,1,1.7.93c-1.06.06-2.13.16-3.2.16q-23.91,0-47.8,0c-3.48,0-7-.13-10.44-.2l15.61-1.11c8.94-.64,17.88-1.23,26.82-1.92C308.86,848.41,313.78,847.86,318.7,847.38Z"/><path class="cls-1" d="M156.19,465.14l.26.9-.92-.21Z"/><path class="cls-12" d="M1074,753.2l6.64-.34c1.46.07,2.92.2,4.38.2q20.79,0,41.57,0c1.59,0,3.19.06,4.79.09q.09,7.19.17,14.38,0,6.53,0,13l0,11.95.07,13q0,6.31,0,12.62l0,13q0,4.74,0,9.48l-.21,11.21c-1.06.05-2.13.16-3.19.16h-50.89c-1.06,0-2.13-.1-3.19-.16-.1-3.75-.2-7.49-.31-11.24q0-4.7,0-9.41a55.48,55.48,0,0,0,0-13.07,54.56,54.56,0,0,0,0-12.58,53.17,53.17,0,0,0,.09-13.1l0-11.87a55.82,55.82,0,0,0,0-13.11Q1073.93,760.36,1074,753.2Z"/><path class="cls-8" d="M291,677.65c-.31-1.47.6-2.25,1.72-2.74,1.55-.69,3.17-1.22,4.76-1.82l14.93-2.26,8.24-1.24c2.25-.14,4.51-.28,6.76-.44.53,0,1.05-.16,1.58-.2l15.95-1q12-.78,23.9-1.6c10.47.24,20.9-.53,31.35-1l9.77,3.39c-4.79.3-9.59.27-14.39.73-7,.67-14.13-.08-21.21.8-5.27.66-10.64.34-16,.78-7,.57-14.08,1-21.11,1.68-4.24.45-8.44,1.09-12.65,1.77a14.76,14.76,0,0,0-3.43,1c-.5.22-.81.87-1.21,1.31a6.06,6.06,0,0,0,4.1,2c3.91.77,7.85,1.48,11.82,1.92,4.37.48,8.77.63,13.16.92a3.51,3.51,0,0,1,.8.06c3,1,6.09.59,9.16.72a12.74,12.74,0,0,1,2.4.07c4.75,1.12,9.59.54,14.38.74a14.12,14.12,0,0,1,3.2.15c2.5.74,5,.56,7.57.59,4.82.05,9.63,0,14.45.09,1.2,0,2.4.13,3.59.24,1.46.13,2.91.44,4.37.44q45.78,0,91.56,0c1.2,0,2.4-.11,3.59-.21,1.59-.14,3.18-.45,4.76-.47,5.76-.08,11.52-.08,17.27-.11,1.34,0,2.7.12,3.89-.67l.59,3.86c-1.73,0-3.47.1-5.21.07a9,9,0,0,0-5.26,1.39,7.45,7.45,0,0,0-.26,1.26q0,18.47,0,36.93a10.27,10.27,0,0,0,.45,2c1.32,0,2.59.29,3.66-.06a18.05,18.05,0,0,1,5.55-.56l16.45-.14c.5,1.08,1,2.15,1.52,3.23-2.89.32-5.84-.19-8.66.38a5.3,5.3,0,0,0-.45,1.37q0,18.89,0,37.77a5.7,5.7,0,0,0,.51,1.44,58.33,58.33,0,0,0,10.23-.1,47.58,47.58,0,0,1,4.75-.53c4.28-.1,8.57-.1,12.85-.13l.78,1.64a10.59,10.59,0,0,0-2.4.12c-4.06,1.15-8.21.65-12.33.76a11.13,11.13,0,0,0-3.18.19,14.8,14.8,0,0,1-5.93.59c-7.49-.48-14.89.93-22.35.91a4,4,0,0,0-1.23.52c-.08.74-.23,1.52-.24,2.29,0,2.14,0,4.28,0,6.42,0,9.35,0,18.71,0,28.06,0,1.16-.33,2.44.93,3.48,3.31,0,6.82.32,10.22-.11a52,52,0,0,1,6.34-.55c2.94,0,5.88,0,8.81,0a8.5,8.5,0,0,0,2.78-.22,16,16,0,0,1,5.54-.57c2.67,0,5.43.39,8-.15a54.46,54.46,0,0,1,9.94-.66,5.89,5.89,0,0,0,2-.16c2.2-.87,4.48-.59,6.73-.64l6.41-.09,1.39.32c0,1,0,2,0,3-3.52,1-7.14.77-10.73.79-1.47,0-2.94,0-4.41,0-1.06,0-2.11.2-3.17.32-1.32.14-2.63.42-3.95.44-4.68.06-9.36,0-14,0a9,9,0,0,0-5.48,1.61v32h-6.47q0-14.24,0-28.47c0-1.29.34-2.67-.64-4a11.8,11.8,0,0,0-1.81-.25q-9.42,0-18.84,0a5.89,5.89,0,0,0-2,.16c-1.94.78-3.94.62-5.94.62H455.42a20.63,20.63,0,0,1-6.34-.59,11.75,11.75,0,0,0-4-.14,2.17,2.17,0,0,0-2.31,2.25c-.08.8-.05,1.6-.05,2.41q0,14,0,28.06h-4.88q0-15.66-.06-31.32a4.49,4.49,0,0,0-.35-1,15.14,15.14,0,0,0-2.5-.42c-5.09,0-10.17,0-15.26-.05-1.58,0-3.16-.36-4.74-.52-1.06-.11-2.13-.23-3.19-.24-3.75,0-7.49,0-11.24,0-2.66,0-5.33.23-8-.65a10.87,10.87,0,0,0-3.19-.14,24,24,0,0,1-6-.52,9.67,9.67,0,0,1,1.58-.27c5.22,0,10.44-.05,15.65,0a37.57,37.57,0,0,1,3.94.51,17.46,17.46,0,0,0,2.79.2,2.15,2.15,0,0,0,2.36-2.19,16.87,16.87,0,0,0,.06-2q0-16.66,0-33.34c0-.91-.12-1.83-.2-3a35.17,35.17,0,0,0-7.88-1.26c-5.35.08-10.71,0-16.06,0-2.8,0-5.61.27-8.35-.66a9.62,9.62,0,0,0-2.8-.12c-3.21,0-6.42,0-9.63,0-1.45,0-2.9-.32-4.35-.47-1.06-.11-2.12-.25-3.18-.3-4.26-.17-8.54.37-12.76-.73a17.75,17.75,0,0,0-4-.09c-2.13,0-4.27.18-6.35-.63a7.53,7.53,0,0,0-2.39-.16c-2.53-.06-5.08.22-7.53-.71a4.72,4.72,0,0,0-1.2-.09c-3.58-.29-7.19-.35-10.73-.91-7.21-1.14-14.48-2.13-21.37-4.75a2.41,2.41,0,0,1,1.64-3.18c2.51-.85,5-1.63,7.61-2.29,1.92-.5,3.9-.77,5.85-1.14l3.1-.21a4.47,4.47,0,0,0,3.56,4.65c2.3.7,4.62,1.23,6.95,1.77,3.24.75,6.46,1.59,9.68,2.4a8.28,8.28,0,0,0,1.15.33c3.44.32,6.89.58,10.33.92,2.11.21,4.21.62,6.33.76s4.37-.34,6.4.16c3.72.91,7.44.55,11.16.67a17.74,17.74,0,0,1,5.55.58,9.83,9.83,0,0,0,3.18.21c5.35,0,10.7,0,16.06,0a20.22,20.22,0,0,1,6.74.62,10.22,10.22,0,0,0,3.19.16l19.67,0a17.39,17.39,0,0,1,5.95.6A9.19,9.19,0,0,0,428,773c.51-4.57.18-9,.24-13.34s0-8.83,0-13.25V733.07a13.84,13.84,0,0,0-6.59-1.59c-6.55,0-13.11,0-19.66,0-1.59,0-3.16-.37-4.75-.53-1.06-.11-2.12-.22-3.18-.23-3.35,0-6.7,0-10,0-1.45,0-2.89-.34-4.34-.5-1.06-.11-2.12-.25-3.19-.26a69.13,69.13,0,0,1-8-.09c-4.11-.55-8.26-.41-12.33-.9-3.19-.38-6.44-.14-9.53-.76-4.84-1-9.85-.18-14.46-1.79a14.78,14.78,0,0,1,6.52-.25,26.26,26.26,0,0,0,3.94.53,65.61,65.61,0,0,1,9.15.67c3,.54,6.14.14,9.21.16a15.88,15.88,0,0,1,5.16.54,10.39,10.39,0,0,0,3.17.25c3.62,0,7.23,0,10.84,0,2.13,0,4.28-.21,6.35.63a5.62,5.62,0,0,0,2,.15q9.24,0,18.47,0a21.64,21.64,0,0,0,2.5-.29,22.75,22.75,0,0,0,.3-2.46c.42-17.32.21-34.37-.49-37.89a21,21,0,0,0-2.6-.31c-4.68,0-9.37,0-14.05,0-2.4,0-4.8.19-7.15-.64a8.87,8.87,0,0,0-2.79-.15c-3.48,0-7,0-10.43,0-2.26,0-4.52.15-6.75-.6a13.32,13.32,0,0,0-3.59-.19c-4.12-.16-8.26.35-12.36-.69-1.77-.45-3.73-.09-5.61-.12a14.91,14.91,0,0,1-5.54-.59,7.18,7.18,0,0,0-2.38-.2c-2.93-.08-5.89.29-8.74-.74a3.42,3.42,0,0,0-1.2-.06,79.54,79.54,0,0,1-13.85-1.51c-2.75-.45-5.59-.41-8.31-1C299.51,680.65,295,680,291,677.65Zm143.25,54.63c-.15,1.28-.31,2.05-.32,2.82,0,2.28,0,4.55,0,6.83q0,13.86,0,27.72c0,1.16-.32,2.44,1.09,3.62h84a9.91,9.91,0,0,0,3.19-.17c2.1-.74,4.22-.55,6.35-.63,1,0,2.17.26,3.13-.79a7.58,7.58,0,0,0,.22-1.42q0-18.27,0-36.55a9.88,9.88,0,0,0-.43-1.94,28.57,28.57,0,0,0-9.32,0,29.79,29.79,0,0,1-5.55.52H434.23Zm78-3.21a23.33,23.33,0,0,0,.35-2.44c0-1.6,0-3.21,0-4.81,0-9.9,0-19.8,0-29.7,0-1.29.4-2.7-.77-3.8a6.5,6.5,0,0,0-1.17-.2q-8.62,0-17.25,0a5.36,5.36,0,0,0-2,.23,13.24,13.24,0,0,1-5.15.54q-29.88,0-59.78,0c-2.91,0-5.86.4-8.75-.57a1.82,1.82,0,0,0-2.27,1.69,17.45,17.45,0,0,0-.1,2.4q0,16.65,0,33.31c0,.92.11,1.84.16,2.66,1.46,1.57,3.2,1.53,4.95,1.53q33.9,0,67.8,0a28.54,28.54,0,0,0,3.17-.3c1.32-.15,2.63-.42,3.95-.45,2.81-.08,5.62,0,8.42,0Zm0,87a3,3,0,0,0,.32-1q0-18.87,0-37.76a5,5,0,0,0-.47-1.36,16.1,16.1,0,0,0-6.63,0,25.42,25.42,0,0,1-6.36.58H421.19c-1.07,0-2.15,0-3.21,0a19.12,19.12,0,0,0-2.28.45,13,13,0,0,0-.27,1.75q0,18.27,0,36.56a11.93,11.93,0,0,0,.48,2.11c1.72,0,3.31.1,4.89.1q39.56,0,79.12,0c4,0,7.93-1,11.92-1.1C511.94,816.4,512,816.23,512.25,816Z"/><path class="cls-21" d="M1285.9,770.88v3.2c-.07,1-.21,2.11-.21,3.16q0,16.53,0,33.07c0,1.05.14,2.11.21,3.16v2.39c-.08.8-.22,1.59-.22,2.39q0,16.82,0,33.63a9.4,9.4,0,0,1-1.19.12l-40.79,0c0-3.73,0-7.46.07-11.19,0-3.22,0-6.44,0-9.66l0-12.83,0-12.8q0-6.42-.1-12.84l.06-12.14V767.64q0-7.23,0-14.46,20.07-.06,40.13-.08a6.54,6.54,0,0,1,1.65.49c0,1.55.05,3,.08,4.46Q1285.78,764.47,1285.9,770.88Z"/><path class="cls-7" d="M442.76,851.87q0-14,0-28.06c0-.81,0-1.61.05-2.41a2.17,2.17,0,0,1,2.31-2.25,11.75,11.75,0,0,1,4,.14,20.63,20.63,0,0,0,6.34.59h56.11c2,0,4,.16,5.94-.62a5.89,5.89,0,0,1,2-.16q9.42,0,18.84,0a11.8,11.8,0,0,1,1.81.25c1,1.38.63,2.76.64,4q0,14.24,0,28.47c-1.33.06-2.67.16-4,.16h-90C445.43,852,444.09,851.93,442.76,851.87Z"/><path class="cls-7" d="M547.21,851.87v-32a9,9,0,0,1,5.48-1.61c4.68,0,9.36,0,14,0,1.32,0,2.63-.3,3.95-.44,1.06-.12,2.11-.28,3.17-.32,1.47,0,2.94,0,4.41,0,3.59,0,7.21.2,10.73-.79.25.88.51,1.77.77,2.65.76,2.53.46,5.28,1.6,7.73-2,2.49-2.52,5.56-3.1,8.52-1,5.19-1.7,10.44-2.53,15.66l-.75.65c-1.33.05-2.65.14-4,.14q-14.93,0-29.84,0C549.85,852,548.53,851.93,547.21,851.87Z"/><path class="cls-14" d="M704.85,829.16c.28.28.52.73.85.82,5.55,1.49,10.69,4,15.93,6.29a171.71,171.71,0,0,1,19.7,9.64c2,1.21,4.22,2.25,5.8,4.51-.39.5-.76,1-1.15,1.48-1.33.05-2.67.15-4,.15h-67.8c-1.2,0-2.4-.11-3.6-.17.39-3.44.64-6.91,1.21-10.32s1.43-7,2.28-10.53c.37-1.54.86-3.11,2.39-4a8.27,8.27,0,0,1,4.6,1.14c.89.58,1.8,1.14,2.72,1.68,3.26,1.91,6.54,3.72,10.52,2.18.24-.1.54,0,.8-.06,2.87-.58,5.74-1.13,8.59-1.79C704.13,830.05,704.47,829.5,704.85,829.16Z"/><path class="cls-14" d="M585.73,851.25c.83-5.22,1.52-10.47,2.53-15.66.58-3,1.11-6,3.1-8.52,2.54-.38,4.7.64,6.79,1.89.68.41,1.31.92,2,1.33,3,1.84,6.15,3.25,9.78,1.69.12-.05.27,0,.4,0l10-2.4c7.7,2.65,15,6.15,22.54,9.29,1.22.51,2.51.83,3.76,1.24a7.94,7.94,0,0,0,1.43,1.3c3.55,1.9,7.13,3.74,10.71,5.6,1.1,1.19,2.83,1.8,3.39,3.65l-1.46,1.24c-1.07.06-2.13.17-3.2.17h-69c-.93,0-1.86-.1-2.8-.15C585.76,851.68,585.75,851.47,585.73,851.25Z"/><path class="cls-22" d="M1243.8,840.77c0,3.73,0,7.46-.07,11.19-1.34,0-2.68.09-4,.09H1135.37c-1.34,0-2.67-.11-4-.16q.11-5.61.2-11.21c1.74,0,3.48.07,5.21.07Z"/><path class="cls-23" d="M1285.71,851.88q0-16.82,0-33.63c0-.8.14-1.59.22-2.39,10.94,0,21.88,0,32.55,0,1.22,1.59.85,3,.86,4.27q0,15.87,0,31.73c-1.6.06-3.19.16-4.79.16h-24.41C1288.64,852.05,1287.18,851.94,1285.71,851.88Z"/><path class="cls-22" d="M1073.79,840.65c.11,3.75.21,7.49.31,11.24-1.07.06-2.13.16-3.2.16H973.82c-1.06,0-2.13-.1-3.19-.15q0-4.32,0-8.62c0-.92-.06-1.85.78-2.5l97.56,0C1070.58,840.75,1072.19,840.69,1073.79,840.65Z"/><path class="cls-24" d="M660.74,851.87l1.46-1.24c-.56-1.85-2.29-2.46-3.39-3.65,0-1.6.06-3.2.06-4.8q0-22.21,0-44.44c0-1.59.16-3.19.25-4.78,1.49,2.5,3,5,4.47,7.49,2.24,3.91,4.43,7.84,6.71,11.87l3.91.52,1.59,8.64c.33,1.83,1,3.61.64,5.52-1.53.91-2,2.48-2.39,4-.85,3.49-1.69,7-2.28,10.53s-.82,6.88-1.21,10.32Z"/><path class="cls-8" d="M585.73,851.25c0,.22,0,.43,0,.65H585Z"/><path class="cls-24" d="M1222.93,668.5q0-76.12,0-152.26c4.56-1,9.14-2,13.69-3.07q17.13-4.15,34.24-8.45c3.35-.85,6.62-2,9.92-3a14.1,14.1,0,0,0,5.72-1.51,24.76,24.76,0,0,0,2.73-.5c7.79-2.22,15.56-4.49,23.35-6.72,3.82-1.1,7.65-2.15,11.48-3.22q0,34,0,68c0,.94-.1,1.87-.15,2.8-5.23-1-10.47-2-15.7-3.11-8.5-1.75-17-3.23-25.66-4.19a42.86,42.86,0,0,0-6.8-.1c-1.79.08-3,1-3,3a23.27,23.27,0,0,0-.9,2.21q-2.84,9.79-5.63,19.62c-.77,2.69-1.52,5.39-2.31,8.08a3.47,3.47,0,0,0,1.39,4.21,27.46,27.46,0,0,0,2.68,1.76c2.36,1.24,4.73,2.48,7.15,3.6,10.56,4.85,21.46,8.86,32.4,12.77l16.57,5.94q0,26.13,0,52.28c-1.06.08-2.12.24-3.17.25-21.21.13-42.42.17-63.63.39-9.07.1-18.13.54-27.19.84C1227.71,668.27,1225.32,668.4,1222.93,668.5Z"/><path class="cls-9" d="M1324.05,489.79c-3.83,1.07-7.66,2.12-11.48,3.22-7.79,2.23-15.56,4.5-23.35,6.72a24.76,24.76,0,0,1-2.73.5c-1-3.58-1.91-7.19-3-10.76-2.19-7.25-4.45-14.48-6.75-21.92,1.85-.66,3.44-1.32,5.07-1.81,11-3.24,22-6.4,32.93-9.66,7.14-2.13,14.25-4.39,21.36-6.6,5.6-1.75,11.18-3.53,16.78-5.26a22,22,0,0,1,2.85-.47c1.3,4.26,2.52,8.31,3.78,12.36,1.49,4.84,3,9.67,4.52,14.49.6,1.91,1.33,3.8,1.11,5.86-2.37.87-4.71,1.84-7.12,2.6-10.7,3.36-21.41,6.67-32.12,10C1325.28,489.27,1324.67,489.55,1324.05,489.79Z"/><path class="cls-8" d="M1430.39,725.48c-.21.1-.42.28-.62.28s-.38-.22-.57-.34c.21-.1.42-.29.62-.28S1430.2,725.36,1430.39,725.48Z"/><path class="cls-3" d="M1223,385.11c2.54,0,5.08-.05,7.61-.05h88.54c1.6,0,3.2,0,4.8.07,0,3.06.11,6.11.11,9.17q0,18.76,0,37.52c-3.67,1.22-7.31,2.53-11,3.67-28.61,8.8-57,18.19-85,28.87-1.62.62-3.29,1.09-4.94,1.62-.07-1.19-.2-2.39-.2-3.59q0-37.63,0-75.28C1222.94,386.44,1223,385.78,1223,385.11Z"/><path class="cls-7" d="M1150.44,715c0-3,.14-6.09.15-9.14,0-7.29,0-14.59,0-21.88,0-1.32.13-2.64.2-4a12.54,12.54,0,0,1,2,.34,70.93,70.93,0,0,0,13.2,3c4.47.63,9,.9,13.41,1.7,4.09.75,8.27,0,12.29,1.32,1.33.43,2.92.08,4.39.1a30,30,0,0,1,6,.56c2.18.46,4.52.19,6.79.25,2,.05,4-.17,6,.57a8.22,8.22,0,0,0,2.78.21c2.81,0,5.61,0,8.42,0a27.54,27.54,0,0,1,6.75.59c1.77.46,3.72.18,5.59.2,2.39,0,4.79,0,7.3,0a8.46,8.46,0,0,1,.57,2.05q0,17.85,0,35.72a5.26,5.26,0,0,1-.25,1,7.37,7.37,0,0,1-2.09.52c-3.85-.13-7.74.55-11.55-.62a9.58,9.58,0,0,0-2.79-.13c-3.08,0-6.16,0-9.23,0a17.33,17.33,0,0,1-5.15-.53,16.36,16.36,0,0,0-4-.26c-3.19-.13-6.4.33-9.55-.69a12,12,0,0,0-3.19-.12c-2.66-.06-5.33.24-7.94-.67a7.87,7.87,0,0,0-2.39-.13c-2.39,0-4.82.25-7.13-.68a3.6,3.6,0,0,0-1.19-.11c-4.27-.1-8.43-1-12.65-1.47a94,94,0,0,1-10.19-1.79,29.66,29.66,0,0,1-3.45-1c-1.78-.62-3.08-1.64-2.86-3.8A6.16,6.16,0,0,0,1150.44,715Z"/><path class="cls-7" d="M1346.61,690.22c0,12.42,0,24.6,0,36.78a9.89,9.89,0,0,1-.34,1.74c-1.09.11-2.12.31-3.15.31-6.29,0-12.58,0-18.87,0h-59a24.76,24.76,0,0,1-7.16-.62,22.46,22.46,0,0,0-4.89-.36,9.14,9.14,0,0,1-.48-2q0-17.67,0-35.35a8.78,8.78,0,0,1,.31-1.43,5.16,5.16,0,0,1,2.14-.22,15.62,15.62,0,0,0,5.55.57l80.73,0A13,13,0,0,1,1346.61,690.22Z"/><path class="cls-25" d="M1438.3,678.32c-2.18,2-4.45,2-6.48,2.43-3.24.72-6.56,1.06-9.85,1.57l-.4,0c-4.38.3-8.77.59-13.16.91-1.46.11-2.9.37-4.36.5s-2.66.18-4,.25c-3.86.19-7.76-.31-11.57.73a10.16,10.16,0,0,1-2.41.07c-3.48,0-7,0-10.43.09-1.86.06-3.71.38-5.56.53-1.2.1-2.4.16-3.6.17-9.1,0-18.21,0-27.31.12-1.72,0-3.43.34-5.16.49-1.06.09-2.13.18-3.19.18q-22.69,0-45.38,0c-1.45,0-2.9-.32-4.36-.44s-2.66-.21-4-.22c-8.57-.05-17.14-.06-25.7-.11a20.08,20.08,0,0,1-6-.52,11.24,11.24,0,0,0-3.19-.19c-3.08,0-6.16,0-9.23-.07a49.44,49.44,0,0,1-7.17-.54c-2.88-.46-5.88-.16-8.82-.28-1.72-.08-3.43-.35-5.15-.54a7,7,0,0,0-1.19-.15c-4.7.32-9.32-.58-14-1a83.5,83.5,0,0,1-15.37-2.42,12,12,0,0,1-2.27-1.12,1.41,1.41,0,0,1,1-1.76,55.37,55.37,0,0,1,5.82-1.4c3.15-.51,6.36-.67,9.48-1.3,5-1,10.12-.36,15.12-1.4a34.19,34.19,0,0,1,6-.18c2.13-.06,4.27.12,6.37-.57a9.21,9.21,0,0,1,2.79-.17c3.35,0,6.69,0,10-.1,1.46,0,2.91-.3,4.36-.44,1.2-.11,2.39-.24,3.59-.26,4.69,0,9.37,0,14-.09,3.33,0,6.68.27,10-.63a10.85,10.85,0,0,1,2.8-.08q37.54,0,75.08,0c1.59,0,3.17.33,4.76.46,1.2.11,2.4.2,3.6.21,5.62,0,11.24,0,16.86.1a56.26,56.26,0,0,1,8.38.55c3,.47,6.13.17,9.21.23a42,42,0,0,1,7.57.57c2.2.45,4.54.13,6.81.25,1.85.1,3.7.36,5.55.56.4,0,.79.12,1.19.15,4.39.3,8.79.46,13.16.93a69.4,69.4,0,0,1,12.94,2.39A17.93,17.93,0,0,1,1438.3,678.32Z"/><path class="cls-7" d="M1285.9,770.88q-.11-6.42-.22-12.83c0-1.46-.06-2.91-.08-4.46a6.54,6.54,0,0,0-1.65-.49q-20.06,0-40.13.08l-8.88-.37q.06-10,.15-20.08c0-.24.22-.47.48-1a15,15,0,0,1,2.12-.28q22.5,0,45,0a14.48,14.48,0,0,1,2.77.35,21.3,21.3,0,0,0,9.13,0,13.53,13.53,0,0,1,2.76-.34q14.48,0,28.93,0a21.14,21.14,0,0,1,2.13.22,7.46,7.46,0,0,1,.51,1.87q0,17.68,0,35.36a5.8,5.8,0,0,1-.22,1.13c-1,1.1-2.26.76-3.42.77-8.44,0-16.87,0-25.31,0Z"/><path class="cls-7" d="M1285.9,813.47c-.07-1.05-.21-2.11-.21-3.16q0-16.54,0-33.07c0-1,.14-2.11.21-3.16,5.22,0,10.45,0,15.67,0a15.85,15.85,0,0,1,5.55.56,4.31,4.31,0,0,0,2.75,0,14.37,14.37,0,0,1,5.16-.55h26.91c1.33,0,2.65,0,4.1.07a8.71,8.71,0,0,1,.55,2q0,17.68,0,35.36a8.94,8.94,0,0,1-.28,1.43,15,15,0,0,1-2.56.46c-4,0-8,0-12,0Z"/><path class="cls-23" d="M1132.83,752.94l.09-31.11c5.17,1.77,10.55,2.69,15.88,3.79a59.13,59.13,0,0,0,8.3,1c2,.13,4,.43,5.93.69,4.21.55,8.48.7,12.73,1a21.49,21.49,0,0,1,5.15.55,15.77,15.77,0,0,0,4,.26c3.19.13,6.41-.36,9.55.7a7.58,7.58,0,0,0,2.39.1h8a10.63,10.63,0,0,1,2.4,0c5.55,1.35,11.18.53,16.76.75.93,0,1.86,0,2.78,0a8,8,0,0,1,1.74,5.69c0,5.48,0,11,0,16.45-1.47.08-2.93.22-4.39.23h-87.31C1135.5,753.05,1134.16,753,1132.83,752.94Z"/><path class="cls-20" d="M1132.83,752.94c1.33,0,2.67.11,4,.11h87.31c1.46,0,2.92-.15,4.39-.23h6.41l8.88.37q0,7.23,0,14.46h-107c-1.74,0-3.48,0-5.21-.08q-.09-7.18-.17-14.38Z"/><path class="cls-9" d="M1324.13,614.43l-16.57-5.94c-10.94-3.91-21.84-7.92-32.4-12.77-2.42-1.12-4.79-2.36-7.15-3.6a27.46,27.46,0,0,1-2.68-1.76,3.47,3.47,0,0,1-1.39-4.21c.79-2.69,1.54-5.39,2.31-8.08q2.8-9.81,5.63-19.62a23.27,23.27,0,0,1,.9-2.21c1.29.66,2.6,1.29,3.87,2a202.2,202.2,0,0,0,28.55,12.49c8.52,3.1,17,6.28,25.57,9.28,5.26,1.85,10.62,3.41,15.93,5.12,1.26.4,2.48.89,3.7,1.34.45,2.25-.48,4.11-1,6-2.41,8.59-5,17.15-7.45,25.72a9.22,9.22,0,0,0-.14,1.59l-12-3.64Z"/><path class="cls-9" d="M1347.42,621.47c.42-1.94.75-3.91,1.28-5.82q3-11,6.18-21.88c.48-1.65,1.14-3.25,1.8-5.14,1.59.37,3.13.63,4.61,1.09,8.27,2.52,16.5,5.17,24.8,7.63s16.87,4.81,25.31,7.2l17.27,4.88c2.17.61,4.34,1.2,6.7,1.85.39,1.31-.24,2.6-.56,3.77-1.75,6.42-3.66,12.79-5.52,19.17-.68,2.3-1.46,4.57-2,6.89a22.24,22.24,0,0,0-.28,3.57,23,23,0,0,1-2.35-.38c-19.22-5.2-38.39-10.59-57.43-16.43q-8.81-2.7-17.62-5.43A18.68,18.68,0,0,1,1347.42,621.47Z"/><path class="cls-25" d="M1297.13,561.33c1.28-1.39,2.7-1.1,4-.94,3,.38,6.05.88,9.06,1.42,5.89,1.08,11.81,2,17.64,3.38q19.86,4.6,39.63,9.57c8.27,2.07,16.48,4.41,24.71,6.67q11.19,3.08,22.34,6.23c3.21.91,6.39,1.93,9.59,2.87q30.93,9.12,61.39,19.67a232.48,232.48,0,0,1,26,10.41,16.8,16.8,0,0,1,2.73,1.65,5.76,5.76,0,0,1,1,1.48c-.39.36-.57.67-.76.68a35.25,35.25,0,0,1-6,0q-14.2-2.15-28.21-5.46c-12.31-2.93-24.64-5.83-36.9-9-10.07-2.59-20-5.51-30.07-8.3q-12.52-3.5-25-7c-3.2-.91-6.38-1.95-9.56-2.94-6.11-1.92-12.23-3.82-18.33-5.78-9.78-3.16-19.6-6.23-29.31-9.6-10.21-3.54-20.44-7.08-30.13-12A8,8,0,0,1,1297.13,561.33Z"/><path class="cls-9" d="M1280.77,501.74c-3.3,1-6.57,2.13-9.92,3q-17.1,4.32-34.24,8.45c-4.55,1.1-9.13,2.05-13.69,3.07-4.07.63-8.12,1.4-12.21,1.85-3.3.37-6.64.38-10,.49a2.7,2.7,0,0,1-2.85-2.26c-1.76-5.86-3.62-11.7-5.43-17.55-.83-2.67-1.68-5.34-2.45-8-.48-1.66-.84-3.35-1.25-5a28.57,28.57,0,0,1,3.2-.16c5.64.31,11.13-.89,16.62-1.83,4.57-.79,9.09-1.91,13.63-2.91,6.49-1.43,13-2.76,19.45-4.36,9.55-2.37,19-4.95,28.86-7.51a11.07,11.07,0,0,1,1.27,2.16c2,6.36,3.88,12.75,5.84,19.11.78,2.55,1.7,5.06,2.44,7.63A33.46,33.46,0,0,1,1280.77,501.74Z"/><path class="cls-25" d="M1429.06,410.19c-.06,1.88-1.22,2.19-2.13,2.62-4.83,2.29-9.62,4.7-14.55,6.73-23.26,9.55-47.2,17.16-71.06,25-10.78,3.54-21.63,6.86-32.52,10q-19.59,5.71-39.31,11-16,4.35-32.15,8.27c-5.69,1.39-11.46,2.48-17.22,3.5a40.35,40.35,0,0,1-6.42.19,12,12,0,0,1-1.67-.27,6.1,6.1,0,0,1,3.54-3.34c4.36-2,8.68-4.18,13.13-6,23.27-9.49,47.18-17.19,71-25q16.18-5.28,32.52-10,19.59-5.72,39.31-11,16-4.35,32.15-8.28c5.69-1.39,11.46-2.51,17.23-3.48A23.47,23.47,0,0,1,1429.06,410.19Z"/><path class="cls-26" d="M409.94,668.71l-9.77-3.39-6.83-4.54a1,1,0,0,0-.39,0,9.14,9.14,0,0,0-1-1.66,34.64,34.64,0,0,1-7.33-13c-.38-1.11-.88-2.18-1.33-3.26a38.55,38.55,0,0,0-1.6-9.41c0-6-.12-12,0-18a63.89,63.89,0,0,1,.93-7.1,9.39,9.39,0,0,0,1.19-.07l37.83-6.52q25.2-4.35,50.42-8.73c2.08-.36,4.13-.93,6.19-1.4,2.63-.34,5.27-.61,7.89-1,6.44-1,12.86-2.21,19.3-3.24,3.28-.52,6.59-1,9.91-1.2,6.24-.39,12.51-.8,18.76-.76,5,0,10.08.73,15.12,1.13l3.58.27a6,6,0,0,0,1.36.72,44.21,44.21,0,0,1,9,3.19,15.6,15.6,0,0,1,8.14,9.36c3.18,9,5.73,18.23,8,27.53.78,3.22,1.7,6.41,2.37,9.66a2.51,2.51,0,0,0,2.1,2.06c-1.19.53-1.34,1.43-1.07,2.61,1.35,5.94,2.64,11.88,4,17.82.76,3.35,1.58,6.68,2.37,10q1.42,6.75,2.86,13.49c.2,1.46.34,2.93.63,4.36q1.8,9.26,3.69,18.48,1.75,8.64,3.54,17.27l.87,4.13c1,5.92,2,11.84,3.11,17.74q4.23,23,8.51,46.07c1.12,6,2.26,12.06,3.38,18.09,0,.75-.1,1.5-.16,2.25-1.52,1.14-3.32.57-4.86,1.09-1.58,0-3.16,0-4.74.07-4.2.21-8.41.46-12.62.69-1.45.07-2.89.09-4.34.14l-1.39-.32c-1.15-2.26-2.35-4.5-3.46-6.78q-7.25-14.77-14.46-29.55c-.64-1.31-1.4-2.56-2.1-3.84l-.78-1.64c-.33-.87-.59-1.76-1-2.6q-8.67-18.15-17.36-36.28a11.22,11.22,0,0,0-.88-1.32c-.51-1.08-1-2.15-1.52-3.23-1.32-2.91-2.57-5.84-4-8.71a134.61,134.61,0,0,1-8.35-20.69c-1.12-3.81-2.05-7.68-3.07-11.53-.19-1.29-.39-2.58-.59-3.86q-1.17-6.86-2.35-13.7a6,6,0,0,0-.75-3.76,17.28,17.28,0,0,0-1-8.07c-.41-.15-.69-.37-.89-.31a36.14,36.14,0,0,0-8.39,3.32,5.86,5.86,0,0,0-1.58.12c-4.16,1.41-8.3,2.86-12.45,4.3l-13.24,3.48a14.71,14.71,0,0,0-2,.17,186.11,186.11,0,0,1-23.74,3.38A175.33,175.33,0,0,1,421,670.64C417.27,670,413.61,669.35,409.94,668.71Z"/><path class="cls-10" d="M659.14,793c-.09,1.59-.25,3.19-.25,4.78q0,22.21,0,44.44c0,1.6,0,3.2-.06,4.8-3.58-1.86-7.16-3.7-10.71-5.6a7.94,7.94,0,0,1-1.43-1.3c.07-1.19.18-2.38.18-3.57q0-11.76,0-23.52c0-1.19-.12-2.38-.19-3.57a2.69,2.69,0,0,0-1.7-3.55,18.55,18.55,0,0,0-3-1.1c-2.72-.64-5.44-1.31-8.2-1.74-5-.77-10-1.38-15-2.06q0-15.06,0-30.13c0-1.17.14-2.34.22-3.62,2.33-.41,4.43-.75,6.51-1.16a44.82,44.82,0,0,0,10.05-2.69,2.89,2.89,0,0,0,1.83-2.82c0-1.85.24-3.7.38-5.56.51.78,1.08,1.52,1.54,2.33q9.33,16.54,18.64,33.11C658.42,791.24,658.76,792.12,659.14,793Z"/><path class="cls-23" d="M637.79,755c-.14,1.86-.34,3.71-.38,5.56a2.89,2.89,0,0,1-1.83,2.82,44.82,44.82,0,0,1-10.05,2.69c-2.08.41-4.18.75-6.51,1.16-.08,1.28-.21,2.45-.22,3.62q0,15.06,0,30.13c-.12,2.22.06,4.45-.85,6.59a2.63,2.63,0,0,1-2.25,1.89c-1.12-6-2.26-12.06-3.38-18.09q-4.26-23-8.51-46.07c-1.08-5.9-2.08-11.82-3.11-17.74l4.41-.09a26.47,26.47,0,0,0,4-.17,102.65,102.65,0,0,1,12.23-1.52,14.85,14.85,0,0,1,1.18,1.59q7.38,13.08,14.73,26.17A15.36,15.36,0,0,1,637.79,755Z"/><path class="cls-23" d="M599.79,723.42q-1.77-8.62-3.54-17.27-1.87-9.23-3.69-18.48c-.29-1.43-.43-2.9-.63-4.36,2.65.26,5.17-.59,7.75-1a1.22,1.22,0,0,1,.24.32c3.24,10.93,8.94,20.69,14.53,30.5,1,1.72,1.82,3.52,2.72,5.29a2,2,0,0,1-1.7,1.87c-3.3.74-6.58,1.59-9.89,2.27C603.67,723,601.72,723.16,599.79,723.42Z"/><path class="cls-17" d="M676.46,827c.4-1.91-.31-3.69-.64-5.52l-1.59-8.64,22.07-1.22a38.26,38.26,0,0,0,6.93,14.47c.7.94,1.59,1.77,1.62,3.07-.38.34-.72.89-1.16,1-2.85.66-5.72,1.21-8.59,1.79-.26,0-.56,0-.8.06-4,1.54-7.26-.27-10.52-2.18-.92-.54-1.83-1.1-2.72-1.68A8.27,8.27,0,0,0,676.46,827Z"/><path class="cls-10" d="M589.07,669.82c-.79-3.35-1.61-6.68-2.37-10-1.35-5.94-2.64-11.88-4-17.82-.27-1.18-.12-2.08,1.07-2.61,2.88-.3,5.49-1.91,8.69-2,.4,2.46.81,4.78,1.14,7.11q1.62,11.44,3.19,22.9c.14,1,.13,2.11.19,3.17Z"/><path class="cls-8" d="M589.07,669.82l7.92.74q1.34,5.9,2.69,11.79c-2.58.37-5.1,1.22-7.75,1Q590.51,676.58,589.07,669.82Z"/><path class="cls-8" d="M599.79,723.42c1.93-.26,3.88-.42,5.79-.82,3.31-.68,6.59-1.53,9.89-2.27a2,2,0,0,0,1.7-1.87l4.12,7.32a100.61,100.61,0,0,0-12.23,1.51,26.47,26.47,0,0,1-4,.17l-4.41.09Z"/><path class="cls-25" d="M478.25,591.68c-2.06.47-4.11,1-6.19,1.4q-25.21,4.39-50.42,8.73l-37.83,6.52a9.39,9.39,0,0,1-1.19.07q.75-6.06,1.49-12.14c.32-2.61.63-5.22.95-7.84a19.82,19.82,0,0,0,9.47.42c15.9-2.74,31.29-7.65,47-11.11,3.63-.8,7.3-1.47,10.95-2.14,2.09-.39,4.23-.54,6.3-1a29.16,29.16,0,0,1,12.68,0,15.33,15.33,0,0,0,2.8.2c2.14,0,4.28,0,6.42,0-.28,3.52-1.94,6.62-2.9,10.05-2.16.37-4.22.9-6.32,1-5.7.39-11.43.6-17.14.93-2,.12-4,.45-5.94.57-2.4.15-4.81.11-7.21.25-1.85.11-3.69.37-5.54.56a9.58,9.58,0,0,1-1.59.14c-5.22-.34-10.35.83-15.55.87a7.1,7.1,0,0,0-1.59.17,2.65,2.65,0,0,0-2.35,2.77,3.19,3.19,0,0,0,2.39,3.27,10.36,10.36,0,0,0,2.78,0c1.58-.13,3.16-.42,4.74-.51,3-.18,6.12.1,9.15-.68a18.94,18.94,0,0,1,4-.15c2.92-.12,5.88.21,8.74-.7a1.26,1.26,0,0,1,.39,0,134.9,134.9,0,0,0,14.35-.83c3.18-.26,6.36-.07,9.56-.67C473.11,591.36,475.71,591.7,478.25,591.68Z"/><path class="cls-15" d="M562.11,547.42c-3.12-.12-4.81-1.42-5.86-3.64a7.51,7.51,0,0,1,2.06-9,5.66,5.66,0,0,1,8.63,2.46,7.31,7.31,0,0,1-2.13,8.94A12.48,12.48,0,0,1,562.11,547.42Z"/><path class="cls-19" d="M672.54,303.09c.15-.19.28-.45.48-.54s.36.15.54.24a.93.93,0,0,1-.31.19,6.43,6.43,0,0,1-.74.08Z"/><path class="cls-19" d="M672.51,303.06l-.33.35c0-.07,0-.17.07-.21a1.25,1.25,0,0,1,.29-.11Z"/><path class="cls-20" d="M1074,753.2l-.18,14.31c-1.61,0-3.21.11-4.82.11l-97.62,0c0-4.28,0-8.57,0-12.85a4.29,4.29,0,0,1,.32-1.12c1.22-.91,2.6-.56,3.9-.56,8.56,0,17.13,0,25.69,0q17.46,0,34.93,0c1.46,0,2.93-.16,4.39-.24s2.91.18,4.36.18c8.23,0,16.46,0,24.68,0C1071.1,753.05,1072.56,753.14,1074,753.2Z"/><path class="cls-22" d="M971.39,767.65l97.62,0c1.61,0,3.21-.07,4.82-.11a56.36,56.36,0,0,1,0,13.11c-1.73,0-3.46-.1-5.19-.1H971.38c-.24-.45-.67-.9-.67-1.35q-.09-5.08,0-10.17C970.72,768.54,971.16,768.09,971.39,767.65Z"/><path class="cls-22" d="M1073.81,818.17a55.48,55.48,0,0,1,0,13.07c-1.06,0-2.13-.11-3.2-.11h-99.3c-.22-.46-.62-.91-.63-1.37-.05-3.38-.05-6.77,0-10.15,0-.45.44-.89.68-1.34l97.6,0C1070.6,818.26,1072.2,818.2,1073.81,818.17Z"/><path class="cls-22" d="M1073.85,792.49a53.17,53.17,0,0,1-.09,13.1c-1.6,0-3.2-.1-4.8-.1l-97.48,0c-.26-.43-.74-.86-.75-1.29-.05-3.53,0-7,0-10.57,0-.34.35-.68.53-1,.54,0,1.07,0,1.61,0h97.77C1071.72,792.61,1072.78,792.53,1073.85,792.49Z"/><path class="cls-19" d="M971.48,805.45l97.48,0c1.6,0,3.2.06,4.8.1a54.56,54.56,0,0,1,0,12.58c-1.61,0-3.21.09-4.82.09l-97.6,0Z"/><path class="cls-20" d="M1073.85,792.49c-1.07,0-2.13.12-3.2.12H972.88c-.54,0-1.07,0-1.61,0q.06-6,.11-12.07h97.25c1.73,0,3.46.06,5.19.1Z"/><path class="cls-19" d="M971.33,831.14h99.3c1.07,0,2.14.07,3.2.11q0,4.71,0,9.41c-1.6,0-3.21.1-4.81.1l-97.56,0Z"/><path class="cls-19" d="M309.19,759.2l-3.1.21a17.32,17.32,0,0,1-.78-5.89c0-2.13.06-4.27,0-6.39-.17-5,1.08-9.74,2.5-14.44a15.63,15.63,0,0,1,1.46-2.77q.08,12,.14,24.08C309.4,755.73,309.27,757.47,309.19,759.2Z"/><path class="cls-21" d="M320.63,669.59l-8.24,1.24-14.93,2.26a14.24,14.24,0,0,0-1.72-2.18c-3.08-2.61-4.85-6.11-6.15-9.74a21.07,21.07,0,0,1,2.72-19.82c1.82-2.66,4.66-4,7.53-5.13a25.57,25.57,0,0,1,10.13-2c2.53.09,5.09-.12,7.62,0a32.2,32.2,0,0,0,8.32-.94,7.48,7.48,0,0,0,5.06-3c2.27-3.4,2-6.64-1.17-9.69a17.7,17.7,0,0,0-5.61-3.75c-4.08-1.61-8.26-3-12.8-2.83a16.8,16.8,0,0,1-3.91-.68c-3.48-.73-5.07-3.36-6-6.4-1.14-3.87,2-8.38,6-8.85a13.09,13.09,0,0,1,3.59.13c3.66.64,7.3,1.38,10.95,2.08,2.12-1.2,1.61-3.55,2.32-5.33a41,41,0,0,0,1.39-5.53c4.13.72,7.65,2.55,11.53,4-1,4.12-1.88,8-2.83,12,1.88,1.42,3.74,2.92,5.68,4.3,5.25,3.74,8.22,9,10.08,15,1.66,5.35.93,10.58-1.08,15.65a16,16,0,0,1-9.81,9.38A31.2,31.2,0,0,1,327.23,652a62.29,62.29,0,0,0-15.45,1.57,4.94,4.94,0,0,0-2.13,1c-2.92,2.49-3.55,5-.69,8.68,2.4,3.11,5.86,4.52,9.52,5.57A21.81,21.81,0,0,1,320.63,669.59Z"/><path class="cls-4" d="M393,660.74a1,1,0,0,1,.39,0l6.83,4.54c-10.45.47-20.88,1.24-31.35,1a13.41,13.41,0,0,1,1.77-.72c4.23-1,8.46-2,12.68-3Z"/><path class="cls-22" d="M393,660.74l-9.68,1.84q0-9.86,0-19.72c.45,1.08.95,2.15,1.33,3.26a34.64,34.64,0,0,0,7.33,13A9.14,9.14,0,0,1,393,660.74Z"/><path class="cls-18" d="M1131.56,767.55c1.73,0,3.47.08,5.21.08h107V780.5l-107,0c-1.73,0-3.47,0-5.21.07Q1131.57,774.07,1131.56,767.55Z"/><path class="cls-22" d="M1243.79,818.28l0,12.83-107,0c-1.73,0-3.47,0-5.2.07l0-13c1.73,0,3.47.07,5.2.07Z"/><path class="cls-19" d="M1243.79,818.28l-107,0c-1.73,0-3.47,0-5.2-.07q0-6.32,0-12.62c1.34,0,2.67-.08,4-.08h108.23Z"/><path class="cls-22" d="M1243.82,805.48H1135.59c-1.34,0-2.67,0-4,.08l-.06-13c2.94,0,5.87.07,8.81.07l103.39,0Z"/><path class="cls-20" d="M1243.72,792.64l-103.39,0c-2.94,0-5.87-.05-8.81-.07l0-11.95c1.74,0,3.48-.07,5.21-.07l107,0Z"/><path class="cls-19" d="M1131.54,831.2c1.73,0,3.47-.07,5.2-.07l107,0c0,3.22,0,6.44,0,9.66l-107,0c-1.73,0-3.47,0-5.21-.07Z"/><path class="cls-7" d="M434.23,732.28h82.35a29.79,29.79,0,0,0,5.55-.52,28.57,28.57,0,0,1,9.32,0,9.88,9.88,0,0,1,.43,1.94q0,18.27,0,36.55a7.58,7.58,0,0,1-.22,1.42c-1,1.05-2.09.76-3.13.79-2.13.08-4.25-.11-6.35.63a9.91,9.91,0,0,1-3.19.17H435c-1.41-1.18-1.08-2.46-1.09-3.62q0-13.86,0-27.72c0-2.28,0-4.55,0-6.83C433.92,734.33,434.08,733.56,434.23,732.28Z"/><path class="cls-7" d="M512.26,729.07h-8.4c-2.8,0-5.61-.05-8.42,0-1.32,0-2.63.3-3.95.45a28.54,28.54,0,0,1-3.17.3q-33.9,0-67.8,0c-1.75,0-3.49,0-4.95-1.53-.05-.82-.16-1.74-.16-2.66q0-16.66,0-33.31a17.45,17.45,0,0,1,.1-2.4,1.82,1.82,0,0,1,2.27-1.69c2.89,1,5.84.57,8.75.57q29.89.06,59.78,0a13.24,13.24,0,0,0,5.15-.54,5.36,5.36,0,0,1,2-.23q8.63,0,17.25,0a6.5,6.5,0,0,1,1.17.2c1.17,1.1.76,2.51.77,3.8,0,9.9,0,19.8,0,29.7,0,1.6,0,3.21,0,4.81A23.33,23.33,0,0,1,512.26,729.07Z"/><path class="cls-7" d="M512.25,816c-.21.19-.31.36-.41.36-4,.15-7.89,1.11-11.92,1.1q-39.56-.07-79.12,0c-1.58,0-3.17-.07-4.89-.1a11.93,11.93,0,0,1-.48-2.11q0-18.28,0-36.56a13,13,0,0,1,.27-1.75,19.12,19.12,0,0,1,2.28-.45c1.06-.07,2.14,0,3.21,0h77.92a25.42,25.42,0,0,0,6.36-.58,16.1,16.1,0,0,1,6.63,0,5,5,0,0,1,.47,1.36q0,18.88,0,37.76A3,3,0,0,1,512.25,816Z"/><path class="cls-25" d="M527.68,669.64q1.19,6.86,2.35,13.7c-1.19.79-2.55.66-3.89.67-5.75,0-11.51,0-17.27.11-1.58,0-3.17.33-4.76.47-1.19.1-2.39.21-3.59.21q-45.78,0-91.56,0c-1.46,0-2.91-.31-4.37-.44-1.19-.11-2.39-.23-3.59-.24-4.82-.05-9.63,0-14.45-.09-2.54,0-5.07.15-7.57-.59a14.12,14.12,0,0,0-3.2-.15c-4.79-.2-9.63.38-14.38-.74a12.74,12.74,0,0,0-2.4-.07c-3.07-.13-6.17.27-9.16-.72a3.51,3.51,0,0,0-.8-.06c-4.39-.29-8.79-.44-13.16-.92-4-.44-7.91-1.15-11.82-1.92a6.06,6.06,0,0,1-4.1-2c.4-.44.71-1.09,1.21-1.31a14.76,14.76,0,0,1,3.43-1c4.21-.68,8.41-1.32,12.65-1.77,7-.73,14.08-1.11,21.11-1.68,5.34-.44,10.71-.12,16-.78,7.08-.88,14.18-.13,21.21-.8,4.8-.46,9.6-.43,14.39-.73,3.67.64,7.33,1.33,11,1.93a175.33,175.33,0,0,0,42.69,1.63,186.11,186.11,0,0,0,23.74-3.38,14.71,14.71,0,0,1,2-.17l14.79.11a12.51,12.51,0,0,1,3.19.11c2.89.81,5.82.56,8.74.61C520,669.61,523.82,669.61,527.68,669.64Z"/><path class="cls-7" d="M567.53,773.2c.7,1.28,1.46,2.53,2.1,3.84q7.25,14.78,14.46,29.55c1.11,2.28,2.31,4.52,3.46,6.78l-6.41.09c-2.25,0-4.53-.23-6.73.64a5.89,5.89,0,0,1-2,.16,54.46,54.46,0,0,0-9.94.66c-2.57.54-5.33.12-8,.15a16,16,0,0,0-5.54.57,8.5,8.5,0,0,1-2.78.22c-2.93,0-5.87,0-8.81,0a52,52,0,0,0-6.34.55c-3.4.43-6.91.11-10.22.11-1.26-1-.93-2.32-.93-3.48,0-9.35,0-18.71,0-28.06,0-2.14,0-4.28,0-6.42,0-.77.16-1.55.24-2.29a4,4,0,0,1,1.23-.52c7.46,0,14.86-1.39,22.35-.91a14.8,14.8,0,0,0,5.93-.59,11.13,11.13,0,0,1,3.18-.19c4.12-.11,8.27.39,12.33-.76A10.59,10.59,0,0,1,567.53,773.2Z"/><path class="cls-23" d="M547.52,731.36a11.22,11.22,0,0,1,.88,1.32q8.69,18.14,17.36,36.28c.4.84.66,1.73,1,2.6-4.28,0-8.57,0-12.85.13a47.58,47.58,0,0,0-4.75.53,58.33,58.33,0,0,1-10.23.1,5.7,5.7,0,0,1-.51-1.44q0-18.89,0-37.77a5.3,5.3,0,0,1,.45-1.37C541.68,731.17,544.63,731.68,547.52,731.36Z"/><path class="cls-23" d="M530.62,687.2c1,3.85,2,7.72,3.07,11.53A134.61,134.61,0,0,0,542,719.42c1.39,2.87,2.64,5.8,4,8.71l-16.45.14a18.05,18.05,0,0,0-5.55.56c-1.07.35-2.34.06-3.66.06a10.27,10.27,0,0,1-.45-2q0-18.47,0-36.93a7.45,7.45,0,0,1,.26-1.26,9,9,0,0,1,5.26-1.39C527.15,687.3,528.89,687.23,530.62,687.2Z"/><path class="cls-17" d="M588.94,813.69c1.45-.05,2.89-.07,4.34-.14,4.21-.23,8.42-.48,12.62-.69,1.58-.08,3.16-.05,4.74-.07l.84,2.27c.4,1.1.86,2.18,1.18,3.31a13.83,13.83,0,0,0,3.55,6c1.53,1.58,2.78,3.44,4.16,5.18l-10,2.4c-.13,0-.28,0-.4,0-3.63,1.56-6.74.15-9.78-1.69-.68-.41-1.31-.92-2-1.33-2.09-1.25-4.25-2.27-6.79-1.89-1.14-2.45-.84-5.2-1.6-7.73-.26-.88-.52-1.77-.77-2.65C589,815.69,589,814.69,588.94,813.69Z"/><path class="cls-7" d="M620.37,829.55c-1.38-1.74-2.63-3.6-4.16-5.18a13.83,13.83,0,0,1-3.55-6c-.32-1.13-.78-2.21-1.18-3.31a41.07,41.07,0,0,0,8.71-.74c3.14-.51,6.38-.4,9.48-1,5.31-1,10.8-1.42,15.81-3.79a3.49,3.49,0,0,1,1.18-.1c.07,1.19.19,2.38.19,3.57q0,11.76,0,23.52c0,1.19-.11,2.38-.18,3.57-1.25-.41-2.54-.73-3.76-1.24C635.42,835.7,628.07,832.2,620.37,829.55Z"/><path class="cls-8" d="M646.66,809.42a3.49,3.49,0,0,0-1.18.1c-5,2.37-10.5,2.74-15.81,3.79-3.1.61-6.34.5-9.48,1a41.07,41.07,0,0,1-8.71.74l-.84-2.27c1.54-.52,3.34.05,4.86-1.09.06-.75.11-1.5.16-2.25a2.63,2.63,0,0,0,2.25-1.89c.91-2.14.73-4.37.85-6.59,5,.68,10,1.29,15,2.06,2.76.43,5.48,1.1,8.2,1.74a18.55,18.55,0,0,1,3,1.1A2.69,2.69,0,0,1,646.66,809.42Z"/><path class="cls-8" d="M527.68,669.64c-3.86,0-7.73,0-11.59-.09-2.92,0-5.85.2-8.74-.61a12.51,12.51,0,0,0-3.19-.11l-14.79-.11,13.24-3.48,15.9.25,8.42.39A6,6,0,0,1,527.68,669.64Z"/><path class="cls-4" d="M526.93,665.88l-8.42-.39c-.63-1.56-1.25-3.11-1.87-4.67A36.14,36.14,0,0,1,525,657.5c.2-.06.48.16.89.31A17.28,17.28,0,0,1,526.93,665.88Z"/><path class="cls-22" d="M516.64,660.82c.62,1.56,1.24,3.11,1.87,4.67l-15.9-.25c4.15-1.44,8.29-2.89,12.45-4.3A5.86,5.86,0,0,1,516.64,660.82Z"/></svg>