<svg xmlns="http://www.w3.org/2000/svg" version="1.1" xmlns:xlink="http://www.w3.org/1999/xlink" xmlns:svgjs="http://svgjs.dev/svgjs" width="1000" height="1000" viewBox="0 0 1000 1000"><rect width="1000" height="1000" fill="#ffffff"></rect><g transform="matrix(0.7,0,0,0.7,149.57575757575756,282.1265587044535)"><svg viewBox="0 0 396 247" data-background-color="#ffffff" preserveAspectRatio="xMidYMid meet" height="623" width="1000" xmlns="http://www.w3.org/2000/svg" xmlns:xlink="http://www.w3.org/1999/xlink"><g id="tight-bounds" transform="matrix(1,0,0,1,0.2400000000000091,-0.09999999999999432)"><svg viewBox="0 0 395.52 247.2" height="247.2" width="395.52"><g><svg></svg></g><g><svg viewBox="0 0 395.52 247.2" height="247.2" width="395.52"><g><g><path d="M286.968 0c-0.931 9.311-1.56 18.389-1.885 27.234-0.011 0.262-0.022 0.522-0.033 0.78l-19.454 0c-3.344-5.908-7.625-10.427-12.844-13.559-7.216-4.283-17.574-6.424-31.075-6.424h-18.505c-7.449 0-13.082 0.628-16.899 1.885-3.864 1.304-6.494 3.864-7.891 7.681-0.919 2.544-1.536 6.016-1.85 10.417l-40.681 0c-0.298-4.203-0.832-7.558-1.602-10.068-1.304-4.05-3.98-6.82-8.03-8.309-4.097-1.536-9.986-2.421-17.667-2.654v-6.983c11.871 0.233 24.627 0.466 38.267 0.698 13.594 0.233 26.396 0.349 38.406 0.349 11.964 0 21.554 0 28.771 0 10.707 0 22.881-0.047 36.521-0.139 13.594-0.14 25.744-0.442 36.451-0.908zM179.08 228.835c1.862 4.329 5.354 7.193 10.475 8.589 5.121 1.397 12.686 2.211 22.695 2.444v7.332c-6.285-0.466-14.432-0.768-24.441-0.908-10.009-0.093-20.367-0.14-31.074-0.139-9.311 0-18.202 0.047-26.676 0.139-8.519 0.14-15.689 0.442-21.507 0.908v-6.983c7.914-0.466 13.85-1.397 17.806-2.793 3.957-1.397 6.587-4.19 7.891-8.38 0.758-2.525 1.287-5.811 1.588-9.858h40.942c0.453 3.946 1.221 7.162 2.301 9.649z" fill="#528265" fill-rule="nonzero" stroke="none" stroke-width="1" stroke-linecap="butt" stroke-linejoin="miter" stroke-miterlimit="10" stroke-dasharray="" stroke-dashoffset="0" font-family="none" font-weight="none" font-size="none" text-anchor="none" style="mix-blend-mode: normal" data-fill-palette-color="tertiary"></path></g></g><g transform="matrix(1,0,0,1,66.96002433146123,37.08)"><svg viewBox="0 0 261.5999513370775 173.04" height="173.04" width="261.5999513370775"><g><svg viewBox="0 0 261.5999513370775 173.04" height="173.04" width="261.5999513370775"><g><svg viewBox="0 0 395.52 261.6238284838688" height="173.04" width="261.5999513370775"><g transform="matrix(1,0,0,1,0,130.87664159408953)"><svg viewBox="0 0 395.52 130.74718688977924" height="130.74718688977924" width="395.52"><g><svg viewBox="0 0 395.52 130.74718688977924" height="130.74718688977924" width="395.52"><g><svg viewBox="0 0 395.52 93.936" height="93.936" width="395.52"><g transform="matrix(1,0,0,1,0,0)"><svg width="395.52" viewBox="1.2 -39.2 168.39000000000001 39.900000000000006" height="93.936" data-palette-color="#528265"><path d="M14-39.1L14-39.1Q15.5-39.1 16.65-38.7 17.8-38.3 18.7-37.65L18.7-37.65Q19.4-37.05 19.85-36.2 20.3-35.35 20.3-34.35L20.3-34.35Q20.3-33.1 19.48-32.25 18.65-31.4 17.35-31.4L17.35-31.4Q16.05-31.4 15.15-32.2 14.25-33 14.25-34.4L14.25-34.4Q14.25-35.55 14.88-36.3 15.5-37.05 16.6-37.35L16.6-37.35Q16.45-37.75 15.9-38.02 15.35-38.3 14.4-38.3L14.4-38.3Q13.3-38.3 12.53-37.85 11.75-37.4 11.3-36.65L11.3-36.65Q10.75-35.7 10.58-33.83 10.4-31.95 10.4-28.1L10.4-28.1 10.4-25.75 15.75-25.75 15.75-24.75 10.4-24.75 10.4-5.15Q10.4-2.7 11.78-1.88 13.15-1.05 15.5-1.05L15.5-1.05 15.5 0Q14.3-0.05 12.13-0.13 9.95-0.2 7.5-0.2L7.5-0.2Q5.75-0.2 4.03-0.13 2.3-0.05 1.4 0L1.4 0 1.4-1.05Q3.35-1.05 4.17-1.8 5-2.55 5-4.65L5-4.65 5-24.75 1.2-24.75 1.2-25.75 5-25.75Q5-30.2 5.63-32.55 6.25-34.9 7.75-36.6L7.75-36.6Q8.8-37.7 10.43-38.4 12.05-39.1 14-39.1ZM24.3-38.4L24.3-38.4Q25.85-38.4 26.9-37.43 27.95-36.45 27.95-35L27.95-35Q27.95-33.55 26.9-32.58 25.85-31.6 24.3-31.6L24.3-31.6Q22.75-31.6 21.7-32.58 20.65-33.55 20.65-35L20.65-35Q20.65-36.45 21.7-37.43 22.75-38.4 24.3-38.4ZM27.3-26.35L27.3-26.35 27.3-4.65Q27.3-2.55 28.12-1.8 28.95-1.05 30.9-1.05L30.9-1.05 30.9 0Q30.05-0.05 28.27-0.13 26.5-0.2 24.65-0.2L24.65-0.2Q22.9-0.2 21.05-0.13 19.2-0.05 18.3 0L18.3 0 18.3-1.05Q20.25-1.05 21.07-1.8 21.9-2.55 21.9-4.65L21.9-4.65 21.9-20.35Q21.9-22.6 21.15-23.68 20.4-24.75 18.3-24.75L18.3-24.75 18.3-25.8Q19.9-25.65 21.4-25.65L21.4-25.65Q23.1-25.65 24.57-25.83 26.05-26 27.3-26.35ZM50.69-26.5L50.69-26.5Q52.69-26.5 53.97-25.98 55.24-25.45 56.09-24.55L56.09-24.55Q56.99-23.6 57.37-22.1 57.74-20.6 57.74-18.05L57.74-18.05 57.74-4.65Q57.74-2.55 58.57-1.8 59.39-1.05 61.34-1.05L61.34-1.05 61.34 0Q60.49-0.05 58.69-0.13 56.89-0.2 55.14-0.2L55.14-0.2Q53.44-0.2 51.77-0.13 50.09-0.05 49.24 0L49.24 0 49.24-1.05Q50.94-1.05 51.64-1.8 52.34-2.55 52.34-4.65L52.34-4.65 52.34-19.45Q52.34-20.9 52.09-22.08 51.84-23.25 51.05-23.98 50.24-24.7 48.64-24.7L48.64-24.7Q45.84-24.7 44.07-22.4 42.3-20.1 42.3-16.7L42.3-16.7 42.3-4.65Q42.3-2.55 43.02-1.8 43.74-1.05 45.39-1.05L45.39-1.05 45.39 0Q44.59-0.05 42.97-0.13 41.34-0.2 39.59-0.2L39.59-0.2Q37.89-0.2 36.04-0.13 34.19-0.05 33.29 0L33.29 0 33.29-1.05Q35.24-1.05 36.07-1.8 36.89-2.55 36.89-4.65L36.89-4.65 36.89-20.35Q36.89-22.6 36.14-23.68 35.39-24.75 33.29-24.75L33.29-24.75 33.29-25.8Q34.89-25.65 36.39-25.65L36.39-25.65Q38.09-25.65 39.57-25.83 41.04-26 42.3-26.35L42.3-26.35 42.3-20.9Q43.59-24 45.87-25.25 48.14-26.5 50.69-26.5ZM73.29-25.8L73.29-25.8 73.29-24.75Q72.09-24.75 71.17-24.58 70.24-24.4 69.97-23.65 69.69-22.9 70.34-21L70.34-21 75.39-6.1 74.94-5.9 81.79-25.95 82.79-25.5 74.14 0.2Q73.74 0.2 73.34 0.2 72.94 0.2 72.49 0.2L72.49 0.2 64.39-21.95Q63.59-23.95 62.82-24.35 62.04-24.75 61.49-24.75L61.49-24.75 61.49-25.8Q62.69-25.65 63.97-25.58 65.24-25.5 66.79-25.5L66.79-25.5Q68.34-25.5 70.07-25.6 71.79-25.7 73.29-25.8ZM100.29-25.8L100.29-25.8 100.29-24.8Q99.34-24.65 98.49-23.85 97.64-23.05 96.99-21L96.99-21 89.94 0.2Q89.54 0.2 89.12 0.2 88.69 0.2 88.29 0.2L88.29 0.2 80.54-19.85 81.79-25.95Q82.29-25.9 82.77-25.93 83.24-25.95 83.74-25.95L83.74-25.95 91.24-5.45 90.79-5.4 95.19-19Q96.19-22 95.37-23.3 94.54-24.6 91.94-24.8L91.94-24.8 91.94-25.8Q92.84-25.75 93.57-25.73 94.29-25.7 95.02-25.68 95.74-25.65 96.49-25.65L96.49-25.65Q97.59-25.65 98.57-25.7 99.54-25.75 100.29-25.8ZM113.69-26.5L113.69-26.5Q117.04-26.5 119.64-25.1 122.24-23.7 123.79-20.7 125.34-17.7 125.34-12.85L125.34-12.85Q125.34-8 123.79-5.03 122.24-2.05 119.64-0.68 117.04 0.7 113.69 0.7L113.69 0.7Q110.39 0.7 107.74-0.68 105.09-2.05 103.57-5.03 102.04-8 102.04-12.85L102.04-12.85Q102.04-17.7 103.57-20.7 105.09-23.7 107.74-25.1 110.39-26.5 113.69-26.5ZM113.69-25.5L113.69-25.5Q111.09-25.5 109.44-22.53 107.79-19.55 107.79-12.85L107.79-12.85Q107.79-6.15 109.44-3.23 111.09-0.3 113.69-0.3L113.69-0.3Q116.24-0.3 117.92-3.23 119.59-6.15 119.59-12.85L119.59-12.85Q119.59-19.55 117.92-22.53 116.24-25.5 113.69-25.5ZM137.09-39.2L137.09-39.2 137.09-4.65Q137.09-2.55 137.91-1.8 138.74-1.05 140.69-1.05L140.69-1.05 140.69 0Q139.84-0.05 138.04-0.13 136.24-0.2 134.44-0.2L134.44-0.2Q132.64-0.2 130.81-0.13 128.99-0.05 128.09 0L128.09 0 128.09-1.05Q130.04-1.05 130.86-1.8 131.69-2.55 131.69-4.65L131.69-4.65 131.69-33.2Q131.69-35.45 130.94-36.52 130.19-37.6 128.09-37.6L128.09-37.6 128.09-38.65Q129.69-38.5 131.19-38.5L131.19-38.5Q132.84-38.5 134.34-38.68 135.84-38.85 137.09-39.2ZM165.99-39.2L165.99-39.2 165.99-5.45Q165.99-3.2 166.76-2.13 167.54-1.05 169.59-1.05L169.59-1.05 169.59 0Q168.04-0.15 166.49-0.15L166.49-0.15Q164.79-0.15 163.31 0 161.84 0.15 160.59 0.55L160.59 0.55 160.59-33.2Q160.59-35.45 159.81-36.52 159.04-37.6 156.99-37.6L156.99-37.6 156.99-38.65Q158.59-38.5 160.09-38.5L160.09-38.5Q161.74-38.5 163.24-38.68 164.74-38.85 165.99-39.2ZM154.74-26.5L154.74-26.5Q156.94-26.5 158.76-25.55 160.59-24.6 161.34-22.35L161.34-22.35 160.74-21.8Q160.04-23.6 158.69-24.43 157.34-25.25 155.64-25.25L155.64-25.25Q152.79-25.25 150.99-22.23 149.19-19.2 149.24-12.9L149.24-12.9Q149.24-8.75 149.94-6.13 150.64-3.5 152.01-2.25 153.39-1 155.34-1L155.34-1Q157.29-1 158.86-2.65 160.44-4.3 160.74-7.4L160.74-7.4 161.19-6.35Q160.69-2.95 158.79-1.13 156.89 0.7 153.69 0.7L153.69 0.7Q150.64 0.7 148.31-0.78 145.99-2.25 144.74-5.28 143.49-8.3 143.49-12.9L143.49-12.9Q143.49-17.45 145.01-20.48 146.54-23.5 149.09-25 151.64-26.5 154.74-26.5Z" opacity="1" transform="matrix(1,0,0,1,0,0)" fill="#000000" class="undefined-text-0" data-fill-palette-color="primary" id="text-0"></path></svg></g></svg></g><g transform="matrix(1,0,0,1,98.88,107.643516864)"><svg viewBox="0 0 197.76 23.103670025779234" height="23.103670025779234" width="197.76"><g transform="matrix(1,0,0,1,0,0)"><svg width="197.76" viewBox="2.9 -37.7 426.66 49.85" height="23.103670025779234" data-palette-color="#528265"><path d="M6.3-6.25L6.3-6.25Q6.3-2.4 10.6-2.4 14.9-2.4 17.75-6.2L17.75-6.2 17.75-12.45Q11.95-12.15 9.13-10.45 6.3-8.75 6.3-6.25ZM20.95-17.8L20.95-17.8 20.95-4Q20.95-1.4 23.3-1.3L23.3-1.3Q22.65 0.4 21.05 0.4L21.05 0.4Q17.75 0.4 17.75-3.85L17.75-3.85Q14.85 0.4 9.85 0.4L9.85 0.4Q6.85 0.4 4.88-1.3 2.9-3 2.9-5.95L2.9-5.95Q2.9-9.65 6.55-11.9 10.2-14.15 17.75-14.4L17.75-14.4 17.75-16.95Q17.75-20.45 16.55-22.08 15.35-23.7 12.65-23.7 9.95-23.7 8.65-22.65 7.35-21.6 7.35-20.33 7.35-19.05 8-18.4L8-18.4Q7.15-17.85 6.2-17.85 5.25-17.85 4.58-18.45 3.9-19.05 3.9-20.15L3.9-20.15Q3.9-22.4 6.4-24 8.9-25.6 12.7-25.6 16.5-25.6 18.73-23.48 20.95-21.35 20.95-17.8ZM59.32-20.38Q56.84-23.05 53.12-23.05 49.4-23.05 47.25-20.6 45.09-18.15 45.09-13.45L45.09-13.45Q45.09-7.55 47.62-4.83 50.15-2.1 53.87-2.1 57.59-2.1 59.7-4.6 61.8-7.1 61.8-11.75L61.8-11.75Q61.8-17.7 59.32-20.38ZM45.27-22.2Q48.75-25.6 53.5-25.6 58.25-25.6 61.67-22.15 65.09-18.7 65.09-12.58 65.09-6.45 61.67-3.03 58.25 0.4 53.5 0.4 48.75 0.4 45.27-3.03 41.8-6.45 41.8-12.63 41.8-18.8 45.27-22.2ZM92.09-17.1L92.09-17.1 92.09-2.55Q92.09-1.4 93.29-1.05L93.29-1.05Q92.49 0.4 91.14 0.4L91.14 0.4Q88.94 0.4 88.94-2.45L88.94-2.45 88.94-17.05Q88.94-22.7 83.99-22.7L83.99-22.7Q81.29-22.7 78.87-20.53 76.44-18.35 75.49-14.85L75.49-14.85 75.49-2.55Q75.49-1.45 76.64-1.05L76.64-1.05Q75.84 0.4 74.54 0.4L74.54 0.4Q72.34 0.4 72.34-2.45L72.34-2.45 72.34-22.6Q72.34-23.75 71.19-24.15L71.19-24.15Q71.89-25.6 73.24-25.6L73.24-25.6Q75.49-25.6 75.49-22.75L75.49-22.75 75.49-19.3Q76.79-22 79.19-23.8 81.59-25.6 84.84-25.6 88.09-25.6 90.09-23.48 92.09-21.35 92.09-17.1ZM102.74-14.35L113.19-15.1Q115.29-15.25 115.29-17.57 115.29-19.9 113.89-21.48 112.49-23.05 110.29-23.05L110.29-23.05Q107.34-23.05 105.24-20.73 103.14-18.4 102.74-14.35L102.74-14.35ZM102.64-12.5Q102.59-7.35 104.87-4.85 107.14-2.35 111.17-2.35 115.19-2.35 117.84-4.85L117.84-4.85Q118.44-4.5 118.44-3.7L118.44-3.7Q118.44-2.25 116.17-0.93 113.89 0.4 110.74 0.4L110.74 0.4Q105.74 0.4 102.47-2.83 99.19-6.05 99.19-11.9 99.19-17.75 102.74-21.68 106.29-25.6 110.74-25.6L110.74-25.6Q114.29-25.6 116.49-23.13 118.69-20.65 118.69-17.45L118.69-17.45Q118.69-15.25 117.42-14.13 116.14-13 113.34-12.95L113.34-12.95 102.64-12.6 102.64-12.5ZM155.49-20.75L155.49-20.75Q155.49-19.7 154.71-19.1 153.94-18.5 152.99-18.5 152.04-18.5 151.39-18.9L151.39-18.9Q151.69-19.4 151.69-20.4 151.69-21.4 150.44-22.33 149.19-23.25 146.64-23.25 144.09-23.25 142.61-22.13 141.14-21 141.14-19.53 141.14-18.05 142.64-16.9 144.14-15.75 146.29-14.8 148.44-13.85 150.59-12.78 152.74-11.7 154.24-10.1 155.74-8.5 155.74-6.55L155.74-6.55Q155.74-3.8 153.09-1.7 150.44 0.4 146.29 0.4 142.14 0.4 139.59-1.2 137.04-2.8 137.04-5.4L137.04-5.4Q137.04-6.9 137.81-7.7 138.59-8.5 139.54-8.5 140.49-8.5 141.09-7.9L141.09-7.9Q140.44-6.85 140.44-5.8L140.44-5.8Q140.44-4.05 141.89-3 143.34-1.95 146.16-1.95 148.99-1.95 150.69-3.18 152.39-4.4 152.39-6.18 152.39-7.95 150.91-9.18 149.44-10.4 147.31-11.3 145.19-12.2 143.06-13.13 140.94-14.05 139.46-15.5 137.99-16.95 137.99-18.85L137.99-18.85Q137.99-21.8 140.44-23.7 142.89-25.6 146.51-25.6 150.14-25.6 152.81-24.28 155.49-22.95 155.49-20.75ZM167.53-22.4L166.78-22.4 166.78-5.95Q166.78-4.05 167.53-3.25 168.28-2.45 170.03-2.45L170.03-2.45Q173.28-2.45 176.13-5.1L176.13-5.1Q176.78-4.6 176.78-3.85L176.78-3.85Q176.78-2.25 174.68-0.93 172.58 0.4 169.38 0.4L169.38 0.4Q163.58 0.4 163.58-6L163.58-6 163.58-22.4Q159.38-22.55 159.38-24.2L159.38-24.2Q159.38-24.95 159.88-25.4L159.88-25.4Q161.48-25.15 162.63-25.15L162.63-25.15 163.58-25.15 163.58-29.85Q163.58-30.95 162.43-31.45L162.43-31.45Q163.18-32.85 164.53-32.85L164.53-32.85Q166.78-32.85 166.78-30L166.78-30 166.78-25.15 175.38-25.15Q175.58-24.8 175.58-24.35L175.58-24.35Q175.58-22.4 167.53-22.4L167.53-22.4ZM198.26-20.38Q195.78-23.05 192.06-23.05 188.33-23.05 186.18-20.6 184.03-18.15 184.03-13.45L184.03-13.45Q184.03-7.55 186.56-4.83 189.08-2.1 192.81-2.1 196.53-2.1 198.63-4.6 200.73-7.1 200.73-11.75L200.73-11.75Q200.73-17.7 198.26-20.38ZM184.21-22.2Q187.68-25.6 192.43-25.6 197.18-25.6 200.61-22.15 204.03-18.7 204.03-12.58 204.03-6.45 200.61-3.03 197.18 0.4 192.43 0.4 187.68 0.4 184.21-3.03 180.73-6.45 180.73-12.63 180.73-18.8 184.21-22.2ZM221.43-2.65L221.43-2.65Q224.78-2.65 227.05-5.33 229.33-8 229.33-12.63 229.33-17.25 227.05-19.95 224.78-22.65 221.43-22.65L221.43-22.65Q216.78-22.65 214.43-18.35L214.43-18.35 214.43-6.5Q215.78-4.35 217.43-3.5 219.08-2.65 221.43-2.65ZM214.43-22.75L214.43-22.75 214.43-22Q217.08-25.6 221.58-25.6 226.08-25.6 229.38-22.2 232.68-18.8 232.68-12.63 232.68-6.45 229.35-3.05 226.03 0.35 221.55 0.35 217.08 0.35 214.43-2.85L214.43-2.85 214.43 9.15Q214.43 10.3 215.58 10.7L215.58 10.7Q214.78 12.15 213.48 12.15L213.48 12.15Q211.28 12.15 211.28 9.25L211.28 9.25 211.28-22.6Q211.28-23.75 210.13-24.15L210.13-24.15Q210.83-25.6 212.18-25.6L212.18-25.6Q214.43-25.6 214.43-22.75ZM270.02-20.75L270.02-20.75Q270.02-19.7 269.25-19.1 268.47-18.5 267.52-18.5 266.57-18.5 265.92-18.9L265.92-18.9Q266.22-19.4 266.22-20.4 266.22-21.4 264.97-22.33 263.72-23.25 261.17-23.25 258.62-23.25 257.15-22.13 255.67-21 255.67-19.53 255.67-18.05 257.17-16.9 258.67-15.75 260.82-14.8 262.97-13.85 265.12-12.78 267.27-11.7 268.77-10.1 270.27-8.5 270.27-6.55L270.27-6.55Q270.27-3.8 267.62-1.7 264.97 0.4 260.82 0.4 256.67 0.4 254.12-1.2 251.57-2.8 251.57-5.4L251.57-5.4Q251.57-6.9 252.35-7.7 253.12-8.5 254.07-8.5 255.02-8.5 255.62-7.9L255.62-7.9Q254.97-6.85 254.97-5.8L254.97-5.8Q254.97-4.05 256.42-3 257.87-1.95 260.7-1.95 263.52-1.95 265.22-3.18 266.92-4.4 266.92-6.18 266.92-7.95 265.45-9.18 263.97-10.4 261.85-11.3 259.72-12.2 257.6-13.13 255.47-14.05 254-15.5 252.52-16.95 252.52-18.85L252.52-18.85Q252.52-21.8 254.97-23.7 257.42-25.6 261.05-25.6 264.67-25.6 267.35-24.28 270.02-22.95 270.02-20.75ZM293.4-20.38Q290.92-23.05 287.2-23.05 283.47-23.05 281.32-20.6 279.17-18.15 279.17-13.45L279.17-13.45Q279.17-7.55 281.7-4.83 284.22-2.1 287.95-2.1 291.67-2.1 293.77-4.6 295.87-7.1 295.87-11.75L295.87-11.75Q295.87-17.7 293.4-20.38ZM279.35-22.2Q282.82-25.6 287.57-25.6 292.32-25.6 295.75-22.15 299.17-18.7 299.17-12.58 299.17-6.45 295.75-3.03 292.32 0.4 287.57 0.4 282.82 0.4 279.35-3.03 275.87-6.45 275.87-12.63 275.87-18.8 279.35-22.2ZM309.57-34.9L309.57-34.9 309.57-2.55Q309.57-1.45 310.72-1.05L310.72-1.05Q309.92 0.4 308.62 0.4L308.62 0.4Q306.42 0.4 306.42-2.45L306.42-2.45 306.42-34.7Q306.42-35.8 305.27-36.3L305.27-36.3Q305.87-37.7 307.32-37.7L307.32-37.7Q309.57-37.7 309.57-34.9ZM338.87-22.75L338.87-22.75 338.87-2.55Q338.87-1.4 340.07-1.05L340.07-1.05Q339.27 0.4 337.92 0.4L337.92 0.4Q335.72 0.4 335.72-2.45L335.72-2.45 335.72-4.5Q332.87 0.4 327.32 0.4L327.32 0.4Q319.12 0.4 319.12-8.05L319.12-8.05 319.12-22.6Q319.12-23.75 317.97-24.15L317.97-24.15Q318.67-25.6 320.02-25.6L320.02-25.6Q322.27-25.6 322.27-22.75L322.27-22.75 322.27-8.2Q322.27-5.45 323.52-3.98 324.77-2.5 327.59-2.5 330.42-2.5 332.52-4.08 334.62-5.65 335.72-8.45L335.72-8.45 335.72-22.6Q335.72-23.75 334.57-24.15L334.57-24.15Q335.42-25.6 336.72-25.6L336.72-25.6Q338.87-25.6 338.87-22.75ZM352.16-22.4L351.41-22.4 351.41-5.95Q351.41-4.05 352.16-3.25 352.91-2.45 354.66-2.45L354.66-2.45Q357.91-2.45 360.76-5.1L360.76-5.1Q361.41-4.6 361.41-3.85L361.41-3.85Q361.41-2.25 359.31-0.93 357.21 0.4 354.01 0.4L354.01 0.4Q348.21 0.4 348.21-6L348.21-6 348.21-22.4Q344.01-22.55 344.01-24.2L344.01-24.2Q344.01-24.95 344.51-25.4L344.51-25.4Q346.11-25.15 347.26-25.15L347.26-25.15 348.21-25.15 348.21-29.85Q348.21-30.95 347.06-31.45L347.06-31.45Q347.81-32.85 349.16-32.85L349.16-32.85Q351.41-32.85 351.41-30L351.41-30 351.41-25.15 360.01-25.15Q360.21-24.8 360.21-24.35L360.21-24.35Q360.21-22.4 352.16-22.4L352.16-22.4ZM369.31-35.8Q370.41-35.8 371.11-35.18 371.81-34.55 371.81-33.45 371.81-32.35 370.88-31.5 369.96-30.65 368.81-30.65 367.66-30.65 366.94-31.33 366.21-32 366.21-33.13 366.21-34.25 367.21-35.02 368.21-35.8 369.31-35.8ZM370.81-22.75L370.81-22.75 370.81-2.55Q370.81-1.45 371.96-1.05L371.96-1.05Q371.16 0.4 369.86 0.4L369.86 0.4Q367.66 0.4 367.66-2.45L367.66-2.45 367.66-22.6Q367.66-23.75 366.51-24.15L366.51-24.15Q367.21-25.6 368.56-25.6L368.56-25.6Q370.81-25.6 370.81-22.75ZM395.58-20.38Q393.11-23.05 389.38-23.05 385.66-23.05 383.51-20.6 381.36-18.15 381.36-13.45L381.36-13.45Q381.36-7.55 383.88-4.83 386.41-2.1 390.13-2.1 393.86-2.1 395.96-4.6 398.06-7.1 398.06-11.75L398.06-11.75Q398.06-17.7 395.58-20.38ZM381.53-22.2Q385.01-25.6 389.76-25.6 394.51-25.6 397.93-22.15 401.36-18.7 401.36-12.58 401.36-6.45 397.93-3.03 394.51 0.4 389.76 0.4 385.01 0.4 381.53-3.03 378.06-6.45 378.06-12.63 378.06-18.8 381.53-22.2ZM428.36-17.1L428.36-17.1 428.36-2.55Q428.36-1.4 429.56-1.05L429.56-1.05Q428.75 0.4 427.41 0.4L427.41 0.4Q425.2 0.4 425.2-2.45L425.2-2.45 425.2-17.05Q425.2-22.7 420.25-22.7L420.25-22.7Q417.56-22.7 415.13-20.53 412.7-18.35 411.75-14.85L411.75-14.85 411.75-2.55Q411.75-1.45 412.91-1.05L412.91-1.05Q412.11 0.4 410.81 0.4L410.81 0.4Q408.61 0.4 408.61-2.45L408.61-2.45 408.61-22.6Q408.61-23.75 407.45-24.15L407.45-24.15Q408.16-25.6 409.5-25.6L409.5-25.6Q411.75-25.6 411.75-22.75L411.75-22.75 411.75-19.3Q413.06-22 415.45-23.8 417.86-25.6 421.11-25.6 424.36-25.6 426.36-23.48 428.36-21.35 428.36-17.1Z" opacity="1" transform="matrix(1,0,0,1,0,0)" fill="#000000" class="undefined-text-1" data-fill-palette-color="secondary" id="text-1"></path></svg></g></svg></g></svg></g></svg></g><g transform="matrix(1,0,0,1,75.54432000000001,0)"><svg viewBox="0 0 244.43135999999996 117.16912473008952" height="117.16912473008952" width="244.43135999999996"><g><svg xmlns="http://www.w3.org/2000/svg" xmlns:xlink="http://www.w3.org/1999/xlink" version="1.1" x="0" y="0" viewBox="-346 280.5 99.922 47.898000000000025" enable-background="new -346 256 100 100" xml:space="preserve" height="117.16912473008952" width="244.43135999999996" class="icon-icon-0" data-fill-palette-color="accent" id="icon-0"><g fill="#528265" data-fill-palette-color="accent"><path d="M-298.567 324.655v-3.785c-2.536-0.12-4.997-0.877-6.436-1.714l1.136-4.662c1.59 0.917 3.823 1.754 6.284 1.754 2.196 0 3.672-0.917 3.672-2.471 0-1.514-1.212-2.471-4.051-3.466-4.051-1.436-6.814-3.428-6.814-7.292 0-3.546 2.347-6.295 6.397-7.092v-3.785h3.71v3.506c2.498 0.08 4.202 0.677 5.526 1.315l-1.135 4.502c-0.946-0.478-2.726-1.395-5.452-1.395-2.461 0-3.256 1.156-3.256 2.271 0 1.275 1.325 2.152 4.581 3.387 4.505 1.674 6.284 3.865 6.284 7.491 0 3.546-2.347 6.574-6.701 7.331v4.104H-298.567z" fill="#000000" data-fill-palette-color="accent"></path></g><path d="M-285.683 328.354c5.265-4.159 8.608-11.236 8.608-19.415 0-12.873-8.618-23.308-19.246-23.308s-19.244 10.435-19.244 23.308c0 8.177 3.315 15.233 8.576 19.393l0.052 0.066H-346V280.5l0 0h99.922v47.898h-39.668L-285.683 328.354zM-253.412 321.063v-10.812h-3.089v7.723h-15.447v3.089H-253.412L-253.412 321.063zM-319.833 321.063v-3.089h-15.447v-7.723h-3.089v10.812H-319.833L-319.833 321.063zM-253.412 298.667v-10.812h-18.536v3.089h15.447v7.724H-253.412L-253.412 298.667zM-335.28 298.667v-7.724h15.447v-3.089h-18.536v10.812H-335.28L-335.28 298.667z" fill="#000000" data-fill-palette-color="accent"></path></svg><g></g></g></svg></g><g></g></svg></g></svg></g></svg></g></svg></g><defs></defs></svg><rect width="395.52" height="247.2" fill="none" stroke="none" visibility="hidden"></rect></g></svg></g></svg>